<?xml version="1.0" encoding="UTF-8" standalone="no"?>
<!-- Created by diasvg.py -->
<svg width="41.789cm" height="10.100cm" viewBox="1.736 2.950 43.524 13.050"
 xmlns="http://www.w3.org/2000/svg"
 xmlns:xlink="http://www.w3.org/1999/xlink">
<path stroke="none" fill="#B7B79D" stroke-width="0.001" d="M 1.737,9.352 L 6.733,9.352 L 6.733,10.275 L 1.737,10.275 L 1.737,9.352 "/>
<path stroke="#494936" fill="none" stroke-width="0.001"  d="M 1.737,9.352 L 6.733,9.352 L 6.733,10.275 L 1.737,10.275 L 1.737,9.352 "/>
<path stroke="none" fill="#C9C9B6" stroke-width="0.001" d="M 1.737,9.352 L 2.267,8.849 L 7.263,8.849 L 6.733,9.352 L 1.737,9.352 "/>
<path stroke="#494936" fill="none" stroke-width="0.001"  d="M 1.737,9.352 L 2.267,8.849 L 7.263,8.849 L 6.733,9.352 L 1.737,9.352 "/>
<path stroke="#000000" fill="none" stroke-width="0.106"  d="M 6.454,9.772 L 5.255,9.772 "/>
<path stroke="none" fill="#7A7A5A" stroke-width="0.001" d="M 6.733,10.275 L 7.263,9.744 L 7.263,8.849 L 6.733,9.352 L 6.733,10.275 "/>
<path stroke="#494936" fill="none" stroke-width="0.001"  d="M 6.733,10.275 L 7.263,9.744 L 7.263,8.849 L 6.733,9.352 L 6.733,10.275 "/>
<path stroke="none" fill="#C9C9B6" stroke-width="0.001" d="M 1.765,10.861 L 2.323,10.162 L 6.175,10.162 L 5.618,10.861 L 1.765,10.861 "/>
<path stroke="#494936" fill="none" stroke-width="0.001"  d="M 1.765,10.861 L 2.323,10.162 L 6.175,10.162 L 5.618,10.861 L 1.765,10.861 "/>
<path stroke="none" fill="#7A7A5A" stroke-width="0.001" d="M 5.618,11.000 L 6.175,10.414 L 6.175,10.162 L 5.618,10.861 L 5.618,11.000 "/>
<path stroke="#494936" fill="none" stroke-width="0.001"  d="M 5.618,11.000 L 6.175,10.414 L 6.175,10.162 L 5.618,10.861 L 5.618,11.000 "/>
<path stroke="none" fill="#B7B79D" stroke-width="0.001" d="M 1.765,10.861 L 5.618,10.861 L 5.618,11.000 L 1.765,11.000 L 1.765,10.861 "/>
<path stroke="#494936" fill="none" stroke-width="0.001"  d="M 1.765,10.861 L 5.618,10.861 L 5.618,11.000 L 1.765,11.000 L 1.765,10.861 "/>
<path stroke="none" fill="#000000" stroke-width="0.001" d="M 2.490,9.241 L 2.910,8.849 L 6.454,8.849 L 6.064,9.241 L 2.490,9.241 "/>
<path stroke="#000000" fill="none" stroke-width="0.001"  d="M 2.490,9.241 L 2.910,8.849 L 6.454,8.849 L 6.064,9.241 L 2.490,9.241 "/>
<path stroke="none" fill="#C9C9B6" stroke-width="0.001" d="M 2.462,6.363 L 2.854,6.000 L 6.399,6.000 L 6.007,6.363 L 2.462,6.363 "/>
<path stroke="#494936" fill="none" stroke-width="0.001"  d="M 2.462,6.363 L 2.854,6.000 L 6.399,6.000 L 6.007,6.363 L 2.462,6.363 "/>
<path stroke="none" fill="#B7B79D" stroke-width="0.001" d="M 2.462,6.363 L 6.036,6.363 L 6.036,9.184 L 2.462,9.184 L 2.462,6.363 "/>
<path stroke="#494936" fill="none" stroke-width="0.001"  d="M 2.462,6.363 L 6.034,6.363 L 6.034,9.183 L 2.462,9.183 L 2.462,6.363 "/>
<path stroke="none" fill="#FFFFFF" stroke-width="0.001" d="M 2.769,6.725 L 5.728,6.725 L 5.728,8.905 L 2.769,8.905 L 2.769,6.725 "/>
<path stroke="#494936" fill="none" stroke-width="0.001"  d="M 2.769,6.725 L 5.728,6.725 L 5.728,8.904 L 2.769,8.904 L 2.769,6.725 "/>
<path stroke="none" fill="#7A7A5A" stroke-width="0.001" d="M 6.007,9.157 L 6.399,8.766 L 6.399,6.000 L 6.007,6.363 L 6.007,9.157 "/>
<path stroke="#494936" fill="none" stroke-width="0.001"  d="M 6.007,9.157 L 6.399,8.766 L 6.399,6.000 L 6.007,6.363 L 6.007,9.157 "/>
<text x="4.000" y="5.223"  fill="#000000" text-anchor="middle" font-size="0.80" font-family="sans" font-style="normal" font-weight="400">
MySQL client</text>
<rect x="9.000" y="3.000" width="12.000" height="4.000" fill="#FFFFFF" stroke="none" stroke-width="0"/>
<rect x="9.000" y="3.000" width="12.000" height="4.000" fill="none" stroke="#000000" stroke-width="0.100" />
<text x="15.000" y="4.795"  fill="#000000" text-anchor="middle" font-size="0.80" font-family="sans" font-style="normal" font-weight="400">
PREROUTING</text>
<text x="15.000" y="5.595"  fill="#000000" text-anchor="middle" font-size="0.80" font-family="sans" font-style="normal" font-weight="400">
-t mangle</text>
<rect x="9.000" y="9.000" width="12.000" height="4.000" fill="#FFFFFF" stroke="none" stroke-width="0"/>
<rect x="9.000" y="9.000" width="12.000" height="4.000" fill="none" stroke="#000000" stroke-width="0.100" />
<text x="15.000" y="10.795"  fill="#000000" text-anchor="middle" font-size="0.80" font-family="sans" font-style="normal" font-weight="400">
POSTROUTING</text>
<text x="15.000" y="11.595"  fill="#000000" text-anchor="middle" font-size="0.80" font-family="sans" font-style="normal" font-weight="400">
-t mangle</text>
<path stroke="#000000" fill="none" stroke-width="0.100"  d ="M 6.848,10.504 A 10.383,10.383 0 0,0 8.951,11.287 "/>
<polygon fill="#000000" stroke="none" stroke-width="0.100" points="6.516,10.330 7.075,10.357 6.843,10.514 6.830,10.793 "/>
<polygon fill="none" stroke="#000000" stroke-width="0.100"  points="6.516,10.330 7.075,10.357 6.843,10.514 6.830,10.793 "/>
<path stroke="#000000" fill="none" stroke-width="0.100"  d ="M 8.502,5.035 A 7.957,7.957 0 0,0 6.400,6.428 "/>
<polygon fill="#000000" stroke="none" stroke-width="0.100" points="8.847,4.888 8.469,5.300 8.496,5.022 8.290,4.833 "/>
<polygon fill="none" stroke="#000000" stroke-width="0.100"  points="8.847,4.888 8.469,5.300 8.496,5.022 8.290,4.833 "/>
<rect x="23.000" y="3.000" width="12.000" height="4.000" fill="#FFFFFF" stroke="none" stroke-width="0"/>
<rect x="23.000" y="3.000" width="12.000" height="4.000" fill="none" stroke="#000000" stroke-width="0.100" />
<text x="29.000" y="4.395"  fill="#000000" text-anchor="middle" font-size="0.80" font-family="sans" font-style="normal" font-weight="400">
INPUT</text>
<text x="29.000" y="5.195"  fill="#000000" text-anchor="middle" font-size="0.80" font-family="sans" font-style="normal" font-weight="400">
-t filter</text>
<text x="29.000" y="5.995"  fill="#000000" text-anchor="middle" font-size="0.80" font-family="sans" font-style="normal" font-weight="400">
-t mangle</text>
<rect x="23.000" y="9.000" width="12.000" height="4.000" fill="#FFFFFF" stroke="none" stroke-width="0"/>
<rect x="23.000" y="9.000" width="12.000" height="4.000" fill="none" stroke="#000000" stroke-width="0.100" />
<text x="29.000" y="10.395"  fill="#000000" text-anchor="middle" font-size="0.80" font-family="sans" font-style="normal" font-weight="400">
OUTPUT</text>
<text x="29.000" y="11.195"  fill="#000000" text-anchor="middle" font-size="0.80" font-family="sans" font-style="normal" font-weight="400">
-t filter</text>
<text x="29.000" y="11.995"  fill="#000000" text-anchor="middle" font-size="0.80" font-family="sans" font-style="normal" font-weight="400">
-t mangle</text>
<line x1="21.050" y1="5.000" x2="22.463" y2="5.000" stroke="#000000" stroke-width="0.100" />
<polygon fill="#000000" stroke="none" stroke-width="0.100" points="22.838,5.000 22.338,5.250 22.463,5.000 22.338,4.750 "/>
<polygon fill="none" stroke="#000000" stroke-width="0.100"  points="22.838,5.000 22.338,5.250 22.463,5.000 22.338,4.750 "/>
<line x1="22.950" y1="11.000" x2="21.537" y2="11.000" stroke="#000000" stroke-width="0.100" />
<polygon fill="#000000" stroke="none" stroke-width="0.100" points="21.162,11.000 21.662,10.750 21.537,11.000 21.662,11.250 "/>
<polygon fill="none" stroke="#000000" stroke-width="0.100"  points="21.162,11.000 21.662,10.750 21.537,11.000 21.662,11.250 "/>
<text x="41.000" y="5.223"  fill="#000000" text-anchor="middle" font-size="0.80" font-family="sans" font-style="normal" font-weight="400">
MySQL server</text>
<path stroke="#000000" fill="none" stroke-width="0.100"  d ="M 38.143,6.063 A 11.703,11.703 0 0,0 35.050,4.838 "/>
<polygon fill="#000000" stroke="none" stroke-width="0.100" points="38.465,6.254 37.909,6.200 38.148,6.055 38.175,5.776 "/>
<polygon fill="none" stroke="#000000" stroke-width="0.100"  points="38.465,6.254 37.909,6.200 38.148,6.055 38.175,5.776 "/>
<path stroke="#000000" fill="none" stroke-width="0.100"  d ="M 35.520,11.504 A 9.609,9.609 0 0,0 38.906,9.789 "/>
<polygon fill="#000000" stroke="none" stroke-width="0.100" points="35.158,11.598 35.591,11.245 35.524,11.516 35.700,11.733 "/>
<polygon fill="none" stroke="#000000" stroke-width="0.100"  points="35.158,11.598 35.591,11.245 35.524,11.516 35.700,11.733 "/>
<path stroke="none" fill="#A5A585" stroke-width="0.001" d="M 43.524,9.026 L 43.520,8.976 L 43.509,8.927 L 43.490,8.878 L 43.465,8.830 L 43.433,8.782 L 43.393,8.734 L 43.347,8.687 L 43.293,8.642 L 43.232,8.596 L 43.165,8.554 L 43.092,8.511 L 43.013,8.469 L 42.927,8.429 L 42.836,8.391 L 42.740,8.354 L 42.637,8.319 L 42.530,8.287 L 42.418,8.256 L 42.302,8.227 L 42.181,8.200 L 42.057,8.174 L 41.929,8.151 L 41.797,8.130 L 41.664,8.112 L 41.527,8.096 L 41.388,8.083 L 41.248,8.071 L 41.106,8.063 L 40.963,8.056 L 40.819,8.052 L 40.675,8.052 L 40.675,8.052 L 40.530,8.052 L 40.386,8.056 L 40.243,8.063 L 40.100,8.071 L 39.960,8.083 L 39.821,8.096 L 39.685,8.112 L 39.551,8.130 L 39.420,8.151 L 39.291,8.174 L 39.168,8.200 L 39.047,8.227 L 38.931,8.256 L 38.819,8.287 L 38.712,8.319 L 38.609,8.354 L 38.513,8.391 L 38.421,8.429 L 38.336,8.469 L 38.256,8.511 L 38.183,8.554 L 38.116,8.596 L 38.056,8.642 L 38.002,8.687 L 37.955,8.734 L 37.916,8.782 L 37.884,8.830 L 37.858,8.878 L 37.839,8.927 L 37.829,8.976 L 37.825,9.026 L 37.825,9.026 L 37.829,9.076 L 37.839,9.124 L 37.858,9.174 L 37.884,9.222 L 37.916,9.270 L 37.955,9.318 L 38.002,9.364 L 38.056,9.410 L 38.116,9.455 L 38.183,9.498 L 38.256,9.541 L 38.336,9.583 L 38.421,9.623 L 38.513,9.661 L 38.609,9.697 L 38.712,9.732 L 38.819,9.765 L 38.931,9.796 L 39.047,9.825 L 39.168,9.852 L 39.291,9.878 L 39.420,9.900 L 39.551,9.921 L 39.685,9.940 L 39.821,9.956 L 39.960,9.969 L 40.100,9.980 L 40.243,9.988 L 40.386,9.995 L 40.530,9.999 L 40.675,10.000 L 40.675,10.000 L 40.819,9.999 L 40.963,9.995 L 41.106,9.988 L 41.248,9.980 L 41.388,9.969 L 41.527,9.956 L 41.664,9.940 L 41.797,9.921 L 41.929,9.900 L 42.057,9.878 L 42.181,9.852 L 42.302,9.825 L 42.418,9.796 L 42.530,9.765 L 42.637,9.732 L 42.740,9.697 L 42.836,9.661 L 42.927,9.623 L 43.013,9.583 L 43.092,9.541 L 43.165,9.498 L 43.232,9.455 L 43.293,9.410 L 43.347,9.364 L 43.393,9.318 L 43.433,9.270 L 43.465,9.222 L 43.490,9.174 L 43.509,9.124 L 43.520,9.076 L 43.524,9.026 "/>
<path stroke="#494936" fill="none" stroke-width="0.001"  d="M 43.490,9.010 L 43.487,8.961 L 43.476,8.913 L 43.459,8.865 L 43.434,8.817 L 43.400,8.769 L 43.360,8.723 L 43.315,8.677 L 43.261,8.633 L 43.201,8.589 L 43.135,8.545 L 43.062,8.504 L 42.983,8.463 L 42.898,8.424 L 42.809,8.385 L 42.711,8.350 L 42.609,8.316 L 42.502,8.283 L 42.392,8.252 L 42.277,8.224 L 42.157,8.197 L 42.032,8.173 L 41.906,8.151 L 41.775,8.130 L 41.643,8.112 L 41.507,8.096 L 41.368,8.084 L 41.229,8.071 L 41.087,8.064 L 40.945,8.058 L 40.801,8.054 L 40.658,8.052 L 40.658,8.052 L 40.514,8.054 L 40.371,8.058 L 40.228,8.064 L 40.088,8.071 L 39.948,8.084 L 39.809,8.096 L 39.673,8.112 L 39.540,8.130 L 39.410,8.151 L 39.283,8.173 L 39.159,8.197 L 39.039,8.224 L 38.925,8.252 L 38.813,8.283 L 38.705,8.316 L 38.604,8.350 L 38.508,8.385 L 38.418,8.424 L 38.333,8.463 L 38.253,8.504 L 38.182,8.545 L 38.116,8.589 L 38.054,8.633 L 38.001,8.677 L 37.955,8.723 L 37.916,8.769 L 37.883,8.817 L 37.857,8.865 L 37.839,8.913 L 37.829,8.961 L 37.825,9.010 L 37.825,9.010 L 37.829,9.059 L 37.839,9.106 L 37.857,9.155 L 37.883,9.202 L 37.916,9.250 L 37.955,9.297 L 38.001,9.343 L 38.054,9.387 L 38.116,9.430 L 38.182,9.475 L 38.253,9.517 L 38.333,9.557 L 38.418,9.596 L 38.508,9.634 L 38.604,9.670 L 38.705,9.704 L 38.813,9.736 L 38.925,9.767 L 39.039,9.795 L 39.159,9.823 L 39.283,9.848 L 39.410,9.869 L 39.540,9.890 L 39.673,9.907 L 39.809,9.923 L 39.948,9.936 L 40.088,9.948 L 40.228,9.956 L 40.371,9.962 L 40.514,9.966 L 40.658,9.967 L 40.658,9.967 L 40.801,9.966 L 40.945,9.962 L 41.087,9.956 L 41.229,9.948 L 41.368,9.936 L 41.507,9.923 L 41.643,9.907 L 41.775,9.890 L 41.906,9.869 L 42.032,9.848 L 42.157,9.823 L 42.277,9.795 L 42.392,9.767 L 42.502,9.736 L 42.609,9.704 L 42.711,9.670 L 42.809,9.634 L 42.898,9.596 L 42.983,9.557 L 43.062,9.517 L 43.135,9.475 L 43.201,9.430 L 43.261,9.387 L 43.315,9.343 L 43.360,9.297 L 43.400,9.250 L 43.434,9.202 L 43.459,9.155 L 43.476,9.106 L 43.487,9.059 L 43.490,9.010 "/>
<path stroke="none" fill="#A5A585" stroke-width="0.001" d="M 37.825,6.991 L 37.825,9.043 L 43.490,9.043 L 43.490,6.991 L 37.825,6.991 "/>
<path stroke="none" fill="#C9C9B6" stroke-width="0.001" d="M 43.524,6.974 L 43.520,6.924 L 43.509,6.875 L 43.490,6.826 L 43.465,6.778 L 43.433,6.729 L 43.393,6.682 L 43.347,6.634 L 43.293,6.590 L 43.232,6.545 L 43.165,6.500 L 43.092,6.459 L 43.013,6.417 L 42.927,6.377 L 42.836,6.339 L 42.740,6.303 L 42.637,6.267 L 42.530,6.234 L 42.418,6.204 L 42.302,6.174 L 42.181,6.147 L 42.057,6.122 L 41.929,6.100 L 41.797,6.079 L 41.664,6.060 L 41.527,6.044 L 41.388,6.031 L 41.248,6.020 L 41.106,6.012 L 40.963,6.005 L 40.819,6.001 L 40.675,6.000 L 40.675,6.000 L 40.530,6.001 L 40.386,6.005 L 40.243,6.012 L 40.100,6.020 L 39.960,6.031 L 39.821,6.044 L 39.685,6.060 L 39.551,6.079 L 39.420,6.100 L 39.291,6.122 L 39.168,6.147 L 39.047,6.174 L 38.931,6.204 L 38.819,6.234 L 38.712,6.267 L 38.609,6.303 L 38.513,6.339 L 38.421,6.377 L 38.336,6.417 L 38.256,6.459 L 38.183,6.500 L 38.116,6.545 L 38.056,6.590 L 38.002,6.634 L 37.955,6.682 L 37.916,6.729 L 37.884,6.778 L 37.858,6.826 L 37.839,6.875 L 37.829,6.924 L 37.825,6.974 L 37.825,6.974 L 37.829,7.023 L 37.839,7.073 L 37.858,7.120 L 37.884,7.170 L 37.916,7.218 L 37.955,7.266 L 38.002,7.313 L 38.056,7.358 L 38.116,7.403 L 38.183,7.446 L 38.256,7.489 L 38.336,7.530 L 38.421,7.570 L 38.513,7.608 L 38.609,7.646 L 38.712,7.680 L 38.819,7.713 L 38.931,7.744 L 39.047,7.773 L 39.168,7.800 L 39.291,7.826 L 39.420,7.848 L 39.551,7.870 L 39.685,7.888 L 39.821,7.903 L 39.960,7.917 L 40.100,7.927 L 40.243,7.937 L 40.386,7.943 L 40.530,7.947 L 40.675,7.948 L 40.675,7.948 L 40.819,7.947 L 40.963,7.943 L 41.106,7.937 L 41.248,7.927 L 41.388,7.917 L 41.527,7.903 L 41.664,7.888 L 41.797,7.870 L 41.929,7.848 L 42.057,7.826 L 42.181,7.800 L 42.302,7.773 L 42.418,7.744 L 42.530,7.713 L 42.637,7.680 L 42.740,7.646 L 42.836,7.608 L 42.927,7.570 L 43.013,7.530 L 43.092,7.489 L 43.165,7.446 L 43.232,7.403 L 43.293,7.358 L 43.347,7.313 L 43.393,7.266 L 43.433,7.218 L 43.465,7.170 L 43.490,7.120 L 43.509,7.073 L 43.520,7.023 L 43.524,6.974 "/>
<path stroke="#494936" fill="none" stroke-width="0.001"  d="M 43.490,6.959 L 43.487,6.909 L 43.476,6.861 L 43.459,6.814 L 43.434,6.766 L 43.400,6.717 L 43.360,6.671 L 43.315,6.626 L 43.261,6.580 L 43.201,6.537 L 43.135,6.493 L 43.062,6.452 L 42.983,6.411 L 42.898,6.371 L 42.809,6.335 L 42.711,6.298 L 42.609,6.265 L 42.502,6.232 L 42.392,6.201 L 42.277,6.172 L 42.157,6.145 L 42.032,6.121 L 41.906,6.099 L 41.775,6.079 L 41.643,6.060 L 41.507,6.044 L 41.368,6.031 L 41.229,6.020 L 41.087,6.012 L 41.040,6.009 L 40.276,6.009 L 40.228,6.012 L 40.088,6.020 L 39.948,6.031 L 39.809,6.044 L 39.673,6.060 L 39.540,6.079 L 39.410,6.099 L 39.283,6.121 L 39.159,6.145 L 39.039,6.172 L 38.925,6.201 L 38.813,6.232 L 38.705,6.265 L 38.604,6.298 L 38.508,6.335 L 38.418,6.371 L 38.333,6.411 L 38.253,6.452 L 38.182,6.493 L 38.116,6.537 L 38.054,6.580 L 38.001,6.626 L 37.955,6.671 L 37.916,6.717 L 37.883,6.766 L 37.857,6.814 L 37.839,6.861 L 37.829,6.909 L 37.825,6.959 L 37.825,6.959 L 37.829,7.006 L 37.839,7.055 L 37.857,7.103 L 37.883,7.151 L 37.916,7.198 L 37.955,7.245 L 38.001,7.290 L 38.054,7.336 L 38.116,7.379 L 38.182,7.423 L 38.253,7.465 L 38.333,7.505 L 38.418,7.544 L 38.508,7.583 L 38.604,7.618 L 38.705,7.652 L 38.813,7.684 L 38.925,7.715 L 39.039,7.743 L 39.159,7.770 L 39.283,7.796 L 39.410,7.816 L 39.540,7.838 L 39.673,7.855 L 39.809,7.871 L 39.948,7.885 L 40.088,7.896 L 40.228,7.905 L 40.371,7.910 L 40.514,7.913 L 40.658,7.916 L 40.658,7.916 L 40.801,7.913 L 40.945,7.910 L 41.087,7.905 L 41.229,7.896 L 41.368,7.885 L 41.507,7.871 L 41.643,7.855 L 41.775,7.838 L 41.906,7.816 L 42.032,7.796 L 42.157,7.770 L 42.277,7.743 L 42.392,7.715 L 42.502,7.684 L 42.609,7.652 L 42.711,7.618 L 42.809,7.583 L 42.898,7.544 L 42.983,7.505 L 43.062,7.465 L 43.135,7.423 L 43.201,7.379 L 43.261,7.336 L 43.315,7.290 L 43.360,7.245 L 43.400,7.198 L 43.434,7.151 L 43.459,7.103 L 43.476,7.055 L 43.487,7.006 L 43.490,6.959 "/>
<path stroke="#000000" fill="none" stroke-width="0.001"  d="M 37.825,6.959 L 37.825,9.009 "/>
<path stroke="#000000" fill="none" stroke-width="0.001"  d="M 43.490,6.959 L 43.490,9.009 "/>
</svg>