<?xml version="1.0" encoding="UTF-8" standalone="no"?>
<!-- Created by diasvg.py -->
<svg width="54.100cm" height="16.100cm" viewBox="0.950 0.950 55.050 17.050"
 xmlns="http://www.w3.org/2000/svg"
 xmlns:xlink="http://www.w3.org/1999/xlink">
<path stroke="none" fill="#B7B79D" stroke-width="0.001" d="M 3.000,9.590 L 6.860,9.590 L 6.860,10.303 L 3.000,10.303 L 3.000,9.590 "/>
<path stroke="#494936" fill="none" stroke-width="0.001"  d="M 3.000,9.590 L 6.860,9.590 L 6.860,10.303 L 3.000,10.303 L 3.000,9.590 "/>
<path stroke="none" fill="#C9C9B6" stroke-width="0.001" d="M 3.000,9.590 L 3.409,9.202 L 7.270,9.202 L 6.860,9.590 L 3.000,9.590 "/>
<path stroke="#494936" fill="none" stroke-width="0.001"  d="M 3.000,9.590 L 3.409,9.202 L 7.270,9.202 L 6.860,9.590 L 3.000,9.590 "/>
<path stroke="#000000" fill="none" stroke-width="0.106"  d="M 6.644,9.915 L 5.718,9.915 "/>
<path stroke="none" fill="#7A7A5A" stroke-width="0.001" d="M 6.860,10.303 L 7.270,9.893 L 7.270,9.202 L 6.860,9.590 L 6.860,10.303 "/>
<path stroke="#494936" fill="none" stroke-width="0.001"  d="M 6.860,10.303 L 7.270,9.893 L 7.270,9.202 L 6.860,9.590 L 6.860,10.303 "/>
<path stroke="none" fill="#C9C9B6" stroke-width="0.001" d="M 3.022,10.756 L 3.453,10.216 L 6.429,10.216 L 5.998,10.756 L 3.022,10.756 "/>
<path stroke="#494936" fill="none" stroke-width="0.001"  d="M 3.022,10.756 L 3.453,10.216 L 6.429,10.216 L 5.998,10.756 L 3.022,10.756 "/>
<path stroke="none" fill="#7A7A5A" stroke-width="0.001" d="M 5.998,10.863 L 6.429,10.411 L 6.429,10.216 L 5.998,10.756 L 5.998,10.863 "/>
<path stroke="#494936" fill="none" stroke-width="0.001"  d="M 5.998,10.863 L 6.429,10.411 L 6.429,10.216 L 5.998,10.756 L 5.998,10.863 "/>
<path stroke="none" fill="#B7B79D" stroke-width="0.001" d="M 3.022,10.756 L 5.998,10.756 L 5.998,10.863 L 3.022,10.863 L 3.022,10.756 "/>
<path stroke="#494936" fill="none" stroke-width="0.001"  d="M 3.022,10.756 L 5.998,10.756 L 5.998,10.863 L 3.022,10.863 L 3.022,10.756 "/>
<path stroke="none" fill="#000000" stroke-width="0.001" d="M 3.582,9.504 L 3.906,9.202 L 6.644,9.202 L 6.343,9.504 L 3.582,9.504 "/>
<path stroke="#000000" fill="none" stroke-width="0.001"  d="M 3.582,9.504 L 3.906,9.202 L 6.644,9.202 L 6.343,9.504 L 3.582,9.504 "/>
<path stroke="none" fill="#C9C9B6" stroke-width="0.001" d="M 3.560,7.280 L 3.863,7.000 L 6.602,7.000 L 6.300,7.280 L 3.560,7.280 "/>
<path stroke="#494936" fill="none" stroke-width="0.001"  d="M 3.560,7.280 L 3.863,7.000 L 6.602,7.000 L 6.300,7.280 L 3.560,7.280 "/>
<path stroke="none" fill="#B7B79D" stroke-width="0.001" d="M 3.560,7.280 L 6.321,7.280 L 6.321,9.460 L 3.560,9.460 L 3.560,7.280 "/>
<path stroke="#494936" fill="none" stroke-width="0.001"  d="M 3.560,7.280 L 6.320,7.280 L 6.320,9.460 L 3.560,9.460 L 3.560,7.280 "/>
<path stroke="none" fill="#FFFFFF" stroke-width="0.001" d="M 3.797,7.560 L 6.084,7.560 L 6.084,9.244 L 3.797,9.244 L 3.797,7.560 "/>
<path stroke="#494936" fill="none" stroke-width="0.001"  d="M 3.797,7.560 L 6.084,7.560 L 6.084,9.244 L 3.797,9.244 L 3.797,7.560 "/>
<path stroke="none" fill="#7A7A5A" stroke-width="0.001" d="M 6.300,9.440 L 6.602,9.137 L 6.602,7.000 L 6.300,7.280 L 6.300,9.440 "/>
<path stroke="#494936" fill="none" stroke-width="0.001"  d="M 6.300,9.440 L 6.602,9.137 L 6.602,7.000 L 6.300,7.280 L 6.300,9.440 "/>
<path stroke="none" fill="#C9C9B6" stroke-width="0.001" d="M 48.000,7.509 L 48.536,7.000 L 52.229,7.000 L 51.693,7.509 L 48.000,7.509 "/>
<path stroke="#494936" fill="none" stroke-width="0.001"  d="M 48.000,7.509 L 48.536,7.000 L 52.229,7.000 L 51.693,7.509 L 48.000,7.509 "/>
<path stroke="none" fill="#B7B79D" stroke-width="0.001" d="M 48.000,7.509 L 51.693,7.509 L 51.693,11.321 L 48.000,11.321 L 48.000,7.509 "/>
<path stroke="#494936" fill="none" stroke-width="0.001"  d="M 48.000,7.509 L 51.693,7.509 L 51.693,11.321 L 48.000,11.321 L 48.000,7.509 "/>
<path stroke="none" fill="#7A7A5A" stroke-width="0.001" d="M 51.693,11.321 L 52.229,10.781 L 52.229,7.000 L 51.693,7.509 L 51.693,11.321 "/>
<path stroke="#494936" fill="none" stroke-width="0.001"  d="M 51.693,11.321 L 52.229,10.781 L 52.229,7.000 L 51.693,7.509 L 51.693,11.321 "/>
<path stroke="#DBDBCE" fill="none" stroke-width="0.030"  d="M 48.000,8.526 L 51.722,8.526 "/>
<path stroke="#000000" fill="none" stroke-width="0.030"  d="M 48.000,9.479 L 51.722,9.479 "/>
<path stroke="#000000" fill="none" stroke-width="0.030"  d="M 48.000,10.431 L 51.722,10.431 "/>
<path stroke="#494936" fill="none" stroke-width="0.030"  d="M 48.000,8.494 L 51.722,8.494 "/>
<path stroke="#000000" fill="none" stroke-width="0.030"  d="M 48.000,9.447 L 51.722,9.447 "/>
<path stroke="#000000" fill="none" stroke-width="0.030"  d="M 48.000,10.401 L 51.722,10.401 "/>
<path stroke="#494936" fill="none" stroke-width="0.001"  d="M 48.000,7.509 L 51.693,7.509 L 51.693,11.321 L 48.000,11.321 L 48.000,7.509 "/>
<path stroke="#ECECE7" fill="none" stroke-width="0.070"  d="M 50.525,8.049 L 51.408,8.049 "/>
<path stroke="#000000" fill="none" stroke-width="0.070"  d="M 50.525,9.000 L 51.408,9.000 "/>
<path stroke="#000000" fill="none" stroke-width="0.070"  d="M 50.525,9.955 L 51.408,9.955 "/>
<path stroke="#000000" fill="none" stroke-width="0.070"  d="M 50.525,10.908 L 51.408,10.908 "/>
<path stroke="#000000" fill="none" stroke-width="0.070"  d="M 50.494,8.017 L 51.377,8.017 "/>
<path stroke="#000000" fill="none" stroke-width="0.070"  d="M 50.494,8.970 L 51.377,8.970 "/>
<path stroke="#000000" fill="none" stroke-width="0.070"  d="M 50.494,9.923 L 51.377,9.923 "/>
<path stroke="#000000" fill="none" stroke-width="0.070"  d="M 50.494,10.877 L 51.377,10.877 "/>
<line x1="13.050" y1="3.025" x2="14.463" y2="3.031" stroke="#000000" stroke-width="0.100" />
<polygon fill="#000000" stroke="none" stroke-width="0.100" points="14.838,3.032 14.337,3.280 14.463,3.031 14.339,2.780 "/>
<polygon fill="none" stroke="#000000" stroke-width="0.100"  points="14.838,3.032 14.337,3.280 14.463,3.031 14.339,2.780 "/>
<line x1="41.050" y1="3.000" x2="42.463" y2="3.000" stroke="#000000" stroke-width="0.100" />
<polygon fill="#000000" stroke="none" stroke-width="0.100" points="42.838,3.000 42.338,3.250 42.463,3.000 42.338,2.750 "/>
<polygon fill="none" stroke="#000000" stroke-width="0.100"  points="42.838,3.000 42.338,3.250 42.463,3.000 42.338,2.750 "/>
<line x1="42.950" y1="15.000" x2="41.537" y2="15.000" stroke="#000000" stroke-width="0.100" />
<polygon fill="#000000" stroke="none" stroke-width="0.100" points="41.162,15.000 41.662,14.750 41.537,15.000 41.662,15.250 "/>
<polygon fill="none" stroke="#000000" stroke-width="0.100"  points="41.162,15.000 41.662,14.750 41.537,15.000 41.662,15.250 "/>
<line x1="28.950" y1="15.000" x2="27.537" y2="15.000" stroke="#000000" stroke-width="0.100" />
<polygon fill="#000000" stroke="none" stroke-width="0.100" points="27.162,15.000 27.662,14.750 27.537,15.000 27.662,15.250 "/>
<polygon fill="none" stroke="#000000" stroke-width="0.100"  points="27.162,15.000 27.662,14.750 27.537,15.000 27.662,15.250 "/>
<line x1="14.950" y1="15.000" x2="13.537" y2="15.000" stroke="#000000" stroke-width="0.100" />
<polygon fill="#000000" stroke="none" stroke-width="0.100" points="13.162,15.000 13.662,14.750 13.537,15.000 13.662,15.250 "/>
<polygon fill="none" stroke="#000000" stroke-width="0.100"  points="13.162,15.000 13.662,14.750 13.537,15.000 13.662,15.250 "/>
<text x="8.000" y="9.223"  fill="#000000" text-anchor="start" font-size="0.80" font-family="sans" font-style="normal" font-weight="400">
desktop.mati</text>
<text x="47.000" y="9.223"  fill="#000000" text-anchor="end" font-size="0.80" font-family="sans" font-style="normal" font-weight="400">
www.google.com</text>
<polygon fill="#FFFFFF" stroke="none" stroke-width="0.100" points="21.000,1.000 27.000,3.057 21.000,5.115 15.000,3.057 "/>
<polygon fill="none" stroke="#000000" stroke-width="0.100"  points="21.000,1.000 27.000,3.057 21.000,5.115 15.000,3.057 "/>
<text x="21.000" y="3.252"  fill="#000000" text-anchor="middle" font-size="0.80" font-family="sans" font-style="normal" font-weight="400">
Routing decision</text>
<polygon fill="#FFFFFF" stroke="none" stroke-width="0.100" points="35.000,13.000 41.000,15.000 35.000,17.000 29.000,15.000 "/>
<polygon fill="none" stroke="#000000" stroke-width="0.100"  points="35.000,13.000 41.000,15.000 35.000,17.000 29.000,15.000 "/>
<text x="35.000" y="15.195"  fill="#000000" text-anchor="middle" font-size="0.80" font-family="sans" font-style="normal" font-weight="400">
Routing decision</text>
<rect x="1.000" y="1.000" width="12.000" height="4.000" fill="#FFFFFF" stroke="none" stroke-width="0"/>
<rect x="1.000" y="1.000" width="12.000" height="4.000" fill="none" stroke="#000000" stroke-width="0.100" />
<text x="7.000" y="3.195"  fill="#000000" text-anchor="middle" font-size="0.80" font-family="sans" font-style="normal" font-weight="400">
PREROUTING</text>
<rect x="43.000" y="1.000" width="12.000" height="4.000" fill="#FFFFFF" stroke="none" stroke-width="0"/>
<rect x="43.000" y="1.000" width="12.000" height="4.000" fill="none" stroke="#000000" stroke-width="0.100" />
<text x="49.000" y="2.795"  fill="#000000" text-anchor="middle" font-size="0.80" font-family="sans" font-style="normal" font-weight="400">
POSTROUTING</text>
<text x="49.000" y="3.595"  fill="#000000" text-anchor="middle" font-size="0.80" font-family="sans" font-style="normal" font-weight="400">
-t nat -j MASQUEARADE</text>
<rect x="1.000" y="13.000" width="12.000" height="4.000" fill="#FFFFFF" stroke="none" stroke-width="0"/>
<rect x="1.000" y="13.000" width="12.000" height="4.000" fill="none" stroke="#000000" stroke-width="0.100" />
<text x="7.000" y="15.195"  fill="#000000" text-anchor="middle" font-size="0.80" font-family="sans" font-style="normal" font-weight="400">
POSTROUTING</text>
<rect x="29.000" y="1.000" width="12.000" height="4.000" fill="#FFFFFF" stroke="none" stroke-width="0"/>
<rect x="29.000" y="1.000" width="12.000" height="4.000" fill="none" stroke="#000000" stroke-width="0.100" />
<text x="35.000" y="2.795"  fill="#000000" text-anchor="middle" font-size="0.80" font-family="sans" font-style="normal" font-weight="400">
FORWARD</text>
<text x="35.000" y="3.595"  fill="#000000" text-anchor="middle" font-size="0.80" font-family="sans" font-style="normal" font-weight="400">
-t filter</text>
<line x1="27.050" y1="3.033" x2="28.463" y2="3.027" stroke="#000000" stroke-width="0.100" />
<polygon fill="#000000" stroke="none" stroke-width="0.100" points="28.838,3.025 28.339,3.277 28.463,3.027 28.337,2.777 "/>
<polygon fill="none" stroke="#000000" stroke-width="0.100"  points="28.838,3.025 28.339,3.277 28.463,3.027 28.337,2.777 "/>
<rect x="43.000" y="13.000" width="12.000" height="4.000" fill="#FFFFFF" stroke="none" stroke-width="0"/>
<rect x="43.000" y="13.000" width="12.000" height="4.000" fill="none" stroke="#000000" stroke-width="0.100" />
<text x="49.000" y="14.795"  fill="#000000" text-anchor="middle" font-size="0.80" font-family="sans" font-style="normal" font-weight="400">
PREROUTING</text>
<text x="49.000" y="15.595"  fill="#000000" text-anchor="middle" font-size="0.80" font-family="sans" font-style="normal" font-weight="400">
-t nat -j DNAT</text>
<rect x="15.000" y="13.000" width="12.000" height="4.000" fill="#FFFFFF" stroke="none" stroke-width="0"/>
<rect x="15.000" y="13.000" width="12.000" height="4.000" fill="none" stroke="#000000" stroke-width="0.100" />
<text x="21.000" y="14.795"  fill="#000000" text-anchor="middle" font-size="0.80" font-family="sans" font-style="normal" font-weight="400">
FORWARD</text>
<text x="21.000" y="15.595"  fill="#000000" text-anchor="middle" font-size="0.80" font-family="sans" font-style="normal" font-weight="400">
-t filter</text>
<path stroke="#000000" fill="none" stroke-width="0.100"  d ="M 50.026,6.526 A 6.903,6.903 0 0,0 49.845,5.050 "/>
<polygon fill="#000000" stroke="none" stroke-width="0.100" points="50.022,6.900 49.801,6.387 50.043,6.525 50.300,6.415 "/>
<polygon fill="none" stroke="#000000" stroke-width="0.100"  points="50.022,6.900 49.801,6.387 50.043,6.525 50.300,6.415 "/>
<path stroke="#000000" fill="none" stroke-width="0.100"  d ="M 50.046,12.473 A 5.467,5.467 0 0,0 50.086,11.322 "/>
<polygon fill="#000000" stroke="none" stroke-width="0.100" points="49.983,12.842 49.853,12.298 50.068,12.476 50.340,12.411 "/>
<polygon fill="none" stroke="#000000" stroke-width="0.100"  points="49.983,12.842 49.853,12.298 50.068,12.476 50.340,12.411 "/>
<path stroke="#000000" fill="none" stroke-width="0.100"  d ="M 4.923,11.348 A 5.007,5.007 0 0,0 5.333,12.951 "/>
<polygon fill="#000000" stroke="none" stroke-width="0.100" points="4.905,10.975 5.148,11.478 4.900,11.350 4.648,11.472 "/>
<polygon fill="none" stroke="#000000" stroke-width="0.100"  points="4.905,10.975 5.148,11.478 4.900,11.350 4.648,11.472 "/>
<path stroke="#000000" fill="none" stroke-width="0.100"  d ="M 5.157,5.498 A 5.449,5.449 0 0,0 4.844,6.999 "/>
<polygon fill="#000000" stroke="none" stroke-width="0.100" points="5.295,5.151 5.311,5.710 5.137,5.491 4.857,5.499 "/>
<polygon fill="none" stroke="#000000" stroke-width="0.100"  points="5.295,5.151 5.311,5.710 5.137,5.491 4.857,5.499 "/>
</svg>