<?xml version="1.0" encoding="UTF-8" standalone="no"?>
<!-- Created by diasvg.py -->
<svg width="68.100cm" height="28.100cm" viewBox="0.950 0.950 69.050 29.050"
 xmlns="http://www.w3.org/2000/svg"
 xmlns:xlink="http://www.w3.org/1999/xlink">
<path stroke="none" fill="#B7B79D" stroke-width="0.001" d="M 2.000,15.590 L 5.860,15.590 L 5.860,16.303 L 2.000,16.303 L 2.000,15.590 "/>
<path stroke="#494936" fill="none" stroke-width="0.001"  d="M 2.000,15.590 L 5.860,15.590 L 5.860,16.303 L 2.000,16.303 L 2.000,15.590 "/>
<path stroke="none" fill="#C9C9B6" stroke-width="0.001" d="M 2.000,15.590 L 2.409,15.202 L 6.270,15.202 L 5.860,15.590 L 2.000,15.590 "/>
<path stroke="#494936" fill="none" stroke-width="0.001"  d="M 2.000,15.590 L 2.409,15.202 L 6.270,15.202 L 5.860,15.590 L 2.000,15.590 "/>
<path stroke="#000000" fill="none" stroke-width="0.106"  d="M 5.644,15.915 L 4.718,15.915 "/>
<path stroke="none" fill="#7A7A5A" stroke-width="0.001" d="M 5.860,16.303 L 6.270,15.893 L 6.270,15.202 L 5.860,15.590 L 5.860,16.303 "/>
<path stroke="#494936" fill="none" stroke-width="0.001"  d="M 5.860,16.303 L 6.270,15.893 L 6.270,15.202 L 5.860,15.590 L 5.860,16.303 "/>
<path stroke="none" fill="#C9C9B6" stroke-width="0.001" d="M 2.022,16.756 L 2.453,16.216 L 5.429,16.216 L 4.998,16.756 L 2.022,16.756 "/>
<path stroke="#494936" fill="none" stroke-width="0.001"  d="M 2.022,16.756 L 2.453,16.216 L 5.429,16.216 L 4.998,16.756 L 2.022,16.756 "/>
<path stroke="none" fill="#7A7A5A" stroke-width="0.001" d="M 4.998,16.863 L 5.429,16.411 L 5.429,16.216 L 4.998,16.756 L 4.998,16.863 "/>
<path stroke="#494936" fill="none" stroke-width="0.001"  d="M 4.998,16.863 L 5.429,16.411 L 5.429,16.216 L 4.998,16.756 L 4.998,16.863 "/>
<path stroke="none" fill="#B7B79D" stroke-width="0.001" d="M 2.022,16.756 L 4.998,16.756 L 4.998,16.863 L 2.022,16.863 L 2.022,16.756 "/>
<path stroke="#494936" fill="none" stroke-width="0.001"  d="M 2.022,16.756 L 4.998,16.756 L 4.998,16.863 L 2.022,16.863 L 2.022,16.756 "/>
<path stroke="none" fill="#000000" stroke-width="0.001" d="M 2.582,15.504 L 2.906,15.202 L 5.644,15.202 L 5.343,15.504 L 2.582,15.504 "/>
<path stroke="#000000" fill="none" stroke-width="0.001"  d="M 2.582,15.504 L 2.906,15.202 L 5.644,15.202 L 5.343,15.504 L 2.582,15.504 "/>
<path stroke="none" fill="#C9C9B6" stroke-width="0.001" d="M 2.560,13.280 L 2.863,13.000 L 5.602,13.000 L 5.300,13.280 L 2.560,13.280 "/>
<path stroke="#494936" fill="none" stroke-width="0.001"  d="M 2.560,13.280 L 2.863,13.000 L 5.602,13.000 L 5.300,13.280 L 2.560,13.280 "/>
<path stroke="none" fill="#B7B79D" stroke-width="0.001" d="M 2.560,13.280 L 5.321,13.280 L 5.321,15.460 L 2.560,15.460 L 2.560,13.280 "/>
<path stroke="#494936" fill="none" stroke-width="0.001"  d="M 2.560,13.280 L 5.320,13.280 L 5.320,15.460 L 2.560,15.460 L 2.560,13.280 "/>
<path stroke="none" fill="#FFFFFF" stroke-width="0.001" d="M 2.797,13.560 L 5.084,13.560 L 5.084,15.244 L 2.797,15.244 L 2.797,13.560 "/>
<path stroke="#494936" fill="none" stroke-width="0.001"  d="M 2.797,13.560 L 5.084,13.560 L 5.084,15.244 L 2.797,15.244 L 2.797,13.560 "/>
<path stroke="none" fill="#7A7A5A" stroke-width="0.001" d="M 5.300,15.440 L 5.602,15.137 L 5.602,13.000 L 5.300,13.280 L 5.300,15.440 "/>
<path stroke="#494936" fill="none" stroke-width="0.001"  d="M 5.300,15.440 L 5.602,15.137 L 5.602,13.000 L 5.300,13.280 L 5.300,15.440 "/>
<line x1="13.050" y1="3.025" x2="14.463" y2="3.031" stroke="#000000" stroke-width="0.100" />
<polygon fill="#000000" stroke="none" stroke-width="0.100" points="14.838,3.032 14.337,3.280 14.463,3.031 14.339,2.780 "/>
<polygon fill="none" stroke="#000000" stroke-width="0.100"  points="14.838,3.032 14.337,3.280 14.463,3.031 14.339,2.780 "/>
<line x1="41.050" y1="3.000" x2="42.463" y2="3.000" stroke="#000000" stroke-width="0.100" />
<polygon fill="#000000" stroke="none" stroke-width="0.100" points="42.838,3.000 42.338,3.250 42.463,3.000 42.338,2.750 "/>
<polygon fill="none" stroke="#000000" stroke-width="0.100"  points="42.838,3.000 42.338,3.250 42.463,3.000 42.338,2.750 "/>
<line x1="56.950" y1="27.000" x2="55.537" y2="27.000" stroke="#000000" stroke-width="0.100" />
<polygon fill="#000000" stroke="none" stroke-width="0.100" points="55.162,27.000 55.662,26.750 55.537,27.000 55.662,27.250 "/>
<polygon fill="none" stroke="#000000" stroke-width="0.100"  points="55.162,27.000 55.662,26.750 55.537,27.000 55.662,27.250 "/>
<line x1="42.950" y1="27.000" x2="41.537" y2="27.000" stroke="#000000" stroke-width="0.100" />
<polygon fill="#000000" stroke="none" stroke-width="0.100" points="41.162,27.000 41.662,26.750 41.537,27.000 41.662,27.250 "/>
<polygon fill="none" stroke="#000000" stroke-width="0.100"  points="41.162,27.000 41.662,26.750 41.537,27.000 41.662,27.250 "/>
<line x1="28.950" y1="27.000" x2="27.537" y2="27.000" stroke="#000000" stroke-width="0.100" />
<polygon fill="#000000" stroke="none" stroke-width="0.100" points="27.162,27.000 27.662,26.750 27.537,27.000 27.662,27.250 "/>
<polygon fill="none" stroke="#000000" stroke-width="0.100"  points="27.162,27.000 27.662,26.750 27.537,27.000 27.662,27.250 "/>
<line x1="14.950" y1="27.000" x2="13.537" y2="27.000" stroke="#000000" stroke-width="0.100" />
<polygon fill="#000000" stroke="none" stroke-width="0.100" points="13.162,27.000 13.662,26.750 13.537,27.000 13.662,27.250 "/>
<polygon fill="none" stroke="#000000" stroke-width="0.100"  points="13.162,27.000 13.662,26.750 13.537,27.000 13.662,27.250 "/>
<text x="7.000" y="15.213"  fill="#000000" text-anchor="start" font-size="0.80" font-family="sans" font-style="normal" font-weight="400">
LAN machine</text>
<text x="63.000" y="15.213"  fill="#000000" text-anchor="end" font-size="0.80" font-family="sans" font-style="normal" font-weight="400">
WAN router</text>
<polygon fill="#FFFFFF" stroke="none" stroke-width="0.100" points="21.000,1.000 27.000,3.057 21.000,5.115 15.000,3.057 "/>
<polygon fill="none" stroke="#000000" stroke-width="0.100"  points="21.000,1.000 27.000,3.057 21.000,5.115 15.000,3.057 "/>
<text x="21.000" y="3.252"  fill="#000000" text-anchor="middle" font-size="0.80" font-family="sans" font-style="normal" font-weight="400">
Routing decision</text>
<polygon fill="#FFFFFF" stroke="none" stroke-width="0.100" points="49.000,25.000 55.000,27.000 49.000,29.000 43.000,27.000 "/>
<polygon fill="none" stroke="#000000" stroke-width="0.100"  points="49.000,25.000 55.000,27.000 49.000,29.000 43.000,27.000 "/>
<text x="49.000" y="27.195"  fill="#000000" text-anchor="middle" font-size="0.80" font-family="sans" font-style="normal" font-weight="400">
Routing decision</text>
<rect x="1.000" y="1.000" width="12.000" height="4.000" fill="#FFFFFF" stroke="none" stroke-width="0"/>
<rect x="1.000" y="1.000" width="12.000" height="4.000" fill="none" stroke="#000000" stroke-width="0.100" />
<text x="7.000" y="3.195"  fill="#000000" text-anchor="middle" font-size="0.80" font-family="sans" font-style="normal" font-weight="400">
PREROUTING</text>
<rect x="43.000" y="1.000" width="12.000" height="4.000" fill="#FFFFFF" stroke="none" stroke-width="0"/>
<rect x="43.000" y="1.000" width="12.000" height="4.000" fill="none" stroke="#000000" stroke-width="0.100" />
<text x="49.000" y="2.395"  fill="#000000" text-anchor="middle" font-size="0.80" font-family="sans" font-style="normal" font-weight="400">
POSTROUTING</text>
<text x="49.000" y="3.195"  fill="#000000" text-anchor="middle" font-size="0.80" font-family="sans" font-style="normal" font-weight="400">
-t nat -j MASQUEARADE</text>
<text x="49.000" y="3.995"  fill="#000000" text-anchor="middle" font-size="0.80" font-family="sans" font-style="normal" font-weight="400">
-t mangle</text>
<rect x="15.000" y="25.000" width="12.000" height="4.000" fill="#FFFFFF" stroke="none" stroke-width="0"/>
<rect x="15.000" y="25.000" width="12.000" height="4.000" fill="none" stroke="#000000" stroke-width="0.100" />
<text x="21.000" y="26.395"  fill="#000000" text-anchor="middle" font-size="0.80" font-family="sans" font-style="normal" font-weight="400">
POSTROUTING</text>
<text x="21.000" y="27.195"  fill="#000000" text-anchor="middle" font-size="0.80" font-family="sans" font-style="normal" font-weight="400">
-t nat -j SNAT</text>
<text x="21.000" y="27.995"  fill="#000000" text-anchor="middle" font-size="0.80" font-family="sans" font-style="normal" font-weight="400">
-t mangle</text>
<rect x="29.000" y="1.000" width="12.000" height="4.000" fill="#FFFFFF" stroke="none" stroke-width="0"/>
<rect x="29.000" y="1.000" width="12.000" height="4.000" fill="none" stroke="#000000" stroke-width="0.100" />
<text x="35.000" y="2.395"  fill="#000000" text-anchor="middle" font-size="0.80" font-family="sans" font-style="normal" font-weight="400">
FORWARD</text>
<text x="35.000" y="3.195"  fill="#000000" text-anchor="middle" font-size="0.80" font-family="sans" font-style="normal" font-weight="400">
-t filter</text>
<text x="35.000" y="3.995"  fill="#000000" text-anchor="middle" font-size="0.80" font-family="sans" font-style="normal" font-weight="400">
-t mangle</text>
<line x1="27.050" y1="3.033" x2="28.463" y2="3.027" stroke="#000000" stroke-width="0.100" />
<polygon fill="#000000" stroke="none" stroke-width="0.100" points="28.838,3.025 28.339,3.277 28.463,3.027 28.337,2.777 "/>
<polygon fill="none" stroke="#000000" stroke-width="0.100"  points="28.838,3.025 28.339,3.277 28.463,3.027 28.337,2.777 "/>
<rect x="57.000" y="1.000" width="12.000" height="4.000" fill="#FFFFFF" stroke="none" stroke-width="0"/>
<rect x="57.000" y="1.000" width="12.000" height="4.000" fill="none" stroke="#000000" stroke-width="0.100" />
<text x="63.000" y="3.195"  fill="#000000" text-anchor="middle" font-size="0.80" font-family="sans" font-style="normal" font-weight="400">
Uplink traffic shaping</text>
<line x1="55.050" y1="3.000" x2="56.463" y2="3.000" stroke="#000000" stroke-width="0.100" />
<polygon fill="#000000" stroke="none" stroke-width="0.100" points="56.838,3.000 56.338,3.250 56.463,3.000 56.338,2.750 "/>
<polygon fill="none" stroke="#000000" stroke-width="0.100"  points="56.838,3.000 56.338,3.250 56.463,3.000 56.338,2.750 "/>
<rect x="57.000" y="25.000" width="12.000" height="4.000" fill="#FFFFFF" stroke="none" stroke-width="0"/>
<rect x="57.000" y="25.000" width="12.000" height="4.000" fill="none" stroke="#000000" stroke-width="0.100" />
<text x="63.000" y="26.395"  fill="#000000" text-anchor="middle" font-size="0.80" font-family="sans" font-style="normal" font-weight="400">
PREROUTING</text>
<text x="63.000" y="27.195"  fill="#000000" text-anchor="middle" font-size="0.80" font-family="sans" font-style="normal" font-weight="400">
-t nat -j DNAT</text>
<text x="63.000" y="27.995"  fill="#000000" text-anchor="middle" font-size="0.80" font-family="sans" font-style="normal" font-weight="400">
-t mangle</text>
<rect x="29.000" y="25.000" width="12.000" height="4.000" fill="#FFFFFF" stroke="none" stroke-width="0"/>
<rect x="29.000" y="25.000" width="12.000" height="4.000" fill="none" stroke="#000000" stroke-width="0.100" />
<text x="35.000" y="26.395"  fill="#000000" text-anchor="middle" font-size="0.80" font-family="sans" font-style="normal" font-weight="400">
FORWARD</text>
<text x="35.000" y="27.195"  fill="#000000" text-anchor="middle" font-size="0.80" font-family="sans" font-style="normal" font-weight="400">
-t filter</text>
<text x="35.000" y="27.995"  fill="#000000" text-anchor="middle" font-size="0.80" font-family="sans" font-style="normal" font-weight="400">
-t mangle</text>
<rect x="1.000" y="25.000" width="12.000" height="4.000" fill="#FFFFFF" stroke="none" stroke-width="0"/>
<rect x="1.000" y="25.000" width="12.000" height="4.000" fill="none" stroke="#000000" stroke-width="0.100" />
<text x="7.000" y="27.195"  fill="#000000" text-anchor="middle" font-size="0.80" font-family="sans" font-style="normal" font-weight="400">
Downlink traffic shaping</text>
<path stroke="#000000" fill="none" stroke-width="0.100"  d ="M 65.683,13.513 A 25.537,25.537 0 0,0 63.915,5.049 "/>
<polygon fill="#000000" stroke="none" stroke-width="0.100" points="65.694,13.888 65.435,13.392 65.687,13.513 65.935,13.384 "/>
<polygon fill="none" stroke="#000000" stroke-width="0.100"  points="65.694,13.888 65.435,13.392 65.687,13.513 65.935,13.384 "/>
<path stroke="#000000" fill="none" stroke-width="0.100"  d ="M 64.143,24.500 A 23.295,23.295 0 0,0 65.718,15.998 "/>
<polygon fill="#000000" stroke="none" stroke-width="0.100" points="64.005,24.848 63.964,24.291 64.148,24.502 64.427,24.481 "/>
<polygon fill="none" stroke="#000000" stroke-width="0.100"  points="64.005,24.848 63.964,24.291 64.148,24.502 64.427,24.481 "/>
<path stroke="#000000" fill="none" stroke-width="0.100"  d ="M 4.108,17.350 A 18.675,18.675 0 0,0 5.876,24.950 "/>
<polygon fill="#000000" stroke="none" stroke-width="0.100" points="4.104,16.976 4.350,17.478 4.101,17.351 3.850,17.474 "/>
<polygon fill="none" stroke="#000000" stroke-width="0.100"  points="4.104,16.976 4.350,17.478 4.101,17.351 3.850,17.474 "/>
<path stroke="#000000" fill="none" stroke-width="0.100"  d ="M 5.664,5.492 A 18.770,18.770 0 0,0 4.058,13.012 "/>
<polygon fill="#000000" stroke="none" stroke-width="0.100" points="5.819,5.150 5.831,5.709 5.658,5.489 5.379,5.495 "/>
<polygon fill="none" stroke="#000000" stroke-width="0.100"  points="5.819,5.150 5.831,5.709 5.658,5.489 5.379,5.495 "/>
<rect x="29.000" y="13.000" width="12.000" height="4.000" fill="#FFFFFF" stroke="none" stroke-width="0"/>
<rect x="29.000" y="13.000" width="12.000" height="4.000" fill="none" stroke="#000000" stroke-width="0.100" />
<text x="35.000" y="14.795"  fill="#000000" text-anchor="middle" font-size="0.80" font-family="sans" font-style="normal" font-weight="400">
Local services</text>
<text x="35.000" y="15.595"  fill="#000000" text-anchor="middle" font-size="0.80" font-family="sans" font-style="normal" font-weight="400">
DNS, DHCP, SSH</text>
<rect x="29.000" y="7.000" width="12.000" height="4.000" fill="#FFFFFF" stroke="none" stroke-width="0"/>
<rect x="29.000" y="7.000" width="12.000" height="4.000" fill="none" stroke="#000000" stroke-width="0.100" />
<text x="35.000" y="8.395"  fill="#000000" text-anchor="middle" font-size="0.80" font-family="sans" font-style="normal" font-weight="400">
INPUT</text>
<text x="35.000" y="9.195"  fill="#000000" text-anchor="middle" font-size="0.80" font-family="sans" font-style="normal" font-weight="400">
-t filter</text>
<text x="35.000" y="9.995"  fill="#000000" text-anchor="middle" font-size="0.80" font-family="sans" font-style="normal" font-weight="400">
-t mangle</text>
<line x1="35.000" y1="11.045" x2="35.000" y2="12.468" stroke="#000000" stroke-width="0.100" />
<polygon fill="#000000" stroke="none" stroke-width="0.100" points="35.000,12.843 34.750,12.343 35.000,12.468 35.250,12.343 "/>
<polygon fill="none" stroke="#000000" stroke-width="0.100"  points="35.000,12.843 34.750,12.343 35.000,12.468 35.250,12.343 "/>
<rect x="29.000" y="19.000" width="12.000" height="4.000" fill="#FFFFFF" stroke="none" stroke-width="0"/>
<rect x="29.000" y="19.000" width="12.000" height="4.000" fill="none" stroke="#000000" stroke-width="0.100" />
<text x="35.000" y="20.395"  fill="#000000" text-anchor="middle" font-size="0.80" font-family="sans" font-style="normal" font-weight="400">
OUTPUT</text>
<text x="35.000" y="21.195"  fill="#000000" text-anchor="middle" font-size="0.80" font-family="sans" font-style="normal" font-weight="400">
-t filter</text>
<text x="35.000" y="21.995"  fill="#000000" text-anchor="middle" font-size="0.80" font-family="sans" font-style="normal" font-weight="400">
-t mangle</text>
<line x1="35.000" y1="17.045" x2="35.000" y2="18.468" stroke="#000000" stroke-width="0.100" />
<polygon fill="#000000" stroke="none" stroke-width="0.100" points="35.000,18.843 34.750,18.343 35.000,18.468 35.250,18.343 "/>
<polygon fill="none" stroke="#000000" stroke-width="0.100"  points="35.000,18.843 34.750,18.343 35.000,18.468 35.250,18.343 "/>
<polyline fill="none" stroke="#000000" stroke-width="0.100"  points="49.000,25.000 49.000,25.000 49.000,9.000 41.487,9.000 "/>
<polygon fill="#000000" stroke="none" stroke-width="0.100" points="41.112,9.000 41.612,8.750 41.487,9.000 41.612,9.250 "/>
<polygon fill="none" stroke="#000000" stroke-width="0.100"  points="41.112,9.000 41.612,8.750 41.487,9.000 41.612,9.250 "/>
<path stroke="none" fill="#0078AA" stroke-width="0.001" d="M 67.387,15.412 L 67.384,15.382 L 67.378,15.353 L 67.368,15.323 L 67.353,15.294 L 67.333,15.265 L 67.310,15.236 L 67.282,15.208 L 67.250,15.180 L 67.214,15.153 L 67.174,15.127 L 67.131,15.102 L 67.084,15.076 L 67.033,15.052 L 66.979,15.029 L 66.921,15.007 L 66.860,14.986 L 66.797,14.966 L 66.730,14.947 L 66.661,14.930 L 66.589,14.913 L 66.515,14.898 L 66.439,14.885 L 66.361,14.872 L 66.282,14.861 L 66.201,14.851 L 66.118,14.844 L 66.034,14.837 L 65.950,14.832 L 65.865,14.827 L 65.779,14.826 L 65.694,14.824 L 65.694,14.824 L 65.608,14.826 L 65.522,14.827 L 65.438,14.832 L 65.353,14.837 L 65.269,14.844 L 65.187,14.851 L 65.105,14.861 L 65.026,14.872 L 64.948,14.885 L 64.872,14.898 L 64.798,14.913 L 64.726,14.930 L 64.657,14.947 L 64.590,14.966 L 64.527,14.986 L 64.466,15.007 L 64.408,15.029 L 64.354,15.052 L 64.303,15.076 L 64.256,15.102 L 64.213,15.127 L 64.173,15.153 L 64.137,15.180 L 64.106,15.208 L 64.077,15.236 L 64.054,15.265 L 64.034,15.294 L 64.019,15.323 L 64.008,15.353 L 64.002,15.382 L 64.000,15.412 L 64.000,15.412 L 64.002,15.442 L 64.008,15.472 L 64.019,15.501 L 64.034,15.530 L 64.054,15.560 L 64.077,15.588 L 64.106,15.616 L 64.137,15.644 L 64.173,15.671 L 64.213,15.697 L 64.256,15.723 L 64.303,15.748 L 64.354,15.772 L 64.408,15.795 L 64.466,15.818 L 64.527,15.839 L 64.590,15.858 L 64.657,15.877 L 64.726,15.894 L 64.798,15.911 L 64.872,15.926 L 64.948,15.940 L 65.026,15.952 L 65.105,15.964 L 65.187,15.973 L 65.269,15.981 L 65.353,15.988 L 65.438,15.993 L 65.522,15.997 L 65.608,16.000 L 65.694,16.000 L 65.694,16.000 L 65.779,16.000 L 65.865,15.997 L 65.950,15.993 L 66.034,15.988 L 66.118,15.981 L 66.201,15.973 L 66.282,15.964 L 66.361,15.952 L 66.439,15.940 L 66.515,15.926 L 66.589,15.911 L 66.661,15.894 L 66.730,15.877 L 66.797,15.858 L 66.860,15.839 L 66.921,15.818 L 66.979,15.795 L 67.033,15.772 L 67.084,15.748 L 67.131,15.723 L 67.174,15.697 L 67.214,15.671 L 67.250,15.644 L 67.282,15.616 L 67.310,15.588 L 67.333,15.560 L 67.353,15.530 L 67.368,15.501 L 67.378,15.472 L 67.384,15.442 L 67.387,15.412 "/>
<path stroke="#AAE6FF" fill="none" stroke-width="0.001"  d="M 67.367,15.403 L 67.365,15.373 L 67.359,15.344 L 67.348,15.315 L 67.333,15.286 L 67.314,15.258 L 67.289,15.230 L 67.264,15.203 L 67.231,15.175 L 67.196,15.149 L 67.156,15.122 L 67.112,15.097 L 67.066,15.072 L 67.015,15.049 L 66.962,15.026 L 66.905,15.004 L 66.844,14.984 L 66.780,14.965 L 66.715,14.946 L 66.646,14.929 L 66.575,14.912 L 66.501,14.898 L 66.425,14.884 L 66.348,14.872 L 66.269,14.861 L 66.189,14.851 L 66.106,14.844 L 66.023,14.837 L 65.939,14.832 L 65.855,14.829 L 65.769,14.826 L 65.684,14.826 L 65.684,14.826 L 65.598,14.826 L 65.514,14.829 L 65.429,14.832 L 65.345,14.837 L 65.262,14.844 L 65.180,14.851 L 65.099,14.861 L 65.020,14.872 L 64.942,14.884 L 64.867,14.898 L 64.793,14.912 L 64.722,14.929 L 64.654,14.946 L 64.588,14.965 L 64.524,14.984 L 64.464,15.004 L 64.407,15.026 L 64.353,15.049 L 64.302,15.072 L 64.255,15.097 L 64.213,15.122 L 64.173,15.149 L 64.137,15.175 L 64.106,15.203 L 64.078,15.230 L 64.054,15.258 L 64.035,15.286 L 64.020,15.315 L 64.009,15.344 L 64.003,15.373 L 64.000,15.403 L 64.000,15.403 L 64.003,15.432 L 64.009,15.462 L 64.020,15.490 L 64.035,15.519 L 64.054,15.548 L 64.078,15.575 L 64.106,15.603 L 64.137,15.631 L 64.173,15.657 L 64.213,15.683 L 64.255,15.709 L 64.302,15.732 L 64.353,15.757 L 64.407,15.780 L 64.464,15.801 L 64.524,15.821 L 64.588,15.841 L 64.654,15.860 L 64.722,15.876 L 64.793,15.893 L 64.867,15.908 L 64.942,15.921 L 65.020,15.933 L 65.099,15.944 L 65.180,15.954 L 65.262,15.961 L 65.345,15.968 L 65.429,15.973 L 65.514,15.977 L 65.598,15.980 L 65.684,15.980 L 65.684,15.980 L 65.769,15.980 L 65.855,15.977 L 65.939,15.973 L 66.023,15.968 L 66.106,15.961 L 66.189,15.954 L 66.269,15.944 L 66.348,15.933 L 66.425,15.921 L 66.501,15.908 L 66.575,15.893 L 66.646,15.876 L 66.715,15.860 L 66.780,15.841 L 66.844,15.821 L 66.905,15.801 L 66.962,15.780 L 67.015,15.757 L 67.066,15.732 L 67.112,15.709 L 67.156,15.683 L 67.196,15.657 L 67.231,15.631 L 67.264,15.603 L 67.289,15.575 L 67.314,15.548 L 67.333,15.519 L 67.348,15.490 L 67.359,15.462 L 67.365,15.432 L 67.367,15.403 "/>
<path stroke="none" fill="#0078AA" stroke-width="0.001" d="M 64.000,14.598 L 64.000,15.423 L 67.367,15.423 L 67.367,14.598 L 64.000,14.598 "/>
<path stroke="none" fill="#00B4FF" stroke-width="0.001" d="M 67.387,14.588 L 67.384,14.558 L 67.378,14.528 L 67.368,14.499 L 67.353,14.469 L 67.333,14.440 L 67.310,14.411 L 67.282,14.383 L 67.250,14.356 L 67.214,14.329 L 67.174,14.303 L 67.131,14.277 L 67.084,14.252 L 67.033,14.227 L 66.979,14.205 L 66.921,14.183 L 66.860,14.161 L 66.797,14.141 L 66.730,14.123 L 66.661,14.105 L 66.589,14.089 L 66.515,14.074 L 66.439,14.060 L 66.361,14.048 L 66.282,14.036 L 66.201,14.027 L 66.118,14.019 L 66.034,14.012 L 65.950,14.007 L 65.865,14.003 L 65.779,14.000 L 65.694,14.000 L 65.694,14.000 L 65.608,14.000 L 65.522,14.003 L 65.438,14.007 L 65.353,14.012 L 65.269,14.019 L 65.187,14.027 L 65.105,14.036 L 65.026,14.048 L 64.948,14.060 L 64.872,14.074 L 64.798,14.089 L 64.726,14.105 L 64.657,14.123 L 64.590,14.141 L 64.527,14.161 L 64.466,14.183 L 64.408,14.205 L 64.354,14.227 L 64.303,14.252 L 64.256,14.277 L 64.213,14.303 L 64.173,14.329 L 64.137,14.356 L 64.106,14.383 L 64.077,14.411 L 64.054,14.440 L 64.034,14.469 L 64.019,14.499 L 64.008,14.528 L 64.002,14.558 L 64.000,14.588 L 64.000,14.588 L 64.002,14.618 L 64.008,14.647 L 64.019,14.677 L 64.034,14.705 L 64.054,14.735 L 64.077,14.763 L 64.106,14.792 L 64.137,14.820 L 64.173,14.847 L 64.213,14.872 L 64.256,14.898 L 64.303,14.924 L 64.354,14.947 L 64.408,14.970 L 64.466,14.993 L 64.527,15.014 L 64.590,15.034 L 64.657,15.052 L 64.726,15.070 L 64.798,15.086 L 64.872,15.102 L 64.948,15.115 L 65.026,15.128 L 65.105,15.139 L 65.187,15.148 L 65.269,15.156 L 65.353,15.163 L 65.438,15.168 L 65.522,15.172 L 65.608,15.175 L 65.694,15.175 L 65.694,15.175 L 65.779,15.175 L 65.865,15.172 L 65.950,15.168 L 66.034,15.163 L 66.118,15.156 L 66.201,15.148 L 66.282,15.139 L 66.361,15.128 L 66.439,15.115 L 66.515,15.102 L 66.589,15.086 L 66.661,15.070 L 66.730,15.052 L 66.797,15.034 L 66.860,15.014 L 66.921,14.993 L 66.979,14.970 L 67.033,14.947 L 67.084,14.924 L 67.131,14.898 L 67.174,14.872 L 67.214,14.847 L 67.250,14.820 L 67.282,14.792 L 67.310,14.763 L 67.333,14.735 L 67.353,14.705 L 67.368,14.677 L 67.378,14.647 L 67.384,14.618 L 67.387,14.588 "/>
<path stroke="#AAE6FF" fill="none" stroke-width="0.001"  d="M 67.367,14.578 L 67.365,14.548 L 67.359,14.520 L 67.348,14.491 L 67.333,14.462 L 67.314,14.434 L 67.289,14.405 L 67.264,14.378 L 67.231,14.350 L 67.196,14.324 L 67.156,14.297 L 67.112,14.273 L 67.066,14.248 L 67.015,14.224 L 66.962,14.202 L 66.905,14.179 L 66.844,14.160 L 66.780,14.140 L 66.715,14.121 L 66.646,14.104 L 66.575,14.087 L 66.501,14.073 L 66.425,14.059 L 66.348,14.048 L 66.269,14.036 L 66.189,14.027 L 66.106,14.019 L 66.023,14.012 L 65.939,14.007 L 65.855,14.003 L 65.769,14.001 L 65.684,14.000 L 65.684,14.000 L 65.598,14.001 L 65.514,14.003 L 65.429,14.007 L 65.345,14.012 L 65.262,14.019 L 65.180,14.027 L 65.099,14.036 L 65.020,14.048 L 64.942,14.059 L 64.867,14.073 L 64.793,14.087 L 64.722,14.104 L 64.654,14.121 L 64.588,14.140 L 64.524,14.160 L 64.464,14.179 L 64.407,14.202 L 64.353,14.224 L 64.302,14.248 L 64.255,14.273 L 64.213,14.297 L 64.173,14.324 L 64.137,14.350 L 64.106,14.378 L 64.078,14.405 L 64.054,14.434 L 64.035,14.462 L 64.020,14.491 L 64.009,14.520 L 64.003,14.548 L 64.000,14.578 L 64.000,14.578 L 64.003,14.608 L 64.009,14.637 L 64.020,14.666 L 64.035,14.694 L 64.054,14.723 L 64.078,14.751 L 64.106,14.778 L 64.137,14.806 L 64.173,14.832 L 64.213,14.859 L 64.255,14.884 L 64.302,14.908 L 64.353,14.932 L 64.407,14.955 L 64.464,14.976 L 64.524,14.996 L 64.588,15.016 L 64.654,15.034 L 64.722,15.052 L 64.793,15.068 L 64.867,15.084 L 64.942,15.096 L 65.020,15.109 L 65.099,15.120 L 65.180,15.129 L 65.262,15.138 L 65.345,15.144 L 65.429,15.149 L 65.514,15.153 L 65.598,15.155 L 65.684,15.156 L 65.684,15.156 L 65.769,15.155 L 65.855,15.153 L 65.939,15.149 L 66.023,15.144 L 66.106,15.138 L 66.189,15.129 L 66.269,15.120 L 66.348,15.109 L 66.425,15.096 L 66.501,15.084 L 66.575,15.068 L 66.646,15.052 L 66.715,15.034 L 66.780,15.016 L 66.844,14.996 L 66.905,14.976 L 66.962,14.955 L 67.015,14.932 L 67.066,14.908 L 67.112,14.884 L 67.156,14.859 L 67.196,14.832 L 67.231,14.806 L 67.264,14.778 L 67.289,14.751 L 67.314,14.723 L 67.333,14.694 L 67.348,14.666 L 67.359,14.637 L 67.365,14.608 L 67.367,14.578 "/>
<path stroke="none" fill="#000000" stroke-width="0.001" d="M 65.725,14.454 L 65.971,14.537 L 66.567,14.289 L 66.834,14.371 L 66.690,14.166 L 65.992,14.166 L 66.279,14.227 L 65.725,14.454 "/>
<path stroke="none" fill="#000000" stroke-width="0.001" d="M 65.622,14.681 L 65.376,14.598 L 64.801,14.847 L 64.514,14.763 L 64.657,14.990 L 65.376,14.990 L 65.068,14.908 L 65.622,14.681 "/>
<path stroke="none" fill="#000000" stroke-width="0.001" d="M 64.575,14.227 L 64.821,14.145 L 65.417,14.371 L 65.684,14.310 L 65.541,14.515 L 64.842,14.515 L 65.129,14.454 L 64.575,14.227 "/>
<path stroke="none" fill="#000000" stroke-width="0.001" d="M 66.792,14.928 L 66.546,15.011 L 65.971,14.763 L 65.684,14.847 L 65.828,14.639 L 66.546,14.639 L 66.238,14.701 L 66.792,14.928 "/>
<path stroke="none" fill="#FFFFFF" stroke-width="0.001" d="M 65.746,14.475 L 65.992,14.557 L 66.587,14.310 L 66.854,14.393 L 66.710,14.186 L 66.012,14.186 L 66.300,14.247 L 65.746,14.475 "/>
<path stroke="none" fill="#FFFFFF" stroke-width="0.001" d="M 65.643,14.701 L 65.396,14.619 L 64.821,14.866 L 64.534,14.784 L 64.677,15.011 L 65.396,15.011 L 65.088,14.928 L 65.643,14.701 "/>
<path stroke="none" fill="#FFFFFF" stroke-width="0.001" d="M 64.596,14.247 L 64.842,14.166 L 65.438,14.393 L 65.704,14.330 L 65.561,14.537 L 64.862,14.537 L 65.150,14.475 L 64.596,14.247 "/>
<path stroke="none" fill="#FFFFFF" stroke-width="0.001" d="M 66.812,14.949 L 66.567,15.032 L 65.992,14.784 L 65.704,14.866 L 65.848,14.661 L 66.567,14.661 L 66.259,14.722 L 66.812,14.949 "/>
<path stroke="#AAE6FF" fill="none" stroke-width="0.001"  d="M 64.000,14.578 L 64.000,15.402 "/>
<path stroke="#AAE6FF" fill="none" stroke-width="0.001"  d="M 67.367,14.578 L 67.367,15.402 "/>
<polyline fill="none" stroke="#000000" stroke-width="0.100"  points="41.000,21.000 41.000,21.000 46.000,21.000 46.000,5.487 "/>
<polygon fill="#000000" stroke="none" stroke-width="0.100" points="46.000,5.112 46.250,5.612 46.000,5.487 45.750,5.612 "/>
<polygon fill="none" stroke="#000000" stroke-width="0.100"  points="46.000,5.112 46.250,5.612 46.000,5.487 45.750,5.612 "/>
<polyline fill="none" stroke="#000000" stroke-width="0.100"  points="21.000,5.115 21.000,9.000 28.513,9.000 "/>
<polygon fill="#000000" stroke="none" stroke-width="0.100" points="28.888,9.000 28.388,9.250 28.513,9.000 28.388,8.750 "/>
<polygon fill="none" stroke="#000000" stroke-width="0.100"  points="28.888,9.000 28.388,9.250 28.513,9.000 28.388,8.750 "/>
<polyline fill="none" stroke="#000000" stroke-width="0.100"  points="29.000,21.000 21.000,21.000 21.000,24.513 "/>
<polygon fill="#000000" stroke="none" stroke-width="0.100" points="21.000,24.888 20.750,24.388 21.000,24.513 21.250,24.388 "/>
<polygon fill="none" stroke="#000000" stroke-width="0.100"  points="21.000,24.888 20.750,24.388 21.000,24.513 21.250,24.388 "/>
</svg>