<?xml version="1.0" encoding="UTF-8" standalone="no"?>
<!-- Created by diasvg.py -->
<svg width="68.100cm" height="16.100cm" viewBox="0.950 0.950 69.050 17.050"
 xmlns="http://www.w3.org/2000/svg"
 xmlns:xlink="http://www.w3.org/1999/xlink">
<path stroke="none" fill="#B7B79D" stroke-width="0.001" d="M 3.000,9.590 L 6.860,9.590 L 6.860,10.303 L 3.000,10.303 L 3.000,9.590 "/>
<path stroke="#494936" fill="none" stroke-width="0.001"  d="M 3.000,9.590 L 6.860,9.590 L 6.860,10.303 L 3.000,10.303 L 3.000,9.590 "/>
<path stroke="none" fill="#C9C9B6" stroke-width="0.001" d="M 3.000,9.590 L 3.409,9.202 L 7.270,9.202 L 6.860,9.590 L 3.000,9.590 "/>
<path stroke="#494936" fill="none" stroke-width="0.001"  d="M 3.000,9.590 L 3.409,9.202 L 7.270,9.202 L 6.860,9.590 L 3.000,9.590 "/>
<path stroke="#000000" fill="none" stroke-width="0.106"  d="M 6.644,9.915 L 5.718,9.915 "/>
<path stroke="none" fill="#7A7A5A" stroke-width="0.001" d="M 6.860,10.303 L 7.270,9.893 L 7.270,9.202 L 6.860,9.590 L 6.860,10.303 "/>
<path stroke="#494936" fill="none" stroke-width="0.001"  d="M 6.860,10.303 L 7.270,9.893 L 7.270,9.202 L 6.860,9.590 L 6.860,10.303 "/>
<path stroke="none" fill="#C9C9B6" stroke-width="0.001" d="M 3.022,10.756 L 3.453,10.216 L 6.429,10.216 L 5.998,10.756 L 3.022,10.756 "/>
<path stroke="#494936" fill="none" stroke-width="0.001"  d="M 3.022,10.756 L 3.453,10.216 L 6.429,10.216 L 5.998,10.756 L 3.022,10.756 "/>
<path stroke="none" fill="#7A7A5A" stroke-width="0.001" d="M 5.998,10.863 L 6.429,10.411 L 6.429,10.216 L 5.998,10.756 L 5.998,10.863 "/>
<path stroke="#494936" fill="none" stroke-width="0.001"  d="M 5.998,10.863 L 6.429,10.411 L 6.429,10.216 L 5.998,10.756 L 5.998,10.863 "/>
<path stroke="none" fill="#B7B79D" stroke-width="0.001" d="M 3.022,10.756 L 5.998,10.756 L 5.998,10.863 L 3.022,10.863 L 3.022,10.756 "/>
<path stroke="#494936" fill="none" stroke-width="0.001"  d="M 3.022,10.756 L 5.998,10.756 L 5.998,10.863 L 3.022,10.863 L 3.022,10.756 "/>
<path stroke="none" fill="#000000" stroke-width="0.001" d="M 3.582,9.504 L 3.906,9.202 L 6.644,9.202 L 6.343,9.504 L 3.582,9.504 "/>
<path stroke="#000000" fill="none" stroke-width="0.001"  d="M 3.582,9.504 L 3.906,9.202 L 6.644,9.202 L 6.343,9.504 L 3.582,9.504 "/>
<path stroke="none" fill="#C9C9B6" stroke-width="0.001" d="M 3.560,7.280 L 3.863,7.000 L 6.602,7.000 L 6.300,7.280 L 3.560,7.280 "/>
<path stroke="#494936" fill="none" stroke-width="0.001"  d="M 3.560,7.280 L 3.863,7.000 L 6.602,7.000 L 6.300,7.280 L 3.560,7.280 "/>
<path stroke="none" fill="#B7B79D" stroke-width="0.001" d="M 3.560,7.280 L 6.321,7.280 L 6.321,9.460 L 3.560,9.460 L 3.560,7.280 "/>
<path stroke="#494936" fill="none" stroke-width="0.001"  d="M 3.560,7.280 L 6.320,7.280 L 6.320,9.460 L 3.560,9.460 L 3.560,7.280 "/>
<path stroke="none" fill="#FFFFFF" stroke-width="0.001" d="M 3.797,7.560 L 6.084,7.560 L 6.084,9.244 L 3.797,9.244 L 3.797,7.560 "/>
<path stroke="#494936" fill="none" stroke-width="0.001"  d="M 3.797,7.560 L 6.084,7.560 L 6.084,9.244 L 3.797,9.244 L 3.797,7.560 "/>
<path stroke="none" fill="#7A7A5A" stroke-width="0.001" d="M 6.300,9.440 L 6.602,9.137 L 6.602,7.000 L 6.300,7.280 L 6.300,9.440 "/>
<path stroke="#494936" fill="none" stroke-width="0.001"  d="M 6.300,9.440 L 6.602,9.137 L 6.602,7.000 L 6.300,7.280 L 6.300,9.440 "/>
<path stroke="none" fill="#C9C9B6" stroke-width="0.001" d="M 62.000,7.742 L 62.536,7.234 L 66.229,7.234 L 65.693,7.742 L 62.000,7.742 "/>
<path stroke="#494936" fill="none" stroke-width="0.001"  d="M 62.000,7.742 L 62.536,7.234 L 66.229,7.234 L 65.693,7.742 L 62.000,7.742 "/>
<path stroke="none" fill="#B7B79D" stroke-width="0.001" d="M 62.000,7.742 L 65.693,7.742 L 65.693,11.555 L 62.000,11.555 L 62.000,7.742 "/>
<path stroke="#494936" fill="none" stroke-width="0.001"  d="M 62.000,7.742 L 65.693,7.742 L 65.693,11.555 L 62.000,11.555 L 62.000,7.742 "/>
<path stroke="none" fill="#7A7A5A" stroke-width="0.001" d="M 65.693,11.555 L 66.229,11.015 L 66.229,7.234 L 65.693,7.742 L 65.693,11.555 "/>
<path stroke="#494936" fill="none" stroke-width="0.001"  d="M 65.693,11.555 L 66.229,11.015 L 66.229,7.234 L 65.693,7.742 L 65.693,11.555 "/>
<path stroke="#DBDBCE" fill="none" stroke-width="0.030"  d="M 62.000,8.760 L 65.722,8.760 "/>
<path stroke="#000000" fill="none" stroke-width="0.030"  d="M 62.000,9.712 L 65.722,9.712 "/>
<path stroke="#000000" fill="none" stroke-width="0.030"  d="M 62.000,10.665 L 65.722,10.665 "/>
<path stroke="#494936" fill="none" stroke-width="0.030"  d="M 62.000,8.728 L 65.722,8.728 "/>
<path stroke="#000000" fill="none" stroke-width="0.030"  d="M 62.000,9.680 L 65.722,9.680 "/>
<path stroke="#000000" fill="none" stroke-width="0.030"  d="M 62.000,10.634 L 65.722,10.634 "/>
<path stroke="#494936" fill="none" stroke-width="0.001"  d="M 62.000,7.742 L 65.693,7.742 L 65.693,11.555 L 62.000,11.555 L 62.000,7.742 "/>
<path stroke="#ECECE7" fill="none" stroke-width="0.070"  d="M 64.525,8.283 L 65.408,8.283 "/>
<path stroke="#000000" fill="none" stroke-width="0.070"  d="M 64.525,9.234 L 65.408,9.234 "/>
<path stroke="#000000" fill="none" stroke-width="0.070"  d="M 64.525,10.189 L 65.408,10.189 "/>
<path stroke="#000000" fill="none" stroke-width="0.070"  d="M 64.525,11.141 L 65.408,11.141 "/>
<path stroke="#000000" fill="none" stroke-width="0.070"  d="M 64.494,8.251 L 65.377,8.251 "/>
<path stroke="#000000" fill="none" stroke-width="0.070"  d="M 64.494,9.203 L 65.377,9.203 "/>
<path stroke="#000000" fill="none" stroke-width="0.070"  d="M 64.494,10.157 L 65.377,10.157 "/>
<path stroke="#000000" fill="none" stroke-width="0.070"  d="M 64.494,11.111 L 65.377,11.111 "/>
<line x1="13.050" y1="3.025" x2="14.463" y2="3.031" stroke="#000000" stroke-width="0.100" />
<polygon fill="#000000" stroke="none" stroke-width="0.100" points="14.838,3.032 14.337,3.280 14.463,3.031 14.339,2.780 "/>
<polygon fill="none" stroke="#000000" stroke-width="0.100"  points="14.838,3.032 14.337,3.280 14.463,3.031 14.339,2.780 "/>
<line x1="41.050" y1="3.000" x2="42.463" y2="3.000" stroke="#000000" stroke-width="0.100" />
<polygon fill="#000000" stroke="none" stroke-width="0.100" points="42.838,3.000 42.338,3.250 42.463,3.000 42.338,2.750 "/>
<polygon fill="none" stroke="#000000" stroke-width="0.100"  points="42.838,3.000 42.338,3.250 42.463,3.000 42.338,2.750 "/>
<line x1="56.950" y1="15.000" x2="55.537" y2="15.000" stroke="#000000" stroke-width="0.100" />
<polygon fill="#000000" stroke="none" stroke-width="0.100" points="55.162,15.000 55.662,14.750 55.537,15.000 55.662,15.250 "/>
<polygon fill="none" stroke="#000000" stroke-width="0.100"  points="55.162,15.000 55.662,14.750 55.537,15.000 55.662,15.250 "/>
<line x1="42.950" y1="15.000" x2="41.537" y2="15.000" stroke="#000000" stroke-width="0.100" />
<polygon fill="#000000" stroke="none" stroke-width="0.100" points="41.162,15.000 41.662,14.750 41.537,15.000 41.662,15.250 "/>
<polygon fill="none" stroke="#000000" stroke-width="0.100"  points="41.162,15.000 41.662,14.750 41.537,15.000 41.662,15.250 "/>
<line x1="28.950" y1="15.000" x2="27.537" y2="15.000" stroke="#000000" stroke-width="0.100" />
<polygon fill="#000000" stroke="none" stroke-width="0.100" points="27.162,15.000 27.662,14.750 27.537,15.000 27.662,15.250 "/>
<polygon fill="none" stroke="#000000" stroke-width="0.100"  points="27.162,15.000 27.662,14.750 27.537,15.000 27.662,15.250 "/>
<line x1="14.950" y1="15.000" x2="13.537" y2="15.000" stroke="#000000" stroke-width="0.100" />
<polygon fill="#000000" stroke="none" stroke-width="0.100" points="13.162,15.000 13.662,14.750 13.537,15.000 13.662,15.250 "/>
<polygon fill="none" stroke="#000000" stroke-width="0.100"  points="13.162,15.000 13.662,14.750 13.537,15.000 13.662,15.250 "/>
<text x="8.000" y="9.223"  fill="#000000" text-anchor="start" font-size="0.80" font-family="sans" font-style="normal" font-weight="400">
desktop.mati</text>
<text x="61.000" y="9.223"  fill="#000000" text-anchor="end" font-size="0.80" font-family="sans" font-style="normal" font-weight="400">
www.google.com</text>
<polygon fill="#FFFFFF" stroke="none" stroke-width="0.100" points="21.000,1.000 27.000,3.057 21.000,5.115 15.000,3.057 "/>
<polygon fill="none" stroke="#000000" stroke-width="0.100"  points="21.000,1.000 27.000,3.057 21.000,5.115 15.000,3.057 "/>
<text x="21.000" y="3.252"  fill="#000000" text-anchor="middle" font-size="0.80" font-family="sans" font-style="normal" font-weight="400">
Routing decision</text>
<polygon fill="#FFFFFF" stroke="none" stroke-width="0.100" points="49.000,13.000 55.000,15.000 49.000,17.000 43.000,15.000 "/>
<polygon fill="none" stroke="#000000" stroke-width="0.100"  points="49.000,13.000 55.000,15.000 49.000,17.000 43.000,15.000 "/>
<text x="49.000" y="15.195"  fill="#000000" text-anchor="middle" font-size="0.80" font-family="sans" font-style="normal" font-weight="400">
Routing decision</text>
<rect x="1.000" y="1.000" width="12.000" height="4.000" fill="#FFFFFF" stroke="none" stroke-width="0"/>
<rect x="1.000" y="1.000" width="12.000" height="4.000" fill="none" stroke="#000000" stroke-width="0.100" />
<text x="7.000" y="2.795"  fill="#000000" text-anchor="middle" font-size="0.80" font-family="sans" font-style="normal" font-weight="400">
PREROUTING</text>
<text x="7.000" y="3.595"  fill="#000000" text-anchor="middle" font-size="0.80" font-family="sans" font-style="normal" font-weight="400">
-t mangle -j MARK</text>
<rect x="43.000" y="1.000" width="12.000" height="4.000" fill="#FFFFFF" stroke="none" stroke-width="0"/>
<rect x="43.000" y="1.000" width="12.000" height="4.000" fill="none" stroke="#000000" stroke-width="0.100" />
<text x="49.000" y="2.395"  fill="#000000" text-anchor="middle" font-size="0.80" font-family="sans" font-style="normal" font-weight="400">
POSTROUTING</text>
<text x="49.000" y="3.195"  fill="#000000" text-anchor="middle" font-size="0.80" font-family="sans" font-style="normal" font-weight="400">
-t nat -j MASQUEARADE</text>
<text x="49.000" y="3.995"  fill="#000000" text-anchor="middle" font-size="0.80" font-family="sans" font-style="normal" font-weight="400">
-t mangle -j CLASSIFY</text>
<rect x="15.000" y="13.000" width="12.000" height="4.000" fill="#FFFFFF" stroke="none" stroke-width="0"/>
<rect x="15.000" y="13.000" width="12.000" height="4.000" fill="none" stroke="#000000" stroke-width="0.100" />
<text x="21.000" y="14.395"  fill="#000000" text-anchor="middle" font-size="0.80" font-family="sans" font-style="normal" font-weight="400">
POSTROUTING</text>
<text x="21.000" y="15.195"  fill="#000000" text-anchor="middle" font-size="0.80" font-family="sans" font-style="normal" font-weight="400">
-t nat -j SNAT</text>
<text x="21.000" y="15.995"  fill="#000000" text-anchor="middle" font-size="0.80" font-family="sans" font-style="normal" font-weight="400">
-t mangle -j CLASSIFY</text>
<rect x="29.000" y="1.000" width="12.000" height="4.000" fill="#FFFFFF" stroke="none" stroke-width="0"/>
<rect x="29.000" y="1.000" width="12.000" height="4.000" fill="none" stroke="#000000" stroke-width="0.100" />
<text x="35.000" y="2.395"  fill="#000000" text-anchor="middle" font-size="0.80" font-family="sans" font-style="normal" font-weight="400">
FORWARD</text>
<text x="35.000" y="3.195"  fill="#000000" text-anchor="middle" font-size="0.80" font-family="sans" font-style="normal" font-weight="400">
-t filter</text>
<text x="35.000" y="3.995"  fill="#000000" text-anchor="middle" font-size="0.80" font-family="sans" font-style="normal" font-weight="400">
-t mangle -j CLASSIFY</text>
<line x1="27.050" y1="3.033" x2="28.463" y2="3.027" stroke="#000000" stroke-width="0.100" />
<polygon fill="#000000" stroke="none" stroke-width="0.100" points="28.838,3.025 28.339,3.277 28.463,3.027 28.337,2.777 "/>
<polygon fill="none" stroke="#000000" stroke-width="0.100"  points="28.838,3.025 28.339,3.277 28.463,3.027 28.337,2.777 "/>
<rect x="57.000" y="1.000" width="12.000" height="4.000" fill="#FFFFFF" stroke="none" stroke-width="0"/>
<rect x="57.000" y="1.000" width="12.000" height="4.000" fill="none" stroke="#000000" stroke-width="0.100" />
<text x="63.000" y="3.195"  fill="#000000" text-anchor="middle" font-size="0.80" font-family="sans" font-style="normal" font-weight="400">
Uplink traffic shaping</text>
<line x1="55.050" y1="3.000" x2="56.463" y2="3.000" stroke="#000000" stroke-width="0.100" />
<polygon fill="#000000" stroke="none" stroke-width="0.100" points="56.838,3.000 56.338,3.250 56.463,3.000 56.338,2.750 "/>
<polygon fill="none" stroke="#000000" stroke-width="0.100"  points="56.838,3.000 56.338,3.250 56.463,3.000 56.338,2.750 "/>
<rect x="57.000" y="13.000" width="12.000" height="4.000" fill="#FFFFFF" stroke="none" stroke-width="0"/>
<rect x="57.000" y="13.000" width="12.000" height="4.000" fill="none" stroke="#000000" stroke-width="0.100" />
<text x="63.000" y="14.395"  fill="#000000" text-anchor="middle" font-size="0.80" font-family="sans" font-style="normal" font-weight="400">
PREROUTING</text>
<text x="63.000" y="15.195"  fill="#000000" text-anchor="middle" font-size="0.80" font-family="sans" font-style="normal" font-weight="400">
-t nat -j DNAT</text>
<text x="63.000" y="15.995"  fill="#000000" text-anchor="middle" font-size="0.80" font-family="sans" font-style="normal" font-weight="400">
-t mangle -j MARK</text>
<rect x="29.000" y="13.000" width="12.000" height="4.000" fill="#FFFFFF" stroke="none" stroke-width="0"/>
<rect x="29.000" y="13.000" width="12.000" height="4.000" fill="none" stroke="#000000" stroke-width="0.100" />
<text x="35.000" y="14.395"  fill="#000000" text-anchor="middle" font-size="0.80" font-family="sans" font-style="normal" font-weight="400">
FORWARD</text>
<text x="35.000" y="15.195"  fill="#000000" text-anchor="middle" font-size="0.80" font-family="sans" font-style="normal" font-weight="400">
-t filter</text>
<text x="35.000" y="15.995"  fill="#000000" text-anchor="middle" font-size="0.80" font-family="sans" font-style="normal" font-weight="400">
-t mangle -j CLASSIFY</text>
<rect x="1.000" y="13.000" width="12.000" height="4.000" fill="#FFFFFF" stroke="none" stroke-width="0"/>
<rect x="1.000" y="13.000" width="12.000" height="4.000" fill="none" stroke="#000000" stroke-width="0.100" />
<text x="7.000" y="15.195"  fill="#000000" text-anchor="middle" font-size="0.80" font-family="sans" font-style="normal" font-weight="400">
Downlink traffic shaping</text>
<path stroke="#000000" fill="none" stroke-width="0.100"  d ="M 64.027,6.748 A 7.397,7.397 0 0,0 63.827,5.050 "/>
<polygon fill="#000000" stroke="none" stroke-width="0.100" points="64.019,7.122 63.801,6.607 64.043,6.748 64.300,6.639 "/>
<polygon fill="none" stroke="#000000" stroke-width="0.100"  points="64.019,7.122 63.801,6.607 64.043,6.748 64.300,6.639 "/>
<path stroke="#000000" fill="none" stroke-width="0.100"  d ="M 64.061,12.472 A 5.068,5.068 0 0,0 64.091,11.554 "/>
<polygon fill="#000000" stroke="none" stroke-width="0.100" points="64.003,12.841 63.867,12.298 64.084,12.475 64.355,12.407 "/>
<polygon fill="none" stroke="#000000" stroke-width="0.100"  points="64.003,12.841 63.867,12.298 64.084,12.475 64.355,12.407 "/>
<path stroke="#000000" fill="none" stroke-width="0.100"  d ="M 4.923,11.348 A 5.007,5.007 0 0,0 5.333,12.951 "/>
<polygon fill="#000000" stroke="none" stroke-width="0.100" points="4.905,10.975 5.148,11.478 4.900,11.350 4.648,11.472 "/>
<polygon fill="none" stroke="#000000" stroke-width="0.100"  points="4.905,10.975 5.148,11.478 4.900,11.350 4.648,11.472 "/>
<path stroke="#000000" fill="none" stroke-width="0.100"  d ="M 5.157,5.498 A 5.449,5.449 0 0,0 4.844,6.999 "/>
<polygon fill="#000000" stroke="none" stroke-width="0.100" points="5.295,5.151 5.311,5.710 5.137,5.491 4.857,5.499 "/>
<polygon fill="none" stroke="#000000" stroke-width="0.100"  points="5.295,5.151 5.311,5.710 5.137,5.491 4.857,5.499 "/>
</svg>