<?xml version="1.0" encoding="UTF-8" standalone="no"?>
<!-- Created by diasvg.py -->
<svg width="32.069cm" height="11.745cm" viewBox="1.031 1.628 33.100 13.372"
 xmlns="http://www.w3.org/2000/svg"
 xmlns:xlink="http://www.w3.org/1999/xlink">
<line x1="29.319" y1="7.000" x2="30.251" y2="4.999" stroke="#000000" stroke-width="0.100" />
<line x1="4.000" y1="8.000" x2="30.000" y2="8.000" stroke="#000000" stroke-width="0.100" />
<line x1="30.498" y1="10.000" x2="29.521" y2="8.631" stroke="#000000" stroke-width="0.100" />
<text x="31.000" y="13.223"  fill="#000000" text-anchor="middle" font-size="0.80" font-family="sans" font-style="normal" font-weight="400">
desktop.mati</text>
<path stroke="none" fill="#0096D4" stroke-width="0.002" d="M 22.000,6.291 L 22.000,9.920 L 24.139,9.920 L 24.139,6.291 L 22.000,6.291 "/>
<path stroke="#AAE6FF" fill="none" stroke-width="0.001"  d="M 22.000,6.291 L 22.000,9.920 L 24.139,9.920 L 24.139,6.291 L 22.000,6.291 "/>
<path stroke="none" fill="#00B4FF" stroke-width="0.001" d="M 22.000,6.291 L 22.291,6.000 L 24.430,6.000 L 24.139,6.291 L 22.000,6.291 "/>
<path stroke="#AAE6FF" fill="none" stroke-width="0.001"  d="M 22.000,6.291 L 22.291,6.000 L 24.430,6.000 L 24.139,6.291 L 22.000,6.291 "/>
<path stroke="none" fill="#2AC0FF" stroke-width="0.001" d="M 22.133,6.503 L 23.110,6.503 L 23.110,6.980 L 22.133,6.980 L 22.133,6.503 "/>
<path stroke="#005A80" fill="none" stroke-width="0.001"  d="M 22.133,6.503 L 23.109,6.503 L 23.109,6.979 L 22.133,6.979 L 22.133,6.503 "/>
<path stroke="#AAE6FF" fill="none" stroke-width="0.030"  d="M 22.291,6.742 L 22.925,6.742 "/>
<path stroke="none" fill="#005A80" stroke-width="0.030" d="M 24.139,9.920 L 24.430,9.630 L 24.430,6.000 L 24.139,6.291 L 24.139,9.920 "/>
<path stroke="#AAE6FF" fill="none" stroke-width="0.001"  d="M 24.139,9.920 L 24.430,9.630 L 24.430,6.000 L 24.139,6.291 L 24.139,9.920 "/>
<path stroke="#AAE6FF" fill="none" stroke-width="0.030"  d="M 22.053,9.682 L 24.113,9.682 "/>
<path stroke="#AAE6FF" fill="none" stroke-width="0.030"  d="M 22.053,7.750 L 24.113,7.750 "/>
<path stroke="#005A80" fill="none" stroke-width="0.030"  d="M 22.027,9.656 L 24.113,9.656 "/>
<path stroke="#005A80" fill="none" stroke-width="0.030"  d="M 22.027,7.722 L 24.113,7.722 "/>
<path stroke="#AAE6FF" fill="none" stroke-width="0.001"  d="M 22.133,6.954 L 22.133,6.503 L 23.083,6.503 "/>
<path stroke="none" fill="#FFFFFF" stroke-width="0.001" d="M 23.163,8.835 L 22.925,8.835 L 22.925,9.099 L 22.766,9.099 L 23.057,9.392 L 23.321,9.099 L 23.163,9.099 L 23.163,8.835 "/>
<path stroke="#003C55" fill="none" stroke-width="0.001"  d="M 23.163,8.835 L 22.925,8.835 L 22.925,9.099 L 22.766,9.099 L 23.057,9.392 L 23.321,9.099 L 23.163,9.099 L 23.163,8.835 "/>
<path stroke="none" fill="#FFFFFF" stroke-width="0.001" d="M 22.925,8.596 L 23.163,8.596 L 23.163,8.278 L 23.321,8.278 L 23.031,7.988 L 22.766,8.278 L 22.925,8.278 L 22.925,8.596 "/>
<path stroke="#003C55" fill="none" stroke-width="0.001"  d="M 22.925,8.596 L 23.163,8.596 L 23.163,8.278 L 23.321,8.278 L 23.031,7.988 L 22.766,8.278 L 22.925,8.278 L 22.925,8.596 "/>
<path stroke="none" fill="#FFFFFF" stroke-width="0.001" d="M 22.133,8.596 L 22.133,8.835 L 22.607,8.835 L 22.607,8.994 L 22.898,8.729 L 22.635,8.437 L 22.635,8.596 L 22.133,8.596 "/>
<path stroke="#003C55" fill="none" stroke-width="0.001"  d="M 22.133,8.596 L 22.133,8.835 L 22.607,8.835 L 22.607,8.994 L 22.898,8.729 L 22.635,8.437 L 22.635,8.596 L 22.133,8.596 "/>
<path stroke="none" fill="#FFFFFF" stroke-width="0.001" d="M 23.955,8.809 L 23.955,8.596 L 23.453,8.596 L 23.453,8.411 L 23.163,8.702 L 23.453,8.994 L 23.453,8.809 L 23.955,8.809 "/>
<path stroke="#003C55" fill="none" stroke-width="0.001"  d="M 23.955,8.809 L 23.955,8.596 L 23.453,8.596 L 23.453,8.411 L 23.163,8.702 L 23.453,8.994 L 23.453,8.809 L 23.955,8.809 "/>
<path stroke="none" fill="#FFE9AA" stroke-width="0.001" d="M 17.877,6.835 L 17.876,6.794 L 17.872,6.752 L 17.865,6.712 L 17.855,6.671 L 17.842,6.630 L 17.827,6.590 L 17.809,6.551 L 17.788,6.512 L 17.766,6.475 L 17.740,6.438 L 17.713,6.402 L 17.682,6.367 L 17.649,6.334 L 17.615,6.302 L 17.578,6.271 L 17.538,6.241 L 17.498,6.213 L 17.456,6.186 L 17.411,6.163 L 17.365,6.139 L 17.317,6.118 L 17.268,6.099 L 17.219,6.081 L 17.167,6.066 L 17.115,6.053 L 17.062,6.041 L 17.009,6.031 L 16.955,6.024 L 16.900,6.019 L 16.845,6.016 L 16.790,6.015 L 16.790,6.015 L 16.735,6.016 L 16.679,6.019 L 16.625,6.024 L 16.571,6.031 L 16.517,6.041 L 16.464,6.053 L 16.412,6.066 L 16.361,6.081 L 16.311,6.099 L 16.262,6.118 L 16.215,6.139 L 16.169,6.163 L 16.124,6.186 L 16.082,6.213 L 16.041,6.241 L 16.001,6.271 L 15.965,6.302 L 15.930,6.334 L 15.897,6.367 L 15.867,6.402 L 15.839,6.438 L 15.814,6.475 L 15.790,6.512 L 15.771,6.551 L 15.752,6.590 L 15.737,6.630 L 15.724,6.671 L 15.716,6.712 L 15.709,6.752 L 15.704,6.794 L 15.703,6.835 L 15.703,6.835 L 15.704,6.876 L 15.709,6.919 L 15.716,6.960 L 15.724,7.001 L 15.737,7.042 L 15.752,7.082 L 15.771,7.120 L 15.790,7.159 L 15.814,7.197 L 15.839,7.233 L 15.867,7.270 L 15.897,7.305 L 15.930,7.337 L 15.965,7.370 L 16.001,7.401 L 16.041,7.431 L 16.082,7.458 L 16.124,7.484 L 16.169,7.510 L 16.215,7.532 L 16.262,7.553 L 16.311,7.573 L 16.361,7.590 L 16.412,7.605 L 16.464,7.619 L 16.517,7.630 L 16.571,7.640 L 16.625,7.646 L 16.679,7.653 L 16.735,7.655 L 16.790,7.656 L 16.790,7.656 L 16.845,7.655 L 16.900,7.653 L 16.955,7.646 L 17.009,7.640 L 17.062,7.630 L 17.115,7.619 L 17.167,7.605 L 17.219,7.590 L 17.268,7.573 L 17.317,7.553 L 17.365,7.532 L 17.411,7.510 L 17.456,7.484 L 17.498,7.458 L 17.538,7.431 L 17.578,7.401 L 17.615,7.370 L 17.649,7.337 L 17.682,7.305 L 17.713,7.270 L 17.740,7.233 L 17.766,7.197 L 17.788,7.159 L 17.809,7.120 L 17.827,7.082 L 17.842,7.042 L 17.855,7.001 L 17.865,6.960 L 17.872,6.919 L 17.876,6.876 L 17.877,6.835 "/>
<path stroke="none" fill="#FFE9AA" stroke-width="0.001" d="M 16.173,7.266 L 16.172,7.225 L 16.168,7.183 L 16.164,7.143 L 16.156,7.101 L 16.146,7.061 L 16.135,7.021 L 16.121,6.982 L 16.105,6.943 L 16.088,6.905 L 16.069,6.868 L 16.047,6.833 L 16.024,6.798 L 15.998,6.765 L 15.972,6.731 L 15.943,6.702 L 15.913,6.672 L 15.883,6.644 L 15.849,6.617 L 15.816,6.593 L 15.780,6.570 L 15.744,6.549 L 15.707,6.530 L 15.668,6.512 L 15.629,6.497 L 15.589,6.484 L 15.548,6.472 L 15.507,6.462 L 15.465,6.456 L 15.424,6.450 L 15.382,6.447 L 15.340,6.445 L 15.340,6.445 L 15.298,6.447 L 15.255,6.450 L 15.213,6.456 L 15.172,6.462 L 15.130,6.472 L 15.090,6.484 L 15.050,6.497 L 15.011,6.512 L 14.973,6.530 L 14.935,6.549 L 14.899,6.570 L 14.864,6.593 L 14.829,6.617 L 14.797,6.644 L 14.766,6.672 L 14.736,6.702 L 14.708,6.731 L 14.680,6.765 L 14.655,6.798 L 14.632,6.833 L 14.611,6.868 L 14.592,6.905 L 14.574,6.943 L 14.558,6.982 L 14.545,7.021 L 14.533,7.061 L 14.523,7.101 L 14.516,7.143 L 14.511,7.183 L 14.507,7.225 L 14.506,7.266 L 14.506,7.266 L 14.507,7.308 L 14.511,7.350 L 14.516,7.391 L 14.523,7.432 L 14.533,7.473 L 14.545,7.511 L 14.558,7.551 L 14.574,7.590 L 14.592,7.628 L 14.611,7.664 L 14.632,7.701 L 14.655,7.736 L 14.680,7.768 L 14.708,7.801 L 14.736,7.832 L 14.766,7.860 L 14.797,7.889 L 14.829,7.915 L 14.864,7.941 L 14.899,7.963 L 14.935,7.984 L 14.973,8.004 L 15.011,8.021 L 15.050,8.036 L 15.090,8.050 L 15.130,8.061 L 15.172,8.071 L 15.213,8.077 L 15.255,8.082 L 15.298,8.086 L 15.340,8.087 L 15.340,8.087 L 15.382,8.086 L 15.424,8.082 L 15.465,8.077 L 15.507,8.071 L 15.548,8.061 L 15.589,8.050 L 15.629,8.036 L 15.668,8.021 L 15.707,8.004 L 15.744,7.984 L 15.780,7.963 L 15.816,7.941 L 15.849,7.915 L 15.883,7.889 L 15.913,7.860 L 15.943,7.832 L 15.972,7.801 L 15.998,7.768 L 16.024,7.736 L 16.047,7.701 L 16.069,7.664 L 16.088,7.628 L 16.105,7.590 L 16.121,7.551 L 16.135,7.511 L 16.146,7.473 L 16.156,7.432 L 16.164,7.391 L 16.168,7.350 L 16.172,7.308 L 16.173,7.266 "/>
<path stroke="none" fill="#FFE9AA" stroke-width="0.001" d="M 15.122,8.103 L 15.122,8.070 L 15.120,8.036 L 15.116,8.003 L 15.111,7.968 L 15.104,7.936 L 15.096,7.903 L 15.088,7.871 L 15.077,7.840 L 15.065,7.809 L 15.052,7.778 L 15.037,7.750 L 15.022,7.721 L 15.005,7.693 L 14.987,7.667 L 14.967,7.642 L 14.947,7.619 L 14.927,7.596 L 14.905,7.574 L 14.882,7.554 L 14.858,7.535 L 14.834,7.518 L 14.808,7.502 L 14.783,7.487 L 14.756,7.475 L 14.729,7.464 L 14.702,7.455 L 14.675,7.447 L 14.646,7.442 L 14.618,7.437 L 14.590,7.435 L 14.561,7.434 L 14.561,7.434 L 14.533,7.435 L 14.504,7.437 L 14.476,7.442 L 14.448,7.447 L 14.420,7.455 L 14.392,7.464 L 14.366,7.475 L 14.340,7.487 L 14.313,7.502 L 14.288,7.518 L 14.264,7.535 L 14.240,7.554 L 14.217,7.574 L 14.195,7.596 L 14.174,7.619 L 14.154,7.642 L 14.135,7.667 L 14.117,7.693 L 14.100,7.721 L 14.084,7.750 L 14.070,7.778 L 14.057,7.809 L 14.045,7.840 L 14.035,7.871 L 14.025,7.903 L 14.017,7.936 L 14.011,7.968 L 14.006,8.003 L 14.002,8.036 L 14.000,8.070 L 14.000,8.103 L 14.000,8.103 L 14.000,8.137 L 14.002,8.172 L 14.006,8.204 L 14.011,8.238 L 14.017,8.272 L 14.025,8.304 L 14.035,8.336 L 14.045,8.367 L 14.057,8.399 L 14.070,8.429 L 14.084,8.457 L 14.100,8.486 L 14.117,8.513 L 14.135,8.539 L 14.154,8.565 L 14.174,8.589 L 14.195,8.612 L 14.217,8.633 L 14.240,8.653 L 14.264,8.672 L 14.288,8.689 L 14.313,8.705 L 14.340,8.719 L 14.366,8.731 L 14.392,8.743 L 14.420,8.752 L 14.448,8.760 L 14.476,8.766 L 14.504,8.769 L 14.533,8.772 L 14.561,8.773 L 14.561,8.773 L 14.590,8.772 L 14.618,8.769 L 14.646,8.766 L 14.675,8.760 L 14.702,8.752 L 14.729,8.743 L 14.756,8.731 L 14.783,8.719 L 14.808,8.705 L 14.834,8.689 L 14.858,8.672 L 14.882,8.653 L 14.905,8.633 L 14.927,8.612 L 14.947,8.589 L 14.967,8.565 L 14.987,8.539 L 15.005,8.513 L 15.022,8.486 L 15.037,8.457 L 15.052,8.429 L 15.065,8.399 L 15.077,8.367 L 15.088,8.336 L 15.096,8.304 L 15.104,8.272 L 15.111,8.238 L 15.116,8.204 L 15.120,8.172 L 15.122,8.137 L 15.122,8.103 "/>
<path stroke="none" fill="#FFE9AA" stroke-width="0.001" d="M 16.028,8.748 L 16.028,8.712 L 16.024,8.675 L 16.018,8.639 L 16.011,8.603 L 16.001,8.567 L 15.990,8.531 L 15.975,8.497 L 15.960,8.463 L 15.942,8.430 L 15.922,8.398 L 15.900,8.366 L 15.877,8.336 L 15.852,8.304 L 15.825,8.276 L 15.796,8.249 L 15.766,8.223 L 15.734,8.199 L 15.700,8.176 L 15.666,8.154 L 15.631,8.134 L 15.593,8.116 L 15.555,8.098 L 15.516,8.082 L 15.477,8.069 L 15.436,8.058 L 15.395,8.048 L 15.353,8.039 L 15.311,8.032 L 15.269,8.027 L 15.226,8.025 L 15.183,8.024 L 15.183,8.024 L 15.140,8.025 L 15.098,8.027 L 15.055,8.032 L 15.013,8.039 L 14.971,8.048 L 14.930,8.058 L 14.889,8.069 L 14.849,8.082 L 14.810,8.098 L 14.773,8.116 L 14.736,8.134 L 14.700,8.154 L 14.665,8.176 L 14.632,8.199 L 14.600,8.223 L 14.570,8.249 L 14.541,8.276 L 14.514,8.304 L 14.489,8.336 L 14.466,8.366 L 14.443,8.398 L 14.423,8.430 L 14.406,8.463 L 14.390,8.497 L 14.376,8.531 L 14.364,8.567 L 14.355,8.603 L 14.347,8.639 L 14.342,8.675 L 14.338,8.712 L 14.337,8.748 L 14.337,8.748 L 14.338,8.785 L 14.342,8.822 L 14.347,8.859 L 14.355,8.896 L 14.364,8.931 L 14.376,8.965 L 14.390,9.001 L 14.406,9.035 L 14.423,9.068 L 14.443,9.101 L 14.466,9.133 L 14.489,9.163 L 14.514,9.194 L 14.541,9.223 L 14.570,9.249 L 14.600,9.274 L 14.632,9.300 L 14.665,9.323 L 14.700,9.345 L 14.736,9.365 L 14.773,9.383 L 14.810,9.401 L 14.849,9.415 L 14.889,9.429 L 14.930,9.441 L 14.971,9.451 L 15.013,9.459 L 15.055,9.467 L 15.098,9.470 L 15.140,9.474 L 15.183,9.474 L 15.183,9.474 L 15.226,9.474 L 15.269,9.470 L 15.311,9.467 L 15.353,9.459 L 15.395,9.451 L 15.436,9.441 L 15.477,9.429 L 15.516,9.415 L 15.555,9.401 L 15.593,9.383 L 15.631,9.365 L 15.666,9.345 L 15.700,9.323 L 15.734,9.300 L 15.766,9.274 L 15.796,9.249 L 15.825,9.222 L 15.852,9.192 L 15.877,9.163 L 15.900,9.133 L 15.922,9.101 L 15.942,9.068 L 15.960,9.035 L 15.975,9.001 L 15.990,8.965 L 16.001,8.931 L 16.011,8.896 L 16.018,8.859 L 16.024,8.822 L 16.028,8.785 L 16.028,8.748 "/>
<path stroke="none" fill="#FFE9AA" stroke-width="0.001" d="M 18.058,9.124 L 18.056,9.080 L 18.052,9.036 L 18.043,8.993 L 18.032,8.951 L 18.017,8.907 L 18.000,8.866 L 17.980,8.825 L 17.956,8.784 L 17.929,8.744 L 17.899,8.706 L 17.866,8.669 L 17.832,8.631 L 17.794,8.597 L 17.754,8.563 L 17.710,8.530 L 17.666,8.499 L 17.618,8.471 L 17.568,8.443 L 17.517,8.417 L 17.463,8.393 L 17.408,8.371 L 17.352,8.350 L 17.294,8.332 L 17.234,8.317 L 17.173,8.302 L 17.112,8.290 L 17.050,8.280 L 16.986,8.272 L 16.924,8.267 L 16.859,8.263 L 16.796,8.263 L 16.796,8.263 L 16.732,8.263 L 16.668,8.267 L 16.604,8.272 L 16.542,8.280 L 16.479,8.290 L 16.418,8.302 L 16.357,8.317 L 16.298,8.332 L 16.239,8.350 L 16.183,8.371 L 16.128,8.393 L 16.074,8.417 L 16.023,8.443 L 15.974,8.471 L 15.926,8.499 L 15.881,8.530 L 15.838,8.563 L 15.798,8.597 L 15.759,8.631 L 15.724,8.669 L 15.692,8.706 L 15.663,8.744 L 15.636,8.784 L 15.612,8.825 L 15.592,8.866 L 15.574,8.907 L 15.560,8.951 L 15.548,8.993 L 15.540,9.036 L 15.535,9.080 L 15.533,9.124 L 15.533,9.124 L 15.535,9.166 L 15.540,9.211 L 15.548,9.254 L 15.560,9.297 L 15.574,9.340 L 15.592,9.382 L 15.612,9.422 L 15.636,9.463 L 15.663,9.503 L 15.692,9.541 L 15.724,9.578 L 15.759,9.615 L 15.798,9.650 L 15.838,9.684 L 15.881,9.717 L 15.926,9.747 L 15.974,9.777 L 16.023,9.805 L 16.074,9.830 L 16.128,9.854 L 16.183,9.877 L 16.239,9.896 L 16.298,9.914 L 16.357,9.931 L 16.418,9.946 L 16.479,9.957 L 16.542,9.967 L 16.604,9.975 L 16.668,9.980 L 16.732,9.984 L 16.796,9.985 L 16.796,9.985 L 16.859,9.984 L 16.924,9.980 L 16.986,9.975 L 17.050,9.967 L 17.112,9.957 L 17.173,9.946 L 17.234,9.931 L 17.294,9.914 L 17.352,9.896 L 17.408,9.877 L 17.463,9.854 L 17.517,9.830 L 17.568,9.805 L 17.618,9.777 L 17.666,9.747 L 17.710,9.717 L 17.754,9.684 L 17.794,9.650 L 17.832,9.615 L 17.866,9.578 L 17.899,9.541 L 17.929,9.503 L 17.956,9.463 L 17.980,9.422 L 18.000,9.382 L 18.017,9.340 L 18.032,9.297 L 18.043,9.254 L 18.052,9.211 L 18.056,9.166 L 18.058,9.124 "/>
<path stroke="none" fill="#FFE9AA" stroke-width="0.001" d="M 18.759,7.138 L 18.758,7.106 L 18.755,7.074 L 18.749,7.041 L 18.742,7.009 L 18.733,6.977 L 18.722,6.946 L 18.708,6.915 L 18.693,6.884 L 18.676,6.855 L 18.657,6.825 L 18.636,6.797 L 18.613,6.770 L 18.590,6.744 L 18.563,6.718 L 18.536,6.694 L 18.506,6.671 L 18.476,6.648 L 18.445,6.628 L 18.411,6.608 L 18.377,6.590 L 18.342,6.574 L 18.305,6.559 L 18.268,6.545 L 18.230,6.533 L 18.191,6.522 L 18.152,6.513 L 18.112,6.506 L 18.072,6.500 L 18.031,6.496 L 17.990,6.494 L 17.949,6.493 L 17.949,6.493 L 17.908,6.494 L 17.867,6.496 L 17.826,6.500 L 17.786,6.506 L 17.746,6.513 L 17.707,6.522 L 17.668,6.533 L 17.630,6.545 L 17.592,6.559 L 17.556,6.574 L 17.520,6.590 L 17.487,6.608 L 17.453,6.628 L 17.422,6.648 L 17.392,6.671 L 17.362,6.694 L 17.335,6.718 L 17.308,6.744 L 17.284,6.770 L 17.262,6.797 L 17.241,6.825 L 17.222,6.855 L 17.205,6.884 L 17.190,6.915 L 17.176,6.946 L 17.165,6.977 L 17.156,7.009 L 17.149,7.041 L 17.144,7.074 L 17.141,7.106 L 17.139,7.138 L 17.139,7.138 L 17.141,7.171 L 17.144,7.203 L 17.149,7.236 L 17.156,7.268 L 17.165,7.301 L 17.176,7.332 L 17.190,7.363 L 17.205,7.392 L 17.222,7.424 L 17.241,7.452 L 17.262,7.479 L 17.284,7.508 L 17.308,7.533 L 17.335,7.559 L 17.362,7.583 L 17.392,7.606 L 17.422,7.628 L 17.453,7.649 L 17.487,7.669 L 17.520,7.687 L 17.556,7.704 L 17.592,7.719 L 17.630,7.732 L 17.668,7.744 L 17.707,7.755 L 17.746,7.764 L 17.786,7.771 L 17.826,7.778 L 17.867,7.781 L 17.908,7.783 L 17.949,7.785 L 17.949,7.785 L 17.990,7.783 L 18.031,7.781 L 18.072,7.778 L 18.112,7.771 L 18.152,7.764 L 18.191,7.755 L 18.230,7.744 L 18.268,7.732 L 18.305,7.719 L 18.342,7.704 L 18.377,7.687 L 18.411,7.669 L 18.445,7.649 L 18.476,7.628 L 18.506,7.606 L 18.536,7.583 L 18.563,7.559 L 18.590,7.533 L 18.613,7.508 L 18.636,7.479 L 18.657,7.452 L 18.676,7.424 L 18.693,7.392 L 18.708,7.363 L 18.722,7.332 L 18.733,7.301 L 18.742,7.268 L 18.749,7.236 L 18.755,7.203 L 18.758,7.171 L 18.759,7.138 "/>
<path stroke="none" fill="#FFE9AA" stroke-width="0.001" d="M 18.988,7.968 L 18.986,7.936 L 18.984,7.903 L 18.979,7.870 L 18.972,7.838 L 18.962,7.805 L 18.951,7.774 L 18.938,7.744 L 18.923,7.714 L 18.906,7.683 L 18.887,7.655 L 18.866,7.627 L 18.844,7.600 L 18.820,7.574 L 18.794,7.547 L 18.767,7.524 L 18.739,7.500 L 18.708,7.478 L 18.676,7.458 L 18.644,7.438 L 18.610,7.420 L 18.575,7.404 L 18.539,7.388 L 18.502,7.375 L 18.464,7.363 L 18.425,7.352 L 18.386,7.343 L 18.347,7.336 L 18.306,7.329 L 18.266,7.326 L 18.225,7.324 L 18.185,7.323 L 18.185,7.323 L 18.144,7.324 L 18.104,7.326 L 18.063,7.329 L 18.023,7.336 L 17.984,7.343 L 17.944,7.352 L 17.906,7.363 L 17.869,7.375 L 17.831,7.388 L 17.795,7.404 L 17.760,7.420 L 17.726,7.438 L 17.693,7.458 L 17.662,7.478 L 17.632,7.500 L 17.602,7.524 L 17.575,7.547 L 17.550,7.574 L 17.526,7.600 L 17.504,7.627 L 17.483,7.655 L 17.464,7.683 L 17.447,7.714 L 17.432,7.744 L 17.419,7.774 L 17.407,7.805 L 17.398,7.838 L 17.391,7.870 L 17.386,7.903 L 17.382,7.936 L 17.382,7.968 L 17.382,7.968 L 17.382,8.000 L 17.386,8.032 L 17.391,8.066 L 17.398,8.098 L 17.407,8.130 L 17.419,8.161 L 17.432,8.193 L 17.447,8.222 L 17.464,8.252 L 17.483,8.281 L 17.504,8.309 L 17.526,8.336 L 17.550,8.362 L 17.575,8.389 L 17.602,8.412 L 17.632,8.435 L 17.662,8.457 L 17.693,8.477 L 17.726,8.497 L 17.760,8.516 L 17.795,8.531 L 17.831,8.547 L 17.869,8.561 L 17.906,8.572 L 17.944,8.584 L 17.984,8.592 L 18.023,8.600 L 18.063,8.606 L 18.104,8.610 L 18.144,8.612 L 18.185,8.613 L 18.185,8.613 L 18.225,8.612 L 18.266,8.610 L 18.306,8.606 L 18.347,8.600 L 18.386,8.592 L 18.425,8.584 L 18.464,8.572 L 18.502,8.561 L 18.539,8.547 L 18.575,8.531 L 18.610,8.516 L 18.644,8.497 L 18.676,8.477 L 18.708,8.457 L 18.739,8.435 L 18.767,8.412 L 18.794,8.389 L 18.820,8.362 L 18.844,8.336 L 18.866,8.309 L 18.887,8.281 L 18.906,8.252 L 18.923,8.222 L 18.938,8.193 L 18.951,8.161 L 18.962,8.130 L 18.972,8.098 L 18.979,8.066 L 18.984,8.032 L 18.986,8.000 L 18.988,7.968 "/>
<path stroke="none" fill="#FFE9AA" stroke-width="0.001" d="M 18.831,8.653 L 18.830,8.600 L 18.827,8.547 L 18.822,8.494 L 18.815,8.440 L 18.806,8.388 L 18.795,8.336 L 18.782,8.286 L 18.766,8.235 L 18.749,8.187 L 18.731,8.140 L 18.711,8.093 L 18.688,8.048 L 18.664,8.005 L 18.638,7.963 L 18.611,7.923 L 18.583,7.886 L 18.553,7.849 L 18.522,7.816 L 18.489,7.783 L 18.455,7.754 L 18.421,7.728 L 18.386,7.703 L 18.349,7.680 L 18.311,7.659 L 18.272,7.642 L 18.234,7.628 L 18.194,7.615 L 18.154,7.606 L 18.115,7.600 L 18.075,7.596 L 18.034,7.594 L 18.034,7.594 L 17.994,7.596 L 17.954,7.600 L 17.913,7.606 L 17.873,7.615 L 17.834,7.628 L 17.795,7.642 L 17.757,7.659 L 17.720,7.680 L 17.683,7.703 L 17.647,7.728 L 17.612,7.754 L 17.578,7.783 L 17.546,7.816 L 17.515,7.849 L 17.485,7.886 L 17.456,7.923 L 17.429,7.963 L 17.404,8.005 L 17.379,8.048 L 17.358,8.093 L 17.337,8.140 L 17.318,8.187 L 17.301,8.235 L 17.287,8.286 L 17.274,8.336 L 17.262,8.388 L 17.253,8.440 L 17.246,8.494 L 17.241,8.547 L 17.237,8.600 L 17.236,8.653 L 17.236,8.653 L 17.237,8.707 L 17.241,8.761 L 17.246,8.814 L 17.253,8.867 L 17.262,8.920 L 17.274,8.970 L 17.287,9.021 L 17.301,9.071 L 17.318,9.120 L 17.337,9.169 L 17.358,9.215 L 17.379,9.259 L 17.404,9.302 L 17.429,9.343 L 17.456,9.383 L 17.485,9.422 L 17.515,9.459 L 17.546,9.492 L 17.578,9.523 L 17.612,9.553 L 17.647,9.581 L 17.683,9.605 L 17.720,9.628 L 17.757,9.648 L 17.795,9.665 L 17.834,9.680 L 17.873,9.692 L 17.913,9.701 L 17.954,9.708 L 17.994,9.713 L 18.034,9.714 L 18.034,9.714 L 18.075,9.713 L 18.115,9.708 L 18.154,9.701 L 18.194,9.692 L 18.234,9.680 L 18.272,9.665 L 18.311,9.648 L 18.349,9.628 L 18.386,9.605 L 18.421,9.581 L 18.455,9.553 L 18.489,9.523 L 18.522,9.492 L 18.553,9.459 L 18.583,9.422 L 18.611,9.383 L 18.638,9.343 L 18.664,9.302 L 18.688,9.222 L 18.711,9.215 L 18.731,9.169 L 18.749,9.120 L 18.766,9.071 L 18.782,9.021 L 18.795,8.970 L 18.806,8.920 L 18.815,8.867 L 18.822,8.814 L 18.827,8.761 L 18.830,8.707 L 18.831,8.653 "/>
<path stroke="none" fill="#FFE9AA" stroke-width="0.001" d="M 18.142,8.016 L 18.140,7.962 L 18.134,7.908 L 18.124,7.855 L 18.109,7.802 L 18.091,7.750 L 18.068,7.699 L 18.042,7.647 L 18.011,7.597 L 17.977,7.548 L 17.939,7.501 L 17.897,7.455 L 17.852,7.410 L 17.804,7.366 L 17.752,7.324 L 17.696,7.284 L 17.639,7.247 L 17.578,7.210 L 17.514,7.178 L 17.448,7.145 L 17.380,7.115 L 17.309,7.088 L 17.236,7.064 L 17.162,7.041 L 17.086,7.021 L 17.008,7.003 L 16.929,6.988 L 16.850,6.977 L 16.769,6.966 L 16.688,6.961 L 16.606,6.956 L 16.523,6.956 L 16.523,6.956 L 16.442,6.956 L 16.360,6.961 L 16.279,6.966 L 16.197,6.977 L 16.118,6.988 L 16.039,7.003 L 15.961,7.021 L 15.886,7.041 L 15.810,7.064 L 15.739,7.088 L 15.668,7.115 L 15.599,7.145 L 15.533,7.178 L 15.470,7.210 L 15.408,7.247 L 15.350,7.284 L 15.296,7.324 L 15.244,7.366 L 15.195,7.410 L 15.150,7.455 L 15.108,7.501 L 15.071,7.548 L 15.037,7.597 L 15.005,7.647 L 14.979,7.699 L 14.957,7.750 L 14.938,7.802 L 14.924,7.855 L 14.913,7.908 L 14.907,7.962 L 14.905,8.016 L 14.905,8.016 L 14.907,8.069 L 14.913,8.122 L 14.924,8.176 L 14.938,8.229 L 14.957,8.281 L 14.979,8.332 L 15.005,8.383 L 15.037,8.434 L 15.071,8.483 L 15.108,8.530 L 15.150,8.576 L 15.195,8.621 L 15.244,8.664 L 15.296,8.706 L 15.350,8.746 L 15.408,8.784 L 15.470,8.820 L 15.533,8.853 L 15.599,8.886 L 15.668,8.915 L 15.739,8.942 L 15.810,8.967 L 15.886,8.989 L 15.961,9.010 L 16.039,9.027 L 16.118,9.042 L 16.197,9.053 L 16.279,9.063 L 16.360,9.070 L 16.442,9.074 L 16.523,9.075 L 16.523,9.075 L 16.606,9.074 L 16.688,9.070 L 16.769,9.063 L 16.850,9.053 L 16.929,9.042 L 17.008,9.027 L 17.086,9.010 L 17.162,8.989 L 17.236,8.967 L 17.309,8.942 L 17.380,8.915 L 17.448,8.886 L 17.514,8.853 L 17.578,8.820 L 17.639,8.784 L 17.696,8.746 L 17.752,8.706 L 17.804,8.664 L 17.852,8.621 L 17.897,8.576 L 17.939,8.530 L 17.977,8.483 L 18.011,8.434 L 18.042,8.383 L 18.068,8.332 L 18.091,8.281 L 18.109,8.229 L 18.124,8.176 L 18.134,8.122 L 18.140,8.069 L 18.142,8.016 "/>
<path stroke="none" fill="#FFE9AA" stroke-width="0.001" d="M 16.802,6.829 L 17.873,6.645 L 17.860,6.604 L 17.843,6.565 L 17.825,6.525 L 17.803,6.486 L 17.779,6.448 L 17.752,6.412 L 17.723,6.376 L 17.691,6.342 L 17.658,6.308 L 17.622,6.276 L 17.584,6.246 L 17.544,6.218 L 17.502,6.190 L 17.458,6.163 L 17.412,6.139 L 17.365,6.118 L 17.317,6.096 L 17.267,6.078 L 17.216,6.062 L 17.165,6.046 L 17.111,6.033 L 17.058,6.022 L 17.003,6.013 L 16.949,6.007 L 16.894,6.003 L 16.838,6.000 L 16.783,6.000 L 16.727,6.001 L 16.671,6.005 L 16.617,6.012 L 16.562,6.019 L 16.508,6.030 L 16.455,6.041 L 16.402,6.057 L 16.351,6.073 L 16.301,6.091 L 16.252,6.111 L 16.204,6.132 L 16.159,6.157 L 16.115,6.181 L 16.072,6.208 L 16.032,6.237 L 15.993,6.267 L 15.957,6.299 L 15.922,6.331 L 15.890,6.366 L 15.860,6.401 L 15.832,6.438 L 15.808,6.475 L 15.785,6.513 L 15.765,6.553 L 15.748,6.593 L 15.734,6.633 L 15.722,6.674 L 16.802,6.829 "/>
<path stroke="#805D00" fill="none" stroke-width="0.001"  d="M 17.873,6.644 L 17.859,6.603 L 17.843,6.563 L 17.824,6.524 L 17.803,6.485 L 17.778,6.448 L 17.751,6.411 L 17.722,6.376 L 17.690,6.340 L 17.656,6.308 L 17.622,6.276 L 17.583,6.245 L 17.544,6.216 L 17.501,6.189 L 17.457,6.163 L 17.412,6.139 L 17.365,6.117 L 17.317,6.096 L 17.267,6.077 L 17.216,6.059 L 17.165,6.045 L 17.111,6.033 L 17.057,6.022 L 17.003,6.013 L 16.948,6.007 L 16.894,6.003 L 16.837,6.000 L 16.782,6.000 L 16.727,6.001 L 16.672,6.005 L 16.616,6.012 L 16.562,6.019 L 16.508,6.030 L 16.455,6.041 L 16.403,6.057 L 16.351,6.073 L 16.302,6.091 L 16.253,6.111 L 16.206,6.131 L 16.159,6.155 L 16.116,6.181 L 16.073,6.208 L 16.032,6.236 L 15.994,6.267 L 15.957,6.298 L 15.922,6.331 L 15.890,6.366 L 15.861,6.400 L 15.833,6.436 L 15.808,6.475 L 15.785,6.512 L 15.766,6.551 L 15.748,6.591 L 15.734,6.631 L 15.723,6.672 "/>
<path stroke="none" fill="#FFE9AA" stroke-width="0.001" d="M 15.345,7.259 L 15.886,6.623 L 15.852,6.598 L 15.817,6.572 L 15.781,6.549 L 15.744,6.530 L 15.707,6.510 L 15.668,6.493 L 15.628,6.477 L 15.588,6.465 L 15.547,6.453 L 15.506,6.444 L 15.463,6.438 L 15.421,6.433 L 15.379,6.430 L 15.337,6.430 L 15.294,6.430 L 15.252,6.435 L 15.209,6.440 L 15.168,6.448 L 15.127,6.458 L 15.086,6.471 L 15.045,6.485 L 15.006,6.500 L 14.967,6.518 L 14.930,6.538 L 14.894,6.560 L 14.859,6.583 L 14.824,6.608 L 14.792,6.635 L 14.761,6.663 L 14.731,6.694 L 14.703,6.726 L 14.677,6.757 L 14.652,6.792 L 14.629,6.828 L 14.607,6.864 L 14.588,6.901 L 14.571,6.939 L 14.555,6.979 L 14.542,7.019 L 14.531,7.059 L 14.522,7.100 L 14.515,7.141 L 14.509,7.183 L 14.507,7.225 L 14.506,7.266 L 14.508,7.309 L 14.511,7.351 L 14.518,7.392 L 15.345,7.259 "/>
<path stroke="#805D00" fill="none" stroke-width="0.001"  d="M 15.883,6.621 L 15.849,6.595 L 15.815,6.571 L 15.779,6.549 L 15.742,6.528 L 15.704,6.509 L 15.665,6.493 L 15.626,6.477 L 15.585,6.464 L 15.544,6.453 L 15.502,6.444 L 15.461,6.438 L 15.419,6.433 L 15.377,6.430 L 15.333,6.430 L 15.292,6.431 L 15.250,6.435 L 15.207,6.440 L 15.166,6.448 L 15.125,6.459 L 15.083,6.472 L 15.044,6.485 L 15.005,6.502 L 14.966,6.520 L 14.928,6.539 L 14.892,6.562 L 14.858,6.585 L 14.824,6.610 L 14.791,6.636 L 14.760,6.665 L 14.731,6.695 L 14.702,6.726 L 14.676,6.760 L 14.651,6.793 L 14.628,6.829 L 14.607,6.866 L 14.588,6.902 L 14.571,6.941 L 14.555,6.980 L 14.542,7.020 L 14.531,7.060 L 14.521,7.101 L 14.515,7.143 L 14.509,7.184 L 14.507,7.225 L 14.506,7.268 L 14.509,7.310 L 14.512,7.351 L 14.518,7.392 "/>
<path stroke="none" fill="#FFE9AA" stroke-width="0.001" d="M 15.195,8.741 L 14.325,8.719 L 14.325,8.756 L 14.327,8.793 L 14.331,8.832 L 14.338,8.869 L 14.346,8.906 L 14.357,8.942 L 14.370,8.978 L 14.384,9.014 L 14.402,9.047 L 14.421,9.082 L 14.441,9.116 L 14.465,9.147 L 14.489,9.179 L 14.516,9.209 L 14.544,9.237 L 14.573,9.265 L 14.605,9.291 L 14.638,9.315 L 14.672,9.340 L 14.708,9.361 L 14.744,9.382 L 14.783,9.401 L 14.822,9.417 L 14.861,9.433 L 14.902,9.446 L 14.944,9.458 L 14.986,9.468 L 15.029,9.476 L 15.071,9.483 L 15.115,9.487 L 15.159,9.490 L 15.203,9.490 L 15.246,9.488 L 15.290,9.486 L 15.333,9.481 L 15.376,9.474 L 15.419,9.465 L 15.460,9.454 L 15.502,9.442 L 15.542,9.428 L 15.582,9.411 L 15.621,9.394 L 15.658,9.375 L 15.695,9.354 L 15.729,9.332 L 15.763,9.307 L 15.195,8.741 "/>
<path stroke="#805D00" fill="none" stroke-width="0.001"  d="M 14.326,8.719 L 14.325,8.756 L 14.328,8.793 L 14.331,8.830 L 14.338,8.868 L 14.346,8.905 L 14.357,8.942 L 14.370,8.978 L 14.385,9.013 L 14.402,9.047 L 14.420,9.081 L 14.441,9.115 L 14.463,9.147 L 14.489,9.178 L 14.515,9.208 L 14.543,9.237 L 14.572,9.264 L 14.604,9.290 L 14.636,9.315 L 14.670,9.338 L 14.706,9.360 L 14.743,9.381 L 14.780,9.399 L 14.819,9.416 L 14.860,9.432 L 14.900,9.446 L 14.941,9.457 L 14.983,9.468 L 15.026,9.475 L 15.069,9.483 L 15.112,9.486 L 15.156,9.490 L 15.200,9.490 L 15.243,9.488 L 15.286,9.486 L 15.330,9.481 L 15.372,9.474 L 15.416,9.465 L 15.457,9.455 L 15.499,9.442 L 15.539,9.428 L 15.578,9.413 L 15.617,9.396 L 15.654,9.376 L 15.692,9.356 L 15.727,9.333 L 15.760,9.310 "/>
<path stroke="none" fill="#FFE9AA" stroke-width="0.001" d="M 17.961,7.123 L 18.726,7.333 L 18.739,7.302 L 18.749,7.270 L 18.758,7.238 L 18.763,7.206 L 18.769,7.174 L 18.770,7.141 L 18.770,7.107 L 18.769,7.075 L 18.765,7.043 L 18.759,7.011 L 18.750,6.978 L 18.740,6.947 L 18.728,6.916 L 18.714,6.884 L 18.697,6.855 L 18.679,6.825 L 18.658,6.797 L 18.637,6.768 L 18.614,6.742 L 18.589,6.715 L 18.563,6.690 L 18.533,6.667 L 18.504,6.644 L 18.472,6.623 L 18.440,6.603 L 18.407,6.585 L 18.372,6.567 L 18.336,6.551 L 18.299,6.536 L 18.261,6.524 L 18.222,6.512 L 18.184,6.503 L 18.143,6.494 L 18.103,6.488 L 18.062,6.483 L 18.021,6.480 L 17.981,6.477 L 17.940,6.479 L 17.899,6.480 L 17.858,6.484 L 17.818,6.489 L 17.777,6.495 L 17.737,6.503 L 17.697,6.513 L 17.961,7.123 "/>
<path stroke="#805D00" fill="none" stroke-width="0.001"  d="M 18.656,7.451 L 18.726,7.334 L 18.739,7.302 L 18.749,7.272 L 18.757,7.239 L 18.763,7.207 L 18.768,7.175 L 18.769,7.143 L 18.770,7.109 L 18.768,7.076 L 18.765,7.043 L 18.759,7.011 L 18.750,6.980 L 18.740,6.948 L 18.728,6.916 L 18.714,6.885 L 18.697,6.856 L 18.679,6.826 L 18.660,6.797 L 18.638,6.770 L 18.615,6.743 L 18.590,6.716 L 18.563,6.692 L 18.535,6.669 L 18.505,6.645 L 18.474,6.624 L 18.441,6.603 L 18.408,6.585 L 18.373,6.567 L 18.337,6.552 L 18.300,6.538 L 18.263,6.525 L 18.224,6.512 L 18.185,6.503 L 18.146,6.494 L 18.106,6.488 L 18.065,6.484 L 18.024,6.480 L 17.983,6.477 L 17.941,6.477 L 17.900,6.480 L 17.859,6.484 L 17.819,6.488 L 17.779,6.494 L 17.739,6.503 L 17.700,6.512 "/>
<path stroke="none" fill="#FFE9AA" stroke-width="0.001" d="M 18.070,7.976 L 18.931,8.241 L 18.949,8.207 L 18.963,8.172 L 18.976,8.136 L 18.986,8.100 L 18.993,8.063 L 18.998,8.027 L 18.999,7.989 L 18.999,7.953 L 18.996,7.916 L 18.991,7.878 L 18.983,7.842 L 18.972,7.807 L 18.959,7.771 L 18.944,7.736 L 18.926,7.701 L 18.905,7.668 L 18.883,7.636 L 18.858,7.603 L 18.831,7.573 L 18.070,7.976 "/>
<path stroke="#805D00" fill="none" stroke-width="0.001"  d="M 18.822,8.362 L 18.930,8.243 L 18.946,8.209 L 18.963,8.172 L 18.975,8.137 L 18.985,8.100 L 18.992,8.063 L 18.998,8.027 L 19.000,7.989 L 18.999,7.953 L 18.996,7.915 L 18.990,7.878 L 18.983,7.841 L 18.972,7.805 L 18.959,7.770 L 18.944,7.735 L 18.925,7.700 L 18.905,7.667 L 18.881,7.633 L 18.857,7.601 L 18.829,7.570 L 18.656,7.451 "/>
<path stroke="none" fill="#FFE9AA" stroke-width="0.001" d="M 18.034,8.677 L 17.762,9.684 L 17.802,9.700 L 17.843,9.714 L 17.883,9.726 L 17.925,9.735 L 17.967,9.741 L 18.008,9.744 L 18.050,9.745 L 18.092,9.741 L 18.133,9.737 L 18.175,9.728 L 18.216,9.718 L 18.256,9.705 L 18.296,9.688 L 18.336,9.669 L 18.374,9.648 L 18.412,9.624 L 18.448,9.599 L 18.484,9.569 L 18.519,9.538 L 18.552,9.505 L 18.583,9.470 L 18.613,9.433 L 18.643,9.393 L 18.670,9.351 L 18.695,9.309 L 18.719,9.264 L 18.742,9.219 L 18.762,9.170 L 18.780,9.122 L 18.796,9.071 L 18.811,9.020 L 18.824,8.969 L 18.834,8.916 L 18.842,8.862 L 18.848,8.809 L 18.853,8.755 L 18.854,8.701 L 18.854,8.646 L 18.852,8.592 L 18.847,8.538 L 18.841,8.484 L 18.833,8.431 L 18.822,8.378 L 18.034,8.677 "/>
<path stroke="#805D00" fill="none" stroke-width="0.001"  d="M 17.764,9.686 L 17.805,9.701 L 17.845,9.716 L 17.886,9.727 L 17.927,9.736 L 17.969,9.741 L 18.010,9.745 L 18.052,9.745 L 18.094,9.741 L 18.136,9.737 L 18.177,9.728 L 18.218,9.718 L 18.258,9.704 L 18.298,9.687 L 18.337,9.668 L 18.376,9.647 L 18.414,9.623 L 18.450,9.597 L 18.485,9.569 L 18.520,9.537 L 18.553,9.504 L 18.584,9.468 L 18.615,9.431 L 18.644,9.392 L 18.671,9.351 L 18.697,9.306 L 18.720,9.263 L 18.742,9.215 L 18.762,9.169 L 18.780,9.120 L 18.796,9.070 L 18.811,9.018 L 18.824,8.965 L 18.834,8.914 L 18.842,8.861 L 18.849,8.807 L 18.853,8.753 L 18.854,8.698 L 18.854,8.644 L 18.851,8.590 L 18.847,8.535 L 18.840,8.481 L 18.831,8.428 L 18.822,8.376 "/>
<path stroke="none" fill="#FFE9AA" stroke-width="0.001" d="M 14.591,8.103 L 14.549,7.420 L 14.519,7.424 L 14.490,7.428 L 14.460,7.435 L 14.431,7.443 L 14.402,7.455 L 14.374,7.466 L 14.346,7.479 L 14.319,7.495 L 14.292,7.511 L 14.267,7.529 L 14.242,7.551 L 14.218,7.572 L 14.195,7.595 L 14.174,7.619 L 14.153,7.644 L 14.133,7.670 L 14.115,7.697 L 14.098,7.727 L 14.081,7.755 L 14.067,7.786 L 14.054,7.818 L 14.042,7.850 L 14.031,7.882 L 14.022,7.916 L 14.015,7.950 L 14.009,7.984 L 14.004,8.018 L 14.002,8.053 L 14.000,8.088 L 14.000,8.122 L 14.002,8.158 L 14.005,8.193 L 14.010,8.227 L 14.015,8.262 L 14.023,8.295 L 14.032,8.328 L 14.043,8.362 L 14.055,8.393 L 14.068,8.424 L 14.083,8.455 L 14.100,8.484 L 14.116,8.512 L 14.135,8.539 L 14.155,8.566 L 14.176,8.592 L 14.198,8.616 L 14.221,8.638 L 14.245,8.658 L 14.271,8.679 L 14.296,8.698 L 14.323,8.714 L 14.591,8.103 "/>
<path stroke="#805D00" fill="none" stroke-width="0.001"  d="M 14.549,7.420 L 14.521,7.424 L 14.491,7.428 L 14.462,7.435 L 14.434,7.443 L 14.405,7.453 L 14.377,7.464 L 14.350,7.478 L 14.323,7.492 L 14.297,7.509 L 14.272,7.527 L 14.247,7.546 L 14.224,7.567 L 14.201,7.588 L 14.179,7.612 L 14.158,7.637 L 14.139,7.662 L 14.120,7.689 L 14.103,7.717 L 14.087,7.746 L 14.073,7.775 L 14.059,7.805 L 14.046,7.836 L 14.035,7.868 L 14.025,7.900 L 14.017,7.934 L 14.011,7.968 L 14.005,8.001 L 14.002,8.035 L 14.000,8.070 L 14.000,8.104 L 14.000,8.138 L 14.003,8.172 L 14.006,8.207 L 14.011,8.240 L 14.018,8.273 L 14.025,8.307 L 14.035,8.339 L 14.047,8.371 L 14.059,8.402 L 14.073,8.434 L 14.088,8.463 L 14.103,8.491 L 14.120,8.520 L 14.139,8.545 L 14.159,8.571 L 14.180,8.596 L 14.201,8.620 L 14.225,8.640 L 14.247,8.661 L 14.272,8.680 L 14.298,8.698 L 14.324,8.716 "/>
<path stroke="none" fill="#FFE9AA" stroke-width="0.001" d="M 16.784,9.203 L 15.552,9.282 L 15.560,9.322 L 15.570,9.362 L 15.584,9.401 L 15.602,9.438 L 15.621,9.478 L 15.644,9.515 L 15.670,9.551 L 15.698,9.586 L 15.730,9.621 L 15.764,9.655 L 15.800,9.687 L 15.840,9.718 L 15.881,9.749 L 15.925,9.777 L 15.971,9.804 L 16.018,9.829 L 16.069,9.853 L 16.120,9.876 L 16.174,9.896 L 16.228,9.916 L 16.286,9.932 L 16.343,9.948 L 16.401,9.960 L 16.462,9.972 L 16.522,9.982 L 16.583,9.990 L 16.644,9.995 L 16.706,9.999 L 16.769,10.000 L 16.831,9.999 L 16.894,9.996 L 16.955,9.991 L 17.016,9.986 L 17.077,9.977 L 17.138,9.967 L 17.196,9.954 L 17.255,9.940 L 17.311,9.923 L 17.368,9.905 L 17.422,9.886 L 17.474,9.864 L 17.525,9.841 L 17.574,9.816 L 17.621,9.790 L 17.666,9.763 L 17.708,9.732 L 17.748,9.703 L 17.786,9.670 L 17.821,9.637 L 17.854,9.604 L 17.884,9.569 L 17.911,9.533 L 17.936,9.496 L 17.957,9.458 L 16.784,9.203 "/>
<path stroke="#805D00" fill="none" stroke-width="0.001"  d="M 15.553,9.283 L 15.560,9.323 L 15.570,9.362 L 15.584,9.401 L 15.602,9.441 L 15.622,9.478 L 15.644,9.515 L 15.670,9.551 L 15.698,9.587 L 15.730,9.621 L 15.764,9.655 L 15.800,9.687 L 15.840,9.718 L 15.882,9.749 L 15.925,9.777 L 15.971,9.804 L 16.018,9.829 L 16.069,9.853 L 16.120,9.876 L 16.174,9.896 L 16.228,9.916 L 16.285,9.932 L 16.342,9.948 L 16.400,9.960 L 16.461,9.972 L 16.521,9.982 L 16.582,9.989 L 16.643,9.995 L 16.705,9.999 L 16.767,10.000 L 16.830,9.999 L 16.891,9.996 L 16.953,9.991 L 17.015,9.986 L 17.076,9.977 L 17.136,9.967 L 17.195,9.954 L 17.253,9.941 L 17.310,9.923 L 17.366,9.906 L 17.419,9.886 L 17.472,9.864 L 17.523,9.842 L 17.572,9.817 L 17.619,9.791 L 17.663,9.763 L 17.707,9.734 L 17.747,9.703 L 17.785,9.672 L 17.820,9.638 L 17.852,9.605 L 17.883,9.569 L 17.910,9.533 L 17.934,9.496 L 17.956,9.459 "/>
<text x="16.683" y="8.248"  fill="#000000" text-anchor="middle" font-size="0.80" font-family="sans" font-style="normal" font-weight="400">
WAN</text>
<path stroke="none" fill="#0096D4" stroke-width="0.001" d="M 27.000,7.882 L 27.000,8.631 L 29.961,8.631 L 29.961,7.882 L 27.000,7.882 "/>
<path stroke="#AAE6FF" fill="none" stroke-width="0.001"  d="M 27.000,7.882 L 27.000,8.631 L 29.961,8.631 L 29.961,7.882 L 27.000,7.882 "/>
<path stroke="none" fill="#005A80" stroke-width="0.001" d="M 29.961,7.882 L 30.879,7.000 L 30.879,7.749 L 29.961,8.631 L 29.961,7.882 "/>
<path stroke="#AAE6FF" fill="none" stroke-width="0.001"  d="M 29.961,7.882 L 30.879,7.000 L 30.879,7.749 L 29.961,8.631 L 29.961,7.882 "/>
<path stroke="none" fill="#00B4FF" stroke-width="0.001" d="M 29.961,7.882 L 30.879,7.000 L 27.915,7.000 L 27.000,7.882 L 29.961,7.882 "/>
<path stroke="#AAE6FF" fill="none" stroke-width="0.001"  d="M 29.961,7.882 L 30.879,7.000 L 27.915,7.000 L 27.000,7.882 L 29.961,7.882 "/>
<path stroke="none" fill="#000000" stroke-width="0.001" d="M 28.857,7.455 L 28.750,7.560 L 29.503,7.560 L 29.396,7.695 L 30.015,7.534 L 29.693,7.401 L 29.611,7.455 L 28.857,7.455 "/>
<path stroke="none" fill="#000000" stroke-width="0.001" d="M 29.234,7.107 L 29.127,7.214 L 29.881,7.214 L 29.746,7.347 L 30.392,7.161 L 30.042,7.026 L 29.990,7.107 L 29.234,7.107 "/>
<path stroke="none" fill="#000000" stroke-width="0.001" d="M 28.588,7.749 L 28.697,7.641 L 27.915,7.641 L 28.050,7.507 L 27.429,7.667 L 27.753,7.802 L 27.808,7.749 L 28.588,7.749 "/>
<path stroke="none" fill="#000000" stroke-width="0.001" d="M 28.939,7.373 L 29.046,7.268 L 28.292,7.268 L 28.428,7.133 L 27.780,7.320 L 28.130,7.455 L 28.184,7.373 L 28.939,7.373 "/>
<path stroke="none" fill="#FFFFFF" stroke-width="0.001" d="M 28.884,7.480 L 28.777,7.587 L 29.531,7.587 L 29.423,7.721 L 30.042,7.560 L 29.718,7.427 L 29.639,7.480 L 28.884,7.480 "/>
<path stroke="none" fill="#FFFFFF" stroke-width="0.001" d="M 29.261,7.133 L 29.154,7.240 L 29.908,7.240 L 29.773,7.373 L 30.420,7.186 L 30.070,7.053 L 30.015,7.133 L 29.261,7.133 "/>
<path stroke="none" fill="#FFFFFF" stroke-width="0.001" d="M 28.614,7.775 L 28.722,7.667 L 27.943,7.667 L 28.075,7.534 L 27.457,7.695 L 27.780,7.828 L 27.834,7.775 L 28.614,7.775 "/>
<path stroke="none" fill="#FFFFFF" stroke-width="0.001" d="M 28.964,7.401 L 29.073,7.293 L 28.318,7.293 L 28.453,7.161 L 27.808,7.347 L 28.158,7.480 L 28.210,7.401 L 28.964,7.401 "/>
<text x="31.000" y="2.223"  fill="#000000" text-anchor="middle" font-size="0.80" font-family="sans" font-style="normal" font-weight="400">
web.mati</text>
<text x="23.000" y="11.223"  fill="#000000" text-anchor="middle" font-size="0.80" font-family="sans" font-style="normal" font-weight="400">
router.mati</text>
<line x1="4.455" y1="7.000" x2="3.269" y2="4.999" stroke="#000000" stroke-width="0.100" />
<line x1="3.831" y1="10.000" x2="4.525" y2="8.631" stroke="#000000" stroke-width="0.100" />
<text x="3.000" y="13.223"  fill="#000000" text-anchor="middle" font-size="0.80" font-family="sans" font-style="normal" font-weight="400">
desktop.kati</text>
<path stroke="none" fill="#0096D4" stroke-width="0.002" d="M 9.000,6.291 L 9.000,9.920 L 11.139,9.920 L 11.139,6.291 L 9.000,6.291 "/>
<path stroke="#AAE6FF" fill="none" stroke-width="0.001"  d="M 9.000,6.291 L 9.000,9.920 L 11.139,9.920 L 11.139,6.291 L 9.000,6.291 "/>
<path stroke="none" fill="#00B4FF" stroke-width="0.001" d="M 9.000,6.291 L 9.291,6.000 L 11.430,6.000 L 11.139,6.291 L 9.000,6.291 "/>
<path stroke="#AAE6FF" fill="none" stroke-width="0.001"  d="M 9.000,6.291 L 9.291,6.000 L 11.430,6.000 L 11.139,6.291 L 9.000,6.291 "/>
<path stroke="none" fill="#2AC0FF" stroke-width="0.001" d="M 9.133,6.503 L 10.110,6.503 L 10.110,6.980 L 9.133,6.980 L 9.133,6.503 "/>
<path stroke="#005A80" fill="none" stroke-width="0.001"  d="M 9.133,6.503 L 10.109,6.503 L 10.109,6.979 L 9.133,6.979 L 9.133,6.503 "/>
<path stroke="#AAE6FF" fill="none" stroke-width="0.030"  d="M 9.291,6.742 L 9.925,6.742 "/>
<path stroke="none" fill="#005A80" stroke-width="0.030" d="M 11.139,9.920 L 11.430,9.630 L 11.430,6.000 L 11.139,6.291 L 11.139,9.920 "/>
<path stroke="#AAE6FF" fill="none" stroke-width="0.001"  d="M 11.139,9.920 L 11.430,9.630 L 11.430,6.000 L 11.139,6.291 L 11.139,9.920 "/>
<path stroke="#AAE6FF" fill="none" stroke-width="0.030"  d="M 9.053,9.682 L 11.113,9.682 "/>
<path stroke="#AAE6FF" fill="none" stroke-width="0.030"  d="M 9.053,7.750 L 11.113,7.750 "/>
<path stroke="#005A80" fill="none" stroke-width="0.030"  d="M 9.027,9.656 L 11.113,9.656 "/>
<path stroke="#005A80" fill="none" stroke-width="0.030"  d="M 9.027,7.722 L 11.113,7.722 "/>
<path stroke="#AAE6FF" fill="none" stroke-width="0.001"  d="M 9.133,6.954 L 9.133,6.503 L 10.083,6.503 "/>
<path stroke="none" fill="#FFFFFF" stroke-width="0.001" d="M 10.163,8.835 L 9.925,8.835 L 9.925,9.099 L 9.766,9.099 L 10.057,9.392 L 10.321,9.099 L 10.163,9.099 L 10.163,8.835 "/>
<path stroke="#003C55" fill="none" stroke-width="0.001"  d="M 10.163,8.835 L 9.925,8.835 L 9.925,9.099 L 9.766,9.099 L 10.057,9.392 L 10.321,9.099 L 10.163,9.099 L 10.163,8.835 "/>
<path stroke="none" fill="#FFFFFF" stroke-width="0.001" d="M 9.925,8.596 L 10.163,8.596 L 10.163,8.278 L 10.321,8.278 L 10.031,7.988 L 9.766,8.278 L 9.925,8.278 L 9.925,8.596 "/>
<path stroke="#003C55" fill="none" stroke-width="0.001"  d="M 9.925,8.596 L 10.163,8.596 L 10.163,8.278 L 10.321,8.278 L 10.031,7.988 L 9.766,8.278 L 9.925,8.278 L 9.925,8.596 "/>
<path stroke="none" fill="#FFFFFF" stroke-width="0.001" d="M 9.133,8.596 L 9.133,8.835 L 9.607,8.835 L 9.607,8.994 L 9.898,8.729 L 9.635,8.437 L 9.635,8.596 L 9.133,8.596 "/>
<path stroke="#003C55" fill="none" stroke-width="0.001"  d="M 9.133,8.596 L 9.133,8.835 L 9.607,8.835 L 9.607,8.994 L 9.898,8.729 L 9.635,8.437 L 9.635,8.596 L 9.133,8.596 "/>
<path stroke="none" fill="#FFFFFF" stroke-width="0.001" d="M 10.955,8.809 L 10.955,8.596 L 10.453,8.596 L 10.453,8.411 L 10.163,8.702 L 10.453,8.994 L 10.453,8.809 L 10.955,8.809 "/>
<path stroke="#003C55" fill="none" stroke-width="0.001"  d="M 10.955,8.809 L 10.955,8.596 L 10.453,8.596 L 10.453,8.411 L 10.163,8.702 L 10.453,8.994 L 10.453,8.809 L 10.955,8.809 "/>
<path stroke="none" fill="#0096D4" stroke-width="0.001" d="M 3.000,7.882 L 3.000,8.631 L 5.961,8.631 L 5.961,7.882 L 3.000,7.882 "/>
<path stroke="#AAE6FF" fill="none" stroke-width="0.001"  d="M 3.000,7.882 L 3.000,8.631 L 5.961,8.631 L 5.961,7.882 L 3.000,7.882 "/>
<path stroke="none" fill="#005A80" stroke-width="0.001" d="M 5.961,7.882 L 6.879,7.000 L 6.879,7.749 L 5.961,8.631 L 5.961,7.882 "/>
<path stroke="#AAE6FF" fill="none" stroke-width="0.001"  d="M 5.961,7.882 L 6.879,7.000 L 6.879,7.749 L 5.961,8.631 L 5.961,7.882 "/>
<path stroke="none" fill="#00B4FF" stroke-width="0.001" d="M 5.961,7.882 L 6.879,7.000 L 3.915,7.000 L 3.000,7.882 L 5.961,7.882 "/>
<path stroke="#AAE6FF" fill="none" stroke-width="0.001"  d="M 5.961,7.882 L 6.879,7.000 L 3.915,7.000 L 3.000,7.882 L 5.961,7.882 "/>
<path stroke="none" fill="#000000" stroke-width="0.001" d="M 4.857,7.455 L 4.750,7.560 L 5.503,7.560 L 5.396,7.695 L 6.015,7.534 L 5.693,7.401 L 5.611,7.455 L 4.857,7.455 "/>
<path stroke="none" fill="#000000" stroke-width="0.001" d="M 5.234,7.107 L 5.127,7.214 L 5.881,7.214 L 5.746,7.347 L 6.392,7.161 L 6.042,7.026 L 5.990,7.107 L 5.234,7.107 "/>
<path stroke="none" fill="#000000" stroke-width="0.001" d="M 4.588,7.749 L 4.697,7.641 L 3.915,7.641 L 4.050,7.507 L 3.429,7.667 L 3.753,7.802 L 3.808,7.749 L 4.588,7.749 "/>
<path stroke="none" fill="#000000" stroke-width="0.001" d="M 4.939,7.373 L 5.046,7.268 L 4.292,7.268 L 4.428,7.133 L 3.780,7.320 L 4.130,7.455 L 4.184,7.373 L 4.939,7.373 "/>
<path stroke="none" fill="#FFFFFF" stroke-width="0.001" d="M 4.884,7.480 L 4.777,7.587 L 5.531,7.587 L 5.423,7.721 L 6.042,7.560 L 5.718,7.427 L 5.639,7.480 L 4.884,7.480 "/>
<path stroke="none" fill="#FFFFFF" stroke-width="0.001" d="M 5.261,7.133 L 5.154,7.240 L 5.908,7.240 L 5.773,7.373 L 6.420,7.186 L 6.070,7.053 L 6.015,7.133 L 5.261,7.133 "/>
<path stroke="none" fill="#FFFFFF" stroke-width="0.001" d="M 4.614,7.775 L 4.722,7.667 L 3.943,7.667 L 4.075,7.534 L 3.457,7.695 L 3.780,7.828 L 3.834,7.775 L 4.614,7.775 "/>
<path stroke="none" fill="#FFFFFF" stroke-width="0.001" d="M 4.964,7.401 L 5.073,7.293 L 4.318,7.293 L 4.453,7.161 L 3.808,7.347 L 4.158,7.480 L 4.210,7.401 L 4.964,7.401 "/>
<text x="3.000" y="2.223"  fill="#000000" text-anchor="middle" font-size="0.80" font-family="sans" font-style="normal" font-weight="400">
web.kati</text>
<text x="10.000" y="11.223"  fill="#000000" text-anchor="middle" font-size="0.80" font-family="sans" font-style="normal" font-weight="400">
router.kati</text>
<path stroke="none" fill="#C9C9B6" stroke-width="0.001" d="M 30.000,3.235 L 30.248,3.000 L 31.957,3.000 L 31.709,3.235 L 30.000,3.235 "/>
<path stroke="#494936" fill="none" stroke-width="0.001"  d="M 30.000,3.235 L 30.248,3.000 L 31.957,3.000 L 31.709,3.235 L 30.000,3.235 "/>
<path stroke="none" fill="#B7B79D" stroke-width="0.001" d="M 30.000,3.235 L 31.709,3.235 L 31.709,5.000 L 30.000,5.000 L 30.000,3.235 "/>
<path stroke="#494936" fill="none" stroke-width="0.001"  d="M 30.000,3.235 L 31.709,3.235 L 31.709,5.000 L 30.000,5.000 L 30.000,3.235 "/>
<path stroke="none" fill="#7A7A5A" stroke-width="0.001" d="M 31.709,5.000 L 31.957,4.750 L 31.957,3.000 L 31.709,3.235 L 31.709,5.000 "/>
<path stroke="#494936" fill="none" stroke-width="0.001"  d="M 31.709,5.000 L 31.957,4.750 L 31.957,3.000 L 31.709,3.235 L 31.709,5.000 "/>
<path stroke="#DBDBCE" fill="none" stroke-width="0.030"  d="M 30.000,3.706 L 31.723,3.706 "/>
<path stroke="#000000" fill="none" stroke-width="0.030"  d="M 30.000,4.147 L 31.723,4.147 "/>
<path stroke="#000000" fill="none" stroke-width="0.030"  d="M 30.000,4.588 L 31.723,4.588 "/>
<path stroke="#494936" fill="none" stroke-width="0.030"  d="M 30.000,3.691 L 31.723,3.691 "/>
<path stroke="#000000" fill="none" stroke-width="0.030"  d="M 30.000,4.132 L 31.723,4.132 "/>
<path stroke="#000000" fill="none" stroke-width="0.030"  d="M 30.000,4.574 L 31.723,4.574 "/>
<path stroke="#494936" fill="none" stroke-width="0.001"  d="M 30.000,3.235 L 31.709,3.235 L 31.709,5.000 L 30.000,5.000 L 30.000,3.235 "/>
<path stroke="#ECECE7" fill="none" stroke-width="0.070"  d="M 31.169,3.486 L 31.578,3.486 "/>
<path stroke="#000000" fill="none" stroke-width="0.070"  d="M 31.169,3.926 L 31.578,3.926 "/>
<path stroke="#000000" fill="none" stroke-width="0.070"  d="M 31.169,4.368 L 31.578,4.368 "/>
<path stroke="#000000" fill="none" stroke-width="0.070"  d="M 31.169,4.809 L 31.578,4.809 "/>
<path stroke="#000000" fill="none" stroke-width="0.070"  d="M 31.154,3.471 L 31.563,3.471 "/>
<path stroke="#000000" fill="none" stroke-width="0.070"  d="M 31.154,3.912 L 31.563,3.912 "/>
<path stroke="#000000" fill="none" stroke-width="0.070"  d="M 31.154,4.353 L 31.563,4.353 "/>
<path stroke="#000000" fill="none" stroke-width="0.070"  d="M 31.154,4.795 L 31.563,4.795 "/>
<path stroke="none" fill="#C9C9B6" stroke-width="0.001" d="M 2.000,3.235 L 2.248,3.000 L 3.957,3.000 L 3.709,3.235 L 2.000,3.235 "/>
<path stroke="#494936" fill="none" stroke-width="0.001"  d="M 2.000,3.235 L 2.248,3.000 L 3.957,3.000 L 3.709,3.235 L 2.000,3.235 "/>
<path stroke="none" fill="#B7B79D" stroke-width="0.001" d="M 2.000,3.235 L 3.709,3.235 L 3.709,5.000 L 2.000,5.000 L 2.000,3.235 "/>
<path stroke="#494936" fill="none" stroke-width="0.001"  d="M 2.000,3.235 L 3.709,3.235 L 3.709,5.000 L 2.000,5.000 L 2.000,3.235 "/>
<path stroke="none" fill="#7A7A5A" stroke-width="0.001" d="M 3.709,5.000 L 3.957,4.750 L 3.957,3.000 L 3.709,3.235 L 3.709,5.000 "/>
<path stroke="#494936" fill="none" stroke-width="0.001"  d="M 3.709,5.000 L 3.957,4.750 L 3.957,3.000 L 3.709,3.235 L 3.709,5.000 "/>
<path stroke="#DBDBCE" fill="none" stroke-width="0.030"  d="M 2.000,3.706 L 3.723,3.706 "/>
<path stroke="#000000" fill="none" stroke-width="0.030"  d="M 2.000,4.147 L 3.723,4.147 "/>
<path stroke="#000000" fill="none" stroke-width="0.030"  d="M 2.000,4.588 L 3.723,4.588 "/>
<path stroke="#494936" fill="none" stroke-width="0.030"  d="M 2.000,3.691 L 3.723,3.691 "/>
<path stroke="#000000" fill="none" stroke-width="0.030"  d="M 2.000,4.132 L 3.723,4.132 "/>
<path stroke="#000000" fill="none" stroke-width="0.030"  d="M 2.000,4.574 L 3.723,4.574 "/>
<path stroke="#494936" fill="none" stroke-width="0.001"  d="M 2.000,3.235 L 3.709,3.235 L 3.709,5.000 L 2.000,5.000 L 2.000,3.235 "/>
<path stroke="#ECECE7" fill="none" stroke-width="0.070"  d="M 3.169,3.486 L 3.578,3.486 "/>
<path stroke="#000000" fill="none" stroke-width="0.070"  d="M 3.169,3.926 L 3.578,3.926 "/>
<path stroke="#000000" fill="none" stroke-width="0.070"  d="M 3.169,4.368 L 3.578,4.368 "/>
<path stroke="#000000" fill="none" stroke-width="0.070"  d="M 3.169,4.809 L 3.578,4.809 "/>
<path stroke="#000000" fill="none" stroke-width="0.070"  d="M 3.154,3.471 L 3.563,3.471 "/>
<path stroke="#000000" fill="none" stroke-width="0.070"  d="M 3.154,3.912 L 3.563,3.912 "/>
<path stroke="#000000" fill="none" stroke-width="0.070"  d="M 3.154,4.353 L 3.563,4.353 "/>
<path stroke="#000000" fill="none" stroke-width="0.070"  d="M 3.154,4.795 L 3.563,4.795 "/>
<path stroke="none" fill="#B7B79D" stroke-width="0.001" d="M 3.000,11.341 L 4.998,11.341 L 4.998,11.710 L 3.000,11.710 L 3.000,11.341 "/>
<path stroke="#494936" fill="none" stroke-width="0.001"  d="M 3.000,11.341 L 4.998,11.341 L 4.998,11.710 L 3.000,11.710 L 3.000,11.341 "/>
<path stroke="none" fill="#C9C9B6" stroke-width="0.001" d="M 3.000,11.341 L 3.212,11.140 L 5.210,11.140 L 4.998,11.341 L 3.000,11.341 "/>
<path stroke="#494936" fill="none" stroke-width="0.001"  d="M 3.000,11.341 L 3.212,11.140 L 5.210,11.140 L 4.998,11.341 L 3.000,11.341 "/>
<path stroke="#000000" fill="none" stroke-width="0.106"  d="M 4.887,11.509 L 4.407,11.509 "/>
<path stroke="none" fill="#7A7A5A" stroke-width="0.001" d="M 4.998,11.710 L 5.210,11.497 L 5.210,11.140 L 4.998,11.341 L 4.998,11.710 "/>
<path stroke="#494936" fill="none" stroke-width="0.001"  d="M 4.998,11.710 L 5.210,11.497 L 5.210,11.140 L 4.998,11.341 L 4.998,11.710 "/>
<path stroke="none" fill="#C9C9B6" stroke-width="0.001" d="M 3.011,11.944 L 3.234,11.665 L 4.775,11.665 L 4.552,11.944 L 3.011,11.944 "/>
<path stroke="#494936" fill="none" stroke-width="0.001"  d="M 3.011,11.944 L 3.234,11.665 L 4.775,11.665 L 4.552,11.944 L 3.011,11.944 "/>
<path stroke="none" fill="#7A7A5A" stroke-width="0.001" d="M 4.552,12.000 L 4.775,11.766 L 4.775,11.665 L 4.552,11.944 L 4.552,12.000 "/>
<path stroke="#494936" fill="none" stroke-width="0.001"  d="M 4.552,12.000 L 4.775,11.766 L 4.775,11.665 L 4.552,11.944 L 4.552,12.000 "/>
<path stroke="none" fill="#B7B79D" stroke-width="0.001" d="M 3.011,11.944 L 4.552,11.944 L 4.552,12.000 L 3.011,12.000 L 3.011,11.944 "/>
<path stroke="#494936" fill="none" stroke-width="0.001"  d="M 3.011,11.944 L 4.552,11.944 L 4.552,12.000 L 3.011,12.000 L 3.011,11.944 "/>
<path stroke="none" fill="#000000" stroke-width="0.001" d="M 3.301,11.296 L 3.469,11.140 L 4.887,11.140 L 4.731,11.296 L 3.301,11.296 "/>
<path stroke="#000000" fill="none" stroke-width="0.001"  d="M 3.301,11.296 L 3.469,11.140 L 4.887,11.140 L 4.731,11.296 L 3.301,11.296 "/>
<path stroke="none" fill="#C9C9B6" stroke-width="0.001" d="M 3.290,10.145 L 3.447,10.000 L 4.865,10.000 L 4.708,10.145 L 3.290,10.145 "/>
<path stroke="#494936" fill="none" stroke-width="0.001"  d="M 3.290,10.145 L 3.447,10.000 L 4.865,10.000 L 4.708,10.145 L 3.290,10.145 "/>
<path stroke="none" fill="#B7B79D" stroke-width="0.001" d="M 3.290,10.145 L 4.719,10.145 L 4.719,11.274 L 3.290,11.274 L 3.290,10.145 "/>
<path stroke="#494936" fill="none" stroke-width="0.001"  d="M 3.290,10.145 L 4.719,10.145 L 4.719,11.273 L 3.290,11.273 L 3.290,10.145 "/>
<path stroke="none" fill="#FFFFFF" stroke-width="0.001" d="M 3.413,10.290 L 4.596,10.290 L 4.596,11.162 L 3.413,11.162 L 3.413,10.290 "/>
<path stroke="#494936" fill="none" stroke-width="0.001"  d="M 3.413,10.290 L 4.596,10.290 L 4.596,11.162 L 3.413,11.162 L 3.413,10.290 "/>
<path stroke="none" fill="#7A7A5A" stroke-width="0.001" d="M 4.708,11.263 L 4.865,11.106 L 4.865,10.000 L 4.708,10.145 L 4.708,11.263 "/>
<path stroke="#494936" fill="none" stroke-width="0.001"  d="M 4.708,11.263 L 4.865,11.106 L 4.865,10.000 L 4.708,10.145 L 4.708,11.263 "/>
<path stroke="none" fill="#B7B79D" stroke-width="0.001" d="M 30.000,11.341 L 31.998,11.341 L 31.998,11.710 L 30.000,11.710 L 30.000,11.341 "/>
<path stroke="#494936" fill="none" stroke-width="0.001"  d="M 30.000,11.341 L 31.998,11.341 L 31.998,11.710 L 30.000,11.710 L 30.000,11.341 "/>
<path stroke="none" fill="#C9C9B6" stroke-width="0.001" d="M 30.000,11.341 L 30.212,11.140 L 32.210,11.140 L 31.998,11.341 L 30.000,11.341 "/>
<path stroke="#494936" fill="none" stroke-width="0.001"  d="M 30.000,11.341 L 30.212,11.140 L 32.210,11.140 L 31.998,11.341 L 30.000,11.341 "/>
<path stroke="#000000" fill="none" stroke-width="0.106"  d="M 31.887,11.509 L 31.407,11.509 "/>
<path stroke="none" fill="#7A7A5A" stroke-width="0.001" d="M 31.998,11.710 L 32.210,11.497 L 32.210,11.140 L 31.998,11.341 L 31.998,11.710 "/>
<path stroke="#494936" fill="none" stroke-width="0.001"  d="M 31.998,11.710 L 32.210,11.497 L 32.210,11.140 L 31.998,11.341 L 31.998,11.710 "/>
<path stroke="none" fill="#C9C9B6" stroke-width="0.001" d="M 30.011,11.944 L 30.234,11.665 L 31.775,11.665 L 31.552,11.944 L 30.011,11.944 "/>
<path stroke="#494936" fill="none" stroke-width="0.001"  d="M 30.011,11.944 L 30.234,11.665 L 31.775,11.665 L 31.552,11.944 L 30.011,11.944 "/>
<path stroke="none" fill="#7A7A5A" stroke-width="0.001" d="M 31.552,12.000 L 31.775,11.766 L 31.775,11.665 L 31.552,11.944 L 31.552,12.000 "/>
<path stroke="#494936" fill="none" stroke-width="0.001"  d="M 31.552,12.000 L 31.775,11.766 L 31.775,11.665 L 31.552,11.944 L 31.552,12.000 "/>
<path stroke="none" fill="#B7B79D" stroke-width="0.001" d="M 30.011,11.944 L 31.552,11.944 L 31.552,12.000 L 30.011,12.000 L 30.011,11.944 "/>
<path stroke="#494936" fill="none" stroke-width="0.001"  d="M 30.011,11.944 L 31.552,11.944 L 31.552,12.000 L 30.011,12.000 L 30.011,11.944 "/>
<path stroke="none" fill="#000000" stroke-width="0.001" d="M 30.301,11.296 L 30.469,11.140 L 31.887,11.140 L 31.731,11.296 L 30.301,11.296 "/>
<path stroke="#000000" fill="none" stroke-width="0.001"  d="M 30.301,11.296 L 30.469,11.140 L 31.887,11.140 L 31.731,11.296 L 30.301,11.296 "/>
<path stroke="none" fill="#C9C9B6" stroke-width="0.001" d="M 30.290,10.145 L 30.447,10.000 L 31.865,10.000 L 31.708,10.145 L 30.290,10.145 "/>
<path stroke="#494936" fill="none" stroke-width="0.001"  d="M 30.290,10.145 L 30.447,10.000 L 31.865,10.000 L 31.708,10.145 L 30.290,10.145 "/>
<path stroke="none" fill="#B7B79D" stroke-width="0.001" d="M 30.290,10.145 L 31.719,10.145 L 31.719,11.274 L 30.290,11.274 L 30.290,10.145 "/>
<path stroke="#494936" fill="none" stroke-width="0.001"  d="M 30.290,10.145 L 31.719,10.145 L 31.719,11.273 L 30.290,11.273 L 30.290,10.145 "/>
<path stroke="none" fill="#FFFFFF" stroke-width="0.001" d="M 30.413,10.290 L 31.596,10.290 L 31.596,11.162 L 30.413,11.162 L 30.413,10.290 "/>
<path stroke="#494936" fill="none" stroke-width="0.001"  d="M 30.413,10.290 L 31.596,10.290 L 31.596,11.162 L 30.413,11.162 L 30.413,10.290 "/>
<path stroke="none" fill="#7A7A5A" stroke-width="0.001" d="M 31.708,11.263 L 31.865,11.106 L 31.865,10.000 L 31.708,10.145 L 31.708,11.263 "/>
<path stroke="#494936" fill="none" stroke-width="0.001"  d="M 31.708,11.263 L 31.865,11.106 L 31.865,10.000 L 31.708,10.145 L 31.708,11.263 "/>
</svg>