<?xml version="1.0" encoding="UTF-8" standalone="no"?>
<!-- Created by diasvg.py -->
<svg width="21.100cm" height="11.745cm" viewBox="2.000 1.628 23.100 13.372"
 xmlns="http://www.w3.org/2000/svg"
 xmlns:xlink="http://www.w3.org/1999/xlink">
<line x1="19.319" y1="7.000" x2="20.251" y2="4.999" stroke="#000000" stroke-width="0.100" />
<line x1="5.000" y1="8.000" x2="19.000" y2="8.000" stroke="#000000" stroke-width="0.100" />
<line x1="20.498" y1="10.000" x2="19.521" y2="8.631" stroke="#000000" stroke-width="0.100" />
<text x="21.000" y="13.223"  fill="#000000" text-anchor="middle" font-size="0.80" font-family="sans" font-style="normal" font-weight="400">
desktop.mati</text>
<path stroke="none" fill="#0096D4" stroke-width="0.002" d="M 12.000,6.291 L 12.000,9.920 L 14.139,9.920 L 14.139,6.291 L 12.000,6.291 "/>
<path stroke="#AAE6FF" fill="none" stroke-width="0.001"  d="M 12.000,6.291 L 12.000,9.920 L 14.139,9.920 L 14.139,6.291 L 12.000,6.291 "/>
<path stroke="none" fill="#00B4FF" stroke-width="0.001" d="M 12.000,6.291 L 12.291,6.000 L 14.430,6.000 L 14.139,6.291 L 12.000,6.291 "/>
<path stroke="#AAE6FF" fill="none" stroke-width="0.001"  d="M 12.000,6.291 L 12.291,6.000 L 14.430,6.000 L 14.139,6.291 L 12.000,6.291 "/>
<path stroke="none" fill="#2AC0FF" stroke-width="0.001" d="M 12.133,6.503 L 13.110,6.503 L 13.110,6.980 L 12.133,6.980 L 12.133,6.503 "/>
<path stroke="#005A80" fill="none" stroke-width="0.001"  d="M 12.133,6.503 L 13.109,6.503 L 13.109,6.979 L 12.133,6.979 L 12.133,6.503 "/>
<path stroke="#AAE6FF" fill="none" stroke-width="0.030"  d="M 12.291,6.742 L 12.925,6.742 "/>
<path stroke="none" fill="#005A80" stroke-width="0.030" d="M 14.139,9.920 L 14.430,9.630 L 14.430,6.000 L 14.139,6.291 L 14.139,9.920 "/>
<path stroke="#AAE6FF" fill="none" stroke-width="0.001"  d="M 14.139,9.920 L 14.430,9.630 L 14.430,6.000 L 14.139,6.291 L 14.139,9.920 "/>
<path stroke="#AAE6FF" fill="none" stroke-width="0.030"  d="M 12.053,9.682 L 14.113,9.682 "/>
<path stroke="#AAE6FF" fill="none" stroke-width="0.030"  d="M 12.053,7.750 L 14.113,7.750 "/>
<path stroke="#005A80" fill="none" stroke-width="0.030"  d="M 12.027,9.656 L 14.113,9.656 "/>
<path stroke="#005A80" fill="none" stroke-width="0.030"  d="M 12.027,7.722 L 14.113,7.722 "/>
<path stroke="#AAE6FF" fill="none" stroke-width="0.001"  d="M 12.133,6.954 L 12.133,6.503 L 13.083,6.503 "/>
<path stroke="none" fill="#FFFFFF" stroke-width="0.001" d="M 13.163,8.835 L 12.925,8.835 L 12.925,9.099 L 12.766,9.099 L 13.057,9.392 L 13.321,9.099 L 13.163,9.099 L 13.163,8.835 "/>
<path stroke="#003C55" fill="none" stroke-width="0.001"  d="M 13.163,8.835 L 12.925,8.835 L 12.925,9.099 L 12.766,9.099 L 13.057,9.392 L 13.321,9.099 L 13.163,9.099 L 13.163,8.835 "/>
<path stroke="none" fill="#FFFFFF" stroke-width="0.001" d="M 12.925,8.596 L 13.163,8.596 L 13.163,8.278 L 13.321,8.278 L 13.031,7.988 L 12.766,8.278 L 12.925,8.278 L 12.925,8.596 "/>
<path stroke="#003C55" fill="none" stroke-width="0.001"  d="M 12.925,8.596 L 13.163,8.596 L 13.163,8.278 L 13.321,8.278 L 13.031,7.988 L 12.766,8.278 L 12.925,8.278 L 12.925,8.596 "/>
<path stroke="none" fill="#FFFFFF" stroke-width="0.001" d="M 12.133,8.596 L 12.133,8.835 L 12.607,8.835 L 12.607,8.994 L 12.898,8.729 L 12.635,8.437 L 12.635,8.596 L 12.133,8.596 "/>
<path stroke="#003C55" fill="none" stroke-width="0.001"  d="M 12.133,8.596 L 12.133,8.835 L 12.607,8.835 L 12.607,8.994 L 12.898,8.729 L 12.635,8.437 L 12.635,8.596 L 12.133,8.596 "/>
<path stroke="none" fill="#FFFFFF" stroke-width="0.001" d="M 13.955,8.809 L 13.955,8.596 L 13.453,8.596 L 13.453,8.411 L 13.163,8.702 L 13.453,8.994 L 13.453,8.809 L 13.955,8.809 "/>
<path stroke="#003C55" fill="none" stroke-width="0.001"  d="M 13.955,8.809 L 13.955,8.596 L 13.453,8.596 L 13.453,8.411 L 13.163,8.702 L 13.453,8.994 L 13.453,8.809 L 13.955,8.809 "/>
<path stroke="none" fill="#FFE9AA" stroke-width="0.001" d="M 5.877,6.835 L 5.876,6.794 L 5.872,6.752 L 5.865,6.712 L 5.855,6.671 L 5.842,6.630 L 5.827,6.590 L 5.809,6.551 L 5.788,6.512 L 5.766,6.475 L 5.740,6.438 L 5.713,6.402 L 5.682,6.367 L 5.649,6.334 L 5.615,6.302 L 5.578,6.271 L 5.538,6.241 L 5.498,6.213 L 5.456,6.186 L 5.411,6.163 L 5.365,6.139 L 5.317,6.118 L 5.268,6.099 L 5.219,6.081 L 5.167,6.066 L 5.115,6.053 L 5.062,6.041 L 5.009,6.031 L 4.955,6.024 L 4.900,6.019 L 4.845,6.016 L 4.790,6.015 L 4.790,6.015 L 4.735,6.016 L 4.679,6.019 L 4.625,6.024 L 4.571,6.031 L 4.517,6.041 L 4.464,6.053 L 4.412,6.066 L 4.361,6.081 L 4.311,6.099 L 4.262,6.118 L 4.215,6.139 L 4.169,6.163 L 4.124,6.186 L 4.082,6.213 L 4.041,6.241 L 4.001,6.271 L 3.965,6.302 L 3.930,6.334 L 3.897,6.367 L 3.867,6.402 L 3.839,6.438 L 3.814,6.475 L 3.790,6.512 L 3.771,6.551 L 3.752,6.590 L 3.737,6.630 L 3.724,6.671 L 3.716,6.712 L 3.709,6.752 L 3.704,6.794 L 3.703,6.835 L 3.703,6.835 L 3.704,6.876 L 3.709,6.919 L 3.716,6.960 L 3.724,7.001 L 3.737,7.042 L 3.752,7.082 L 3.771,7.120 L 3.790,7.159 L 3.814,7.197 L 3.839,7.233 L 3.867,7.270 L 3.897,7.305 L 3.930,7.337 L 3.965,7.370 L 4.001,7.401 L 4.041,7.431 L 4.082,7.458 L 4.124,7.484 L 4.169,7.510 L 4.215,7.532 L 4.262,7.553 L 4.311,7.573 L 4.361,7.590 L 4.412,7.605 L 4.464,7.619 L 4.517,7.630 L 4.571,7.640 L 4.625,7.646 L 4.679,7.653 L 4.735,7.655 L 4.790,7.656 L 4.790,7.656 L 4.845,7.655 L 4.900,7.653 L 4.955,7.646 L 5.009,7.640 L 5.062,7.630 L 5.115,7.619 L 5.167,7.605 L 5.219,7.590 L 5.268,7.573 L 5.317,7.553 L 5.365,7.532 L 5.411,7.510 L 5.456,7.484 L 5.498,7.458 L 5.538,7.431 L 5.578,7.401 L 5.615,7.370 L 5.649,7.337 L 5.682,7.305 L 5.713,7.270 L 5.740,7.233 L 5.766,7.197 L 5.788,7.159 L 5.809,7.120 L 5.827,7.082 L 5.842,7.042 L 5.855,7.001 L 5.865,6.960 L 5.872,6.919 L 5.876,6.876 L 5.877,6.835 "/>
<path stroke="none" fill="#FFE9AA" stroke-width="0.001" d="M 4.173,7.266 L 4.172,7.225 L 4.168,7.183 L 4.164,7.143 L 4.156,7.101 L 4.146,7.061 L 4.135,7.021 L 4.121,6.982 L 4.105,6.943 L 4.088,6.905 L 4.069,6.868 L 4.047,6.833 L 4.024,6.798 L 3.998,6.765 L 3.972,6.731 L 3.943,6.702 L 3.913,6.672 L 3.883,6.644 L 3.849,6.617 L 3.816,6.593 L 3.780,6.570 L 3.744,6.549 L 3.707,6.530 L 3.668,6.512 L 3.629,6.497 L 3.589,6.484 L 3.548,6.472 L 3.507,6.462 L 3.465,6.456 L 3.424,6.450 L 3.382,6.447 L 3.340,6.445 L 3.340,6.445 L 3.298,6.447 L 3.255,6.450 L 3.213,6.456 L 3.172,6.462 L 3.130,6.472 L 3.090,6.484 L 3.050,6.497 L 3.011,6.512 L 2.973,6.530 L 2.935,6.549 L 2.899,6.570 L 2.864,6.593 L 2.829,6.617 L 2.797,6.644 L 2.766,6.672 L 2.736,6.702 L 2.708,6.731 L 2.680,6.765 L 2.655,6.798 L 2.632,6.833 L 2.611,6.868 L 2.592,6.905 L 2.574,6.943 L 2.558,6.982 L 2.545,7.021 L 2.533,7.061 L 2.523,7.101 L 2.516,7.143 L 2.511,7.183 L 2.507,7.225 L 2.506,7.266 L 2.506,7.266 L 2.507,7.308 L 2.511,7.350 L 2.516,7.391 L 2.523,7.432 L 2.533,7.473 L 2.545,7.511 L 2.558,7.551 L 2.574,7.590 L 2.592,7.628 L 2.611,7.664 L 2.632,7.701 L 2.655,7.736 L 2.680,7.768 L 2.708,7.801 L 2.736,7.832 L 2.766,7.860 L 2.797,7.889 L 2.829,7.915 L 2.864,7.941 L 2.899,7.963 L 2.935,7.984 L 2.973,8.004 L 3.011,8.021 L 3.050,8.036 L 3.090,8.050 L 3.130,8.061 L 3.172,8.071 L 3.213,8.077 L 3.255,8.082 L 3.298,8.086 L 3.340,8.087 L 3.340,8.087 L 3.382,8.086 L 3.424,8.082 L 3.465,8.077 L 3.507,8.071 L 3.548,8.061 L 3.589,8.050 L 3.629,8.036 L 3.668,8.021 L 3.707,8.004 L 3.744,7.984 L 3.780,7.963 L 3.816,7.941 L 3.849,7.915 L 3.883,7.889 L 3.913,7.860 L 3.943,7.832 L 3.972,7.801 L 3.998,7.768 L 4.024,7.736 L 4.047,7.701 L 4.069,7.664 L 4.088,7.628 L 4.105,7.590 L 4.121,7.551 L 4.135,7.511 L 4.146,7.473 L 4.156,7.432 L 4.164,7.391 L 4.168,7.350 L 4.172,7.308 L 4.173,7.266 "/>
<path stroke="none" fill="#FFE9AA" stroke-width="0.001" d="M 3.122,8.103 L 3.122,8.070 L 3.120,8.036 L 3.116,8.003 L 3.111,7.968 L 3.104,7.936 L 3.096,7.903 L 3.088,7.871 L 3.077,7.840 L 3.065,7.809 L 3.052,7.778 L 3.037,7.750 L 3.022,7.721 L 3.005,7.693 L 2.987,7.667 L 2.967,7.642 L 2.947,7.619 L 2.927,7.596 L 2.905,7.574 L 2.882,7.554 L 2.858,7.535 L 2.834,7.518 L 2.808,7.502 L 2.783,7.487 L 2.756,7.475 L 2.729,7.464 L 2.702,7.455 L 2.675,7.447 L 2.646,7.442 L 2.618,7.437 L 2.590,7.435 L 2.561,7.434 L 2.561,7.434 L 2.533,7.435 L 2.504,7.437 L 2.476,7.442 L 2.448,7.447 L 2.420,7.455 L 2.392,7.464 L 2.366,7.475 L 2.340,7.487 L 2.313,7.502 L 2.288,7.518 L 2.264,7.535 L 2.240,7.554 L 2.217,7.574 L 2.195,7.596 L 2.174,7.619 L 2.154,7.642 L 2.135,7.667 L 2.117,7.693 L 2.100,7.721 L 2.084,7.750 L 2.070,7.778 L 2.057,7.809 L 2.045,7.840 L 2.035,7.871 L 2.025,7.903 L 2.017,7.936 L 2.011,7.968 L 2.006,8.003 L 2.002,8.036 L 2.000,8.070 L 2.000,8.103 L 2.000,8.103 L 2.000,8.137 L 2.002,8.172 L 2.006,8.204 L 2.011,8.238 L 2.017,8.272 L 2.025,8.304 L 2.035,8.336 L 2.045,8.367 L 2.057,8.399 L 2.070,8.429 L 2.084,8.457 L 2.100,8.486 L 2.117,8.513 L 2.135,8.539 L 2.154,8.565 L 2.174,8.589 L 2.195,8.612 L 2.217,8.633 L 2.240,8.653 L 2.264,8.672 L 2.288,8.689 L 2.313,8.705 L 2.340,8.719 L 2.366,8.731 L 2.392,8.743 L 2.420,8.752 L 2.448,8.760 L 2.476,8.766 L 2.504,8.769 L 2.533,8.772 L 2.561,8.773 L 2.561,8.773 L 2.590,8.772 L 2.618,8.769 L 2.646,8.766 L 2.675,8.760 L 2.702,8.752 L 2.729,8.743 L 2.756,8.731 L 2.783,8.719 L 2.808,8.705 L 2.834,8.689 L 2.858,8.672 L 2.882,8.653 L 2.905,8.633 L 2.927,8.612 L 2.947,8.589 L 2.967,8.565 L 2.987,8.539 L 3.005,8.513 L 3.022,8.486 L 3.037,8.457 L 3.052,8.429 L 3.065,8.399 L 3.077,8.367 L 3.088,8.336 L 3.096,8.304 L 3.104,8.272 L 3.111,8.238 L 3.116,8.204 L 3.120,8.172 L 3.122,8.137 L 3.122,8.103 "/>
<path stroke="none" fill="#FFE9AA" stroke-width="0.001" d="M 4.028,8.748 L 4.028,8.712 L 4.024,8.675 L 4.018,8.639 L 4.011,8.603 L 4.001,8.567 L 3.990,8.531 L 3.975,8.497 L 3.960,8.463 L 3.942,8.430 L 3.922,8.398 L 3.900,8.366 L 3.877,8.336 L 3.852,8.304 L 3.825,8.276 L 3.796,8.249 L 3.766,8.223 L 3.734,8.199 L 3.700,8.176 L 3.666,8.154 L 3.631,8.134 L 3.593,8.116 L 3.555,8.098 L 3.516,8.082 L 3.477,8.069 L 3.436,8.058 L 3.395,8.048 L 3.353,8.039 L 3.311,8.032 L 3.269,8.027 L 3.226,8.025 L 3.183,8.024 L 3.183,8.024 L 3.140,8.025 L 3.098,8.027 L 3.055,8.032 L 3.013,8.039 L 2.971,8.048 L 2.930,8.058 L 2.889,8.069 L 2.849,8.082 L 2.810,8.098 L 2.773,8.116 L 2.736,8.134 L 2.700,8.154 L 2.665,8.176 L 2.632,8.199 L 2.600,8.223 L 2.570,8.249 L 2.541,8.276 L 2.514,8.304 L 2.489,8.336 L 2.466,8.366 L 2.443,8.398 L 2.423,8.430 L 2.406,8.463 L 2.390,8.497 L 2.376,8.531 L 2.364,8.567 L 2.355,8.603 L 2.347,8.639 L 2.342,8.675 L 2.338,8.712 L 2.337,8.748 L 2.337,8.748 L 2.338,8.785 L 2.342,8.822 L 2.347,8.859 L 2.355,8.896 L 2.364,8.931 L 2.376,8.965 L 2.390,9.001 L 2.406,9.035 L 2.423,9.068 L 2.443,9.101 L 2.466,9.133 L 2.489,9.163 L 2.514,9.194 L 2.541,9.223 L 2.570,9.249 L 2.600,9.274 L 2.632,9.300 L 2.665,9.323 L 2.700,9.345 L 2.736,9.365 L 2.773,9.383 L 2.810,9.401 L 2.849,9.415 L 2.889,9.429 L 2.930,9.441 L 2.971,9.451 L 3.013,9.459 L 3.055,9.467 L 3.098,9.470 L 3.140,9.474 L 3.183,9.474 L 3.183,9.474 L 3.226,9.474 L 3.269,9.470 L 3.311,9.467 L 3.353,9.459 L 3.395,9.451 L 3.436,9.441 L 3.477,9.429 L 3.516,9.415 L 3.555,9.401 L 3.593,9.383 L 3.631,9.365 L 3.666,9.345 L 3.700,9.323 L 3.734,9.300 L 3.766,9.274 L 3.796,9.249 L 3.825,9.222 L 3.852,9.192 L 3.877,9.163 L 3.900,9.133 L 3.922,9.101 L 3.942,9.068 L 3.960,9.035 L 3.975,9.001 L 3.990,8.965 L 4.001,8.931 L 4.011,8.896 L 4.018,8.859 L 4.024,8.822 L 4.028,8.785 L 4.028,8.748 "/>
<path stroke="none" fill="#FFE9AA" stroke-width="0.001" d="M 6.058,9.124 L 6.056,9.080 L 6.052,9.036 L 6.043,8.993 L 6.032,8.951 L 6.017,8.907 L 6.000,8.866 L 5.980,8.825 L 5.956,8.784 L 5.929,8.744 L 5.899,8.706 L 5.866,8.669 L 5.832,8.631 L 5.794,8.597 L 5.754,8.563 L 5.710,8.530 L 5.666,8.499 L 5.618,8.471 L 5.568,8.443 L 5.517,8.417 L 5.463,8.393 L 5.408,8.371 L 5.352,8.350 L 5.294,8.332 L 5.234,8.317 L 5.173,8.302 L 5.112,8.290 L 5.050,8.280 L 4.986,8.272 L 4.924,8.267 L 4.859,8.263 L 4.796,8.263 L 4.796,8.263 L 4.732,8.263 L 4.668,8.267 L 4.604,8.272 L 4.542,8.280 L 4.479,8.290 L 4.418,8.302 L 4.357,8.317 L 4.298,8.332 L 4.239,8.350 L 4.183,8.371 L 4.128,8.393 L 4.074,8.417 L 4.023,8.443 L 3.974,8.471 L 3.926,8.499 L 3.881,8.530 L 3.838,8.563 L 3.798,8.597 L 3.759,8.631 L 3.724,8.669 L 3.692,8.706 L 3.663,8.744 L 3.636,8.784 L 3.612,8.825 L 3.592,8.866 L 3.574,8.907 L 3.560,8.951 L 3.548,8.993 L 3.540,9.036 L 3.535,9.080 L 3.533,9.124 L 3.533,9.124 L 3.535,9.166 L 3.540,9.211 L 3.548,9.254 L 3.560,9.297 L 3.574,9.340 L 3.592,9.382 L 3.612,9.422 L 3.636,9.463 L 3.663,9.503 L 3.692,9.541 L 3.724,9.578 L 3.759,9.615 L 3.798,9.650 L 3.838,9.684 L 3.881,9.717 L 3.926,9.747 L 3.974,9.777 L 4.023,9.805 L 4.074,9.830 L 4.128,9.854 L 4.183,9.877 L 4.239,9.896 L 4.298,9.914 L 4.357,9.931 L 4.418,9.946 L 4.479,9.957 L 4.542,9.967 L 4.604,9.975 L 4.668,9.980 L 4.732,9.984 L 4.796,9.985 L 4.796,9.985 L 4.859,9.984 L 4.924,9.980 L 4.986,9.975 L 5.050,9.967 L 5.112,9.957 L 5.173,9.946 L 5.234,9.931 L 5.294,9.914 L 5.352,9.896 L 5.408,9.877 L 5.463,9.854 L 5.517,9.830 L 5.568,9.805 L 5.618,9.777 L 5.666,9.747 L 5.710,9.717 L 5.754,9.684 L 5.794,9.650 L 5.832,9.615 L 5.866,9.578 L 5.899,9.541 L 5.929,9.503 L 5.956,9.463 L 5.980,9.422 L 6.000,9.382 L 6.017,9.340 L 6.032,9.297 L 6.043,9.254 L 6.052,9.211 L 6.056,9.166 L 6.058,9.124 "/>
<path stroke="none" fill="#FFE9AA" stroke-width="0.001" d="M 6.759,7.138 L 6.758,7.106 L 6.755,7.074 L 6.749,7.041 L 6.742,7.009 L 6.733,6.977 L 6.722,6.946 L 6.708,6.915 L 6.693,6.884 L 6.676,6.855 L 6.657,6.825 L 6.636,6.797 L 6.613,6.770 L 6.590,6.744 L 6.563,6.718 L 6.536,6.694 L 6.506,6.671 L 6.476,6.648 L 6.445,6.628 L 6.411,6.608 L 6.377,6.590 L 6.342,6.574 L 6.305,6.559 L 6.268,6.545 L 6.230,6.533 L 6.191,6.522 L 6.152,6.513 L 6.112,6.506 L 6.072,6.500 L 6.031,6.496 L 5.990,6.494 L 5.949,6.493 L 5.949,6.493 L 5.908,6.494 L 5.867,6.496 L 5.826,6.500 L 5.786,6.506 L 5.746,6.513 L 5.707,6.522 L 5.668,6.533 L 5.630,6.545 L 5.592,6.559 L 5.556,6.574 L 5.520,6.590 L 5.487,6.608 L 5.453,6.628 L 5.422,6.648 L 5.392,6.671 L 5.362,6.694 L 5.335,6.718 L 5.308,6.744 L 5.284,6.770 L 5.262,6.797 L 5.241,6.825 L 5.222,6.855 L 5.205,6.884 L 5.190,6.915 L 5.176,6.946 L 5.165,6.977 L 5.156,7.009 L 5.149,7.041 L 5.144,7.074 L 5.141,7.106 L 5.139,7.138 L 5.139,7.138 L 5.141,7.171 L 5.144,7.203 L 5.149,7.236 L 5.156,7.268 L 5.165,7.301 L 5.176,7.332 L 5.190,7.363 L 5.205,7.392 L 5.222,7.424 L 5.241,7.452 L 5.262,7.479 L 5.284,7.508 L 5.308,7.533 L 5.335,7.559 L 5.362,7.583 L 5.392,7.606 L 5.422,7.628 L 5.453,7.649 L 5.487,7.669 L 5.520,7.687 L 5.556,7.704 L 5.592,7.719 L 5.630,7.732 L 5.668,7.744 L 5.707,7.755 L 5.746,7.764 L 5.786,7.771 L 5.826,7.778 L 5.867,7.781 L 5.908,7.783 L 5.949,7.785 L 5.949,7.785 L 5.990,7.783 L 6.031,7.781 L 6.072,7.778 L 6.112,7.771 L 6.152,7.764 L 6.191,7.755 L 6.230,7.744 L 6.268,7.732 L 6.305,7.719 L 6.342,7.704 L 6.377,7.687 L 6.411,7.669 L 6.445,7.649 L 6.476,7.628 L 6.506,7.606 L 6.536,7.583 L 6.563,7.559 L 6.590,7.533 L 6.613,7.508 L 6.636,7.479 L 6.657,7.452 L 6.676,7.424 L 6.693,7.392 L 6.708,7.363 L 6.722,7.332 L 6.733,7.301 L 6.742,7.268 L 6.749,7.236 L 6.755,7.203 L 6.758,7.171 L 6.759,7.138 "/>
<path stroke="none" fill="#FFE9AA" stroke-width="0.001" d="M 6.988,7.968 L 6.986,7.936 L 6.984,7.903 L 6.979,7.870 L 6.972,7.838 L 6.962,7.805 L 6.951,7.774 L 6.938,7.744 L 6.923,7.714 L 6.906,7.683 L 6.887,7.655 L 6.866,7.627 L 6.844,7.600 L 6.820,7.574 L 6.794,7.547 L 6.767,7.524 L 6.739,7.500 L 6.708,7.478 L 6.676,7.458 L 6.644,7.438 L 6.610,7.420 L 6.575,7.404 L 6.539,7.388 L 6.502,7.375 L 6.464,7.363 L 6.425,7.352 L 6.386,7.343 L 6.347,7.336 L 6.306,7.329 L 6.266,7.326 L 6.225,7.324 L 6.185,7.323 L 6.185,7.323 L 6.144,7.324 L 6.104,7.326 L 6.063,7.329 L 6.023,7.336 L 5.984,7.343 L 5.944,7.352 L 5.906,7.363 L 5.869,7.375 L 5.831,7.388 L 5.795,7.404 L 5.760,7.420 L 5.726,7.438 L 5.693,7.458 L 5.662,7.478 L 5.632,7.500 L 5.602,7.524 L 5.575,7.547 L 5.550,7.574 L 5.526,7.600 L 5.504,7.627 L 5.483,7.655 L 5.464,7.683 L 5.447,7.714 L 5.432,7.744 L 5.419,7.774 L 5.407,7.805 L 5.398,7.838 L 5.391,7.870 L 5.386,7.903 L 5.382,7.936 L 5.382,7.968 L 5.382,7.968 L 5.382,8.000 L 5.386,8.032 L 5.391,8.066 L 5.398,8.098 L 5.407,8.130 L 5.419,8.161 L 5.432,8.193 L 5.447,8.222 L 5.464,8.252 L 5.483,8.281 L 5.504,8.309 L 5.526,8.336 L 5.550,8.362 L 5.575,8.389 L 5.602,8.412 L 5.632,8.435 L 5.662,8.457 L 5.693,8.477 L 5.726,8.497 L 5.760,8.516 L 5.795,8.531 L 5.831,8.547 L 5.869,8.561 L 5.906,8.572 L 5.944,8.584 L 5.984,8.592 L 6.023,8.600 L 6.063,8.606 L 6.104,8.610 L 6.144,8.612 L 6.185,8.613 L 6.185,8.613 L 6.225,8.612 L 6.266,8.610 L 6.306,8.606 L 6.347,8.600 L 6.386,8.592 L 6.425,8.584 L 6.464,8.572 L 6.502,8.561 L 6.539,8.547 L 6.575,8.531 L 6.610,8.516 L 6.644,8.497 L 6.676,8.477 L 6.708,8.457 L 6.739,8.435 L 6.767,8.412 L 6.794,8.389 L 6.820,8.362 L 6.844,8.336 L 6.866,8.309 L 6.887,8.281 L 6.906,8.252 L 6.923,8.222 L 6.938,8.193 L 6.951,8.161 L 6.962,8.130 L 6.972,8.098 L 6.979,8.066 L 6.984,8.032 L 6.986,8.000 L 6.988,7.968 "/>
<path stroke="none" fill="#FFE9AA" stroke-width="0.001" d="M 6.831,8.653 L 6.830,8.600 L 6.827,8.547 L 6.822,8.494 L 6.815,8.440 L 6.806,8.388 L 6.795,8.336 L 6.782,8.286 L 6.766,8.235 L 6.749,8.187 L 6.731,8.140 L 6.711,8.093 L 6.688,8.048 L 6.664,8.005 L 6.638,7.963 L 6.611,7.923 L 6.583,7.886 L 6.553,7.849 L 6.522,7.816 L 6.489,7.783 L 6.455,7.754 L 6.421,7.728 L 6.386,7.703 L 6.349,7.680 L 6.311,7.659 L 6.272,7.642 L 6.234,7.628 L 6.194,7.615 L 6.154,7.606 L 6.115,7.600 L 6.075,7.596 L 6.034,7.594 L 6.034,7.594 L 5.994,7.596 L 5.954,7.600 L 5.913,7.606 L 5.873,7.615 L 5.834,7.628 L 5.795,7.642 L 5.757,7.659 L 5.720,7.680 L 5.683,7.703 L 5.647,7.728 L 5.612,7.754 L 5.578,7.783 L 5.546,7.816 L 5.515,7.849 L 5.485,7.886 L 5.456,7.923 L 5.429,7.963 L 5.404,8.005 L 5.379,8.048 L 5.358,8.093 L 5.337,8.140 L 5.318,8.187 L 5.301,8.235 L 5.287,8.286 L 5.274,8.336 L 5.262,8.388 L 5.253,8.440 L 5.246,8.494 L 5.241,8.547 L 5.237,8.600 L 5.236,8.653 L 5.236,8.653 L 5.237,8.707 L 5.241,8.761 L 5.246,8.814 L 5.253,8.867 L 5.262,8.920 L 5.274,8.970 L 5.287,9.021 L 5.301,9.071 L 5.318,9.120 L 5.337,9.169 L 5.358,9.215 L 5.379,9.259 L 5.404,9.302 L 5.429,9.343 L 5.456,9.383 L 5.485,9.422 L 5.515,9.459 L 5.546,9.492 L 5.578,9.523 L 5.612,9.553 L 5.647,9.581 L 5.683,9.605 L 5.720,9.628 L 5.757,9.648 L 5.795,9.665 L 5.834,9.680 L 5.873,9.692 L 5.913,9.701 L 5.954,9.708 L 5.994,9.713 L 6.034,9.714 L 6.034,9.714 L 6.075,9.713 L 6.115,9.708 L 6.154,9.701 L 6.194,9.692 L 6.234,9.680 L 6.272,9.665 L 6.311,9.648 L 6.349,9.628 L 6.386,9.605 L 6.421,9.581 L 6.455,9.553 L 6.489,9.523 L 6.522,9.492 L 6.553,9.459 L 6.583,9.422 L 6.611,9.383 L 6.638,9.343 L 6.664,9.302 L 6.688,9.222 L 6.711,9.215 L 6.731,9.169 L 6.749,9.120 L 6.766,9.071 L 6.782,9.021 L 6.795,8.970 L 6.806,8.920 L 6.815,8.867 L 6.822,8.814 L 6.827,8.761 L 6.830,8.707 L 6.831,8.653 "/>
<path stroke="none" fill="#FFE9AA" stroke-width="0.001" d="M 6.142,8.016 L 6.140,7.962 L 6.134,7.908 L 6.124,7.855 L 6.109,7.802 L 6.091,7.750 L 6.068,7.699 L 6.042,7.647 L 6.011,7.597 L 5.977,7.548 L 5.939,7.501 L 5.897,7.455 L 5.852,7.410 L 5.804,7.366 L 5.752,7.324 L 5.696,7.284 L 5.639,7.247 L 5.578,7.210 L 5.514,7.178 L 5.448,7.145 L 5.380,7.115 L 5.309,7.088 L 5.236,7.064 L 5.162,7.041 L 5.086,7.021 L 5.008,7.003 L 4.929,6.988 L 4.850,6.977 L 4.769,6.966 L 4.688,6.961 L 4.606,6.956 L 4.523,6.956 L 4.523,6.956 L 4.442,6.956 L 4.360,6.961 L 4.279,6.966 L 4.197,6.977 L 4.118,6.988 L 4.039,7.003 L 3.961,7.021 L 3.886,7.041 L 3.810,7.064 L 3.739,7.088 L 3.668,7.115 L 3.599,7.145 L 3.533,7.178 L 3.470,7.210 L 3.408,7.247 L 3.350,7.284 L 3.296,7.324 L 3.244,7.366 L 3.195,7.410 L 3.150,7.455 L 3.108,7.501 L 3.071,7.548 L 3.037,7.597 L 3.005,7.647 L 2.979,7.699 L 2.957,7.750 L 2.938,7.802 L 2.924,7.855 L 2.913,7.908 L 2.907,7.962 L 2.905,8.016 L 2.905,8.016 L 2.907,8.069 L 2.913,8.122 L 2.924,8.176 L 2.938,8.229 L 2.957,8.281 L 2.979,8.332 L 3.005,8.383 L 3.037,8.434 L 3.071,8.483 L 3.108,8.530 L 3.150,8.576 L 3.195,8.621 L 3.244,8.664 L 3.296,8.706 L 3.350,8.746 L 3.408,8.784 L 3.470,8.820 L 3.533,8.853 L 3.599,8.886 L 3.668,8.915 L 3.739,8.942 L 3.810,8.967 L 3.886,8.989 L 3.961,9.010 L 4.039,9.027 L 4.118,9.042 L 4.197,9.053 L 4.279,9.063 L 4.360,9.070 L 4.442,9.074 L 4.523,9.075 L 4.523,9.075 L 4.606,9.074 L 4.688,9.070 L 4.769,9.063 L 4.850,9.053 L 4.929,9.042 L 5.008,9.027 L 5.086,9.010 L 5.162,8.989 L 5.236,8.967 L 5.309,8.942 L 5.380,8.915 L 5.448,8.886 L 5.514,8.853 L 5.578,8.820 L 5.639,8.784 L 5.696,8.746 L 5.752,8.706 L 5.804,8.664 L 5.852,8.621 L 5.897,8.576 L 5.939,8.530 L 5.977,8.483 L 6.011,8.434 L 6.042,8.383 L 6.068,8.332 L 6.091,8.281 L 6.109,8.229 L 6.124,8.176 L 6.134,8.122 L 6.140,8.069 L 6.142,8.016 "/>
<path stroke="none" fill="#FFE9AA" stroke-width="0.001" d="M 4.802,6.829 L 5.873,6.645 L 5.860,6.604 L 5.843,6.565 L 5.825,6.525 L 5.803,6.486 L 5.779,6.448 L 5.752,6.412 L 5.723,6.376 L 5.691,6.342 L 5.658,6.308 L 5.622,6.276 L 5.584,6.246 L 5.544,6.218 L 5.502,6.190 L 5.458,6.163 L 5.412,6.139 L 5.365,6.118 L 5.317,6.096 L 5.267,6.078 L 5.216,6.062 L 5.165,6.046 L 5.111,6.033 L 5.058,6.022 L 5.003,6.013 L 4.949,6.007 L 4.894,6.003 L 4.838,6.000 L 4.783,6.000 L 4.727,6.001 L 4.671,6.005 L 4.617,6.012 L 4.562,6.019 L 4.508,6.030 L 4.455,6.041 L 4.402,6.057 L 4.351,6.073 L 4.301,6.091 L 4.252,6.111 L 4.204,6.132 L 4.159,6.157 L 4.115,6.181 L 4.072,6.208 L 4.032,6.237 L 3.993,6.267 L 3.957,6.299 L 3.922,6.331 L 3.890,6.366 L 3.860,6.401 L 3.832,6.438 L 3.808,6.475 L 3.785,6.513 L 3.765,6.553 L 3.748,6.593 L 3.734,6.633 L 3.722,6.674 L 4.802,6.829 "/>
<path stroke="#805D00" fill="none" stroke-width="0.001"  d="M 5.873,6.644 L 5.859,6.603 L 5.843,6.563 L 5.824,6.524 L 5.803,6.485 L 5.778,6.448 L 5.751,6.411 L 5.722,6.376 L 5.690,6.340 L 5.656,6.308 L 5.622,6.276 L 5.583,6.245 L 5.544,6.216 L 5.501,6.189 L 5.457,6.163 L 5.412,6.139 L 5.365,6.117 L 5.317,6.096 L 5.267,6.077 L 5.216,6.059 L 5.165,6.045 L 5.111,6.033 L 5.057,6.022 L 5.003,6.013 L 4.948,6.007 L 4.894,6.003 L 4.837,6.000 L 4.782,6.000 L 4.727,6.001 L 4.672,6.005 L 4.616,6.012 L 4.562,6.019 L 4.508,6.030 L 4.455,6.041 L 4.403,6.057 L 4.351,6.073 L 4.302,6.091 L 4.253,6.111 L 4.206,6.131 L 4.159,6.155 L 4.116,6.181 L 4.073,6.208 L 4.032,6.236 L 3.994,6.267 L 3.957,6.298 L 3.922,6.331 L 3.890,6.366 L 3.861,6.400 L 3.833,6.436 L 3.808,6.475 L 3.785,6.512 L 3.766,6.551 L 3.748,6.591 L 3.734,6.631 L 3.723,6.672 "/>
<path stroke="none" fill="#FFE9AA" stroke-width="0.001" d="M 3.345,7.259 L 3.886,6.623 L 3.852,6.598 L 3.817,6.572 L 3.781,6.549 L 3.744,6.530 L 3.707,6.510 L 3.668,6.493 L 3.628,6.477 L 3.588,6.465 L 3.547,6.453 L 3.506,6.444 L 3.463,6.438 L 3.421,6.433 L 3.379,6.430 L 3.337,6.430 L 3.294,6.430 L 3.252,6.435 L 3.209,6.440 L 3.168,6.448 L 3.127,6.458 L 3.086,6.471 L 3.045,6.485 L 3.006,6.500 L 2.967,6.518 L 2.930,6.538 L 2.894,6.560 L 2.859,6.583 L 2.824,6.608 L 2.792,6.635 L 2.761,6.663 L 2.731,6.694 L 2.703,6.726 L 2.677,6.757 L 2.652,6.792 L 2.629,6.828 L 2.607,6.864 L 2.588,6.901 L 2.571,6.939 L 2.555,6.979 L 2.542,7.019 L 2.531,7.059 L 2.522,7.100 L 2.515,7.141 L 2.509,7.183 L 2.507,7.225 L 2.506,7.266 L 2.508,7.309 L 2.511,7.351 L 2.518,7.392 L 3.345,7.259 "/>
<path stroke="#805D00" fill="none" stroke-width="0.001"  d="M 3.883,6.621 L 3.849,6.595 L 3.815,6.571 L 3.779,6.549 L 3.742,6.528 L 3.704,6.509 L 3.665,6.493 L 3.626,6.477 L 3.585,6.464 L 3.544,6.453 L 3.502,6.444 L 3.461,6.438 L 3.419,6.433 L 3.377,6.430 L 3.333,6.430 L 3.292,6.431 L 3.250,6.435 L 3.207,6.440 L 3.166,6.448 L 3.125,6.459 L 3.083,6.472 L 3.044,6.485 L 3.005,6.502 L 2.966,6.520 L 2.928,6.539 L 2.892,6.562 L 2.858,6.585 L 2.824,6.610 L 2.791,6.636 L 2.760,6.665 L 2.731,6.695 L 2.702,6.726 L 2.676,6.760 L 2.651,6.793 L 2.628,6.829 L 2.607,6.866 L 2.588,6.902 L 2.571,6.941 L 2.555,6.980 L 2.542,7.020 L 2.531,7.060 L 2.521,7.101 L 2.515,7.143 L 2.509,7.184 L 2.507,7.225 L 2.506,7.268 L 2.509,7.310 L 2.512,7.351 L 2.518,7.392 "/>
<path stroke="none" fill="#FFE9AA" stroke-width="0.001" d="M 3.195,8.741 L 2.325,8.719 L 2.325,8.756 L 2.327,8.793 L 2.331,8.832 L 2.338,8.869 L 2.346,8.906 L 2.357,8.942 L 2.370,8.978 L 2.384,9.014 L 2.402,9.047 L 2.421,9.082 L 2.441,9.116 L 2.465,9.147 L 2.489,9.179 L 2.516,9.209 L 2.544,9.237 L 2.573,9.265 L 2.605,9.291 L 2.638,9.315 L 2.672,9.340 L 2.708,9.361 L 2.744,9.382 L 2.783,9.401 L 2.822,9.417 L 2.861,9.433 L 2.902,9.446 L 2.944,9.458 L 2.986,9.468 L 3.029,9.476 L 3.071,9.483 L 3.115,9.487 L 3.159,9.490 L 3.203,9.490 L 3.246,9.488 L 3.290,9.486 L 3.333,9.481 L 3.376,9.474 L 3.419,9.465 L 3.460,9.454 L 3.502,9.442 L 3.542,9.428 L 3.582,9.411 L 3.621,9.394 L 3.658,9.375 L 3.695,9.354 L 3.729,9.332 L 3.763,9.307 L 3.195,8.741 "/>
<path stroke="#805D00" fill="none" stroke-width="0.001"  d="M 2.326,8.719 L 2.325,8.756 L 2.328,8.793 L 2.331,8.830 L 2.338,8.868 L 2.346,8.905 L 2.357,8.942 L 2.370,8.978 L 2.385,9.013 L 2.402,9.047 L 2.420,9.081 L 2.441,9.115 L 2.463,9.147 L 2.489,9.178 L 2.515,9.208 L 2.543,9.237 L 2.572,9.264 L 2.604,9.290 L 2.636,9.315 L 2.670,9.338 L 2.706,9.360 L 2.743,9.381 L 2.780,9.399 L 2.819,9.416 L 2.860,9.432 L 2.900,9.446 L 2.941,9.457 L 2.983,9.468 L 3.026,9.475 L 3.069,9.483 L 3.112,9.486 L 3.156,9.490 L 3.200,9.490 L 3.243,9.488 L 3.286,9.486 L 3.330,9.481 L 3.372,9.474 L 3.416,9.465 L 3.457,9.455 L 3.499,9.442 L 3.539,9.428 L 3.578,9.413 L 3.617,9.396 L 3.654,9.376 L 3.692,9.356 L 3.727,9.333 L 3.760,9.310 "/>
<path stroke="none" fill="#FFE9AA" stroke-width="0.001" d="M 5.961,7.123 L 6.726,7.333 L 6.739,7.302 L 6.749,7.270 L 6.758,7.238 L 6.763,7.206 L 6.769,7.174 L 6.770,7.141 L 6.770,7.107 L 6.769,7.075 L 6.765,7.043 L 6.759,7.011 L 6.750,6.978 L 6.740,6.947 L 6.728,6.916 L 6.714,6.884 L 6.697,6.855 L 6.679,6.825 L 6.658,6.797 L 6.637,6.768 L 6.614,6.742 L 6.589,6.715 L 6.563,6.690 L 6.533,6.667 L 6.504,6.644 L 6.472,6.623 L 6.440,6.603 L 6.407,6.585 L 6.372,6.567 L 6.336,6.551 L 6.299,6.536 L 6.261,6.524 L 6.222,6.512 L 6.184,6.503 L 6.143,6.494 L 6.103,6.488 L 6.062,6.483 L 6.021,6.480 L 5.981,6.477 L 5.940,6.479 L 5.899,6.480 L 5.858,6.484 L 5.818,6.489 L 5.777,6.495 L 5.737,6.503 L 5.697,6.513 L 5.961,7.123 "/>
<path stroke="#805D00" fill="none" stroke-width="0.001"  d="M 6.656,7.451 L 6.726,7.334 L 6.739,7.302 L 6.749,7.272 L 6.757,7.239 L 6.763,7.207 L 6.768,7.175 L 6.769,7.143 L 6.770,7.109 L 6.768,7.076 L 6.765,7.043 L 6.759,7.011 L 6.750,6.980 L 6.740,6.948 L 6.728,6.916 L 6.714,6.885 L 6.697,6.856 L 6.679,6.826 L 6.660,6.797 L 6.638,6.770 L 6.615,6.743 L 6.590,6.716 L 6.563,6.692 L 6.535,6.669 L 6.505,6.645 L 6.474,6.624 L 6.441,6.603 L 6.408,6.585 L 6.373,6.567 L 6.337,6.552 L 6.300,6.538 L 6.263,6.525 L 6.224,6.512 L 6.185,6.503 L 6.146,6.494 L 6.106,6.488 L 6.065,6.484 L 6.024,6.480 L 5.983,6.477 L 5.941,6.477 L 5.900,6.480 L 5.859,6.484 L 5.819,6.488 L 5.779,6.494 L 5.739,6.503 L 5.700,6.512 "/>
<path stroke="none" fill="#FFE9AA" stroke-width="0.001" d="M 6.070,7.976 L 6.931,8.241 L 6.949,8.207 L 6.963,8.172 L 6.976,8.136 L 6.986,8.100 L 6.993,8.063 L 6.998,8.027 L 6.999,7.989 L 6.999,7.953 L 6.996,7.916 L 6.991,7.878 L 6.983,7.842 L 6.972,7.807 L 6.959,7.771 L 6.944,7.736 L 6.926,7.701 L 6.905,7.668 L 6.883,7.636 L 6.858,7.603 L 6.831,7.573 L 6.070,7.976 "/>
<path stroke="#805D00" fill="none" stroke-width="0.001"  d="M 6.822,8.362 L 6.930,8.243 L 6.946,8.209 L 6.963,8.172 L 6.975,8.137 L 6.985,8.100 L 6.992,8.063 L 6.998,8.027 L 7.000,7.989 L 6.999,7.953 L 6.996,7.915 L 6.990,7.878 L 6.983,7.841 L 6.972,7.805 L 6.959,7.770 L 6.944,7.735 L 6.925,7.700 L 6.905,7.667 L 6.881,7.633 L 6.857,7.601 L 6.829,7.570 L 6.656,7.451 "/>
<path stroke="none" fill="#FFE9AA" stroke-width="0.001" d="M 6.034,8.677 L 5.762,9.684 L 5.802,9.700 L 5.843,9.714 L 5.883,9.726 L 5.925,9.735 L 5.967,9.741 L 6.008,9.744 L 6.050,9.745 L 6.092,9.741 L 6.133,9.737 L 6.175,9.728 L 6.216,9.718 L 6.256,9.705 L 6.296,9.688 L 6.336,9.669 L 6.374,9.648 L 6.412,9.624 L 6.448,9.599 L 6.484,9.569 L 6.519,9.538 L 6.552,9.505 L 6.583,9.470 L 6.613,9.433 L 6.643,9.393 L 6.670,9.351 L 6.695,9.309 L 6.719,9.264 L 6.742,9.219 L 6.762,9.170 L 6.780,9.122 L 6.796,9.071 L 6.811,9.020 L 6.824,8.969 L 6.834,8.916 L 6.842,8.862 L 6.848,8.809 L 6.853,8.755 L 6.854,8.701 L 6.854,8.646 L 6.852,8.592 L 6.847,8.538 L 6.841,8.484 L 6.833,8.431 L 6.822,8.378 L 6.034,8.677 "/>
<path stroke="#805D00" fill="none" stroke-width="0.001"  d="M 5.764,9.686 L 5.805,9.701 L 5.845,9.716 L 5.886,9.727 L 5.927,9.736 L 5.969,9.741 L 6.010,9.745 L 6.052,9.745 L 6.094,9.741 L 6.136,9.737 L 6.177,9.728 L 6.218,9.718 L 6.258,9.704 L 6.298,9.687 L 6.337,9.668 L 6.376,9.647 L 6.414,9.623 L 6.450,9.597 L 6.485,9.569 L 6.520,9.537 L 6.553,9.504 L 6.584,9.468 L 6.615,9.431 L 6.644,9.392 L 6.671,9.351 L 6.697,9.306 L 6.720,9.263 L 6.742,9.215 L 6.762,9.169 L 6.780,9.120 L 6.796,9.070 L 6.811,9.018 L 6.824,8.965 L 6.834,8.914 L 6.842,8.861 L 6.849,8.807 L 6.853,8.753 L 6.854,8.698 L 6.854,8.644 L 6.851,8.590 L 6.847,8.535 L 6.840,8.481 L 6.831,8.428 L 6.822,8.376 "/>
<path stroke="none" fill="#FFE9AA" stroke-width="0.001" d="M 2.591,8.103 L 2.549,7.420 L 2.519,7.424 L 2.490,7.428 L 2.460,7.435 L 2.431,7.443 L 2.402,7.455 L 2.374,7.466 L 2.346,7.479 L 2.319,7.495 L 2.292,7.511 L 2.267,7.529 L 2.242,7.551 L 2.218,7.572 L 2.195,7.595 L 2.174,7.619 L 2.153,7.644 L 2.133,7.670 L 2.115,7.697 L 2.098,7.727 L 2.081,7.755 L 2.067,7.786 L 2.054,7.818 L 2.042,7.850 L 2.031,7.882 L 2.022,7.916 L 2.015,7.950 L 2.009,7.984 L 2.004,8.018 L 2.002,8.053 L 2.000,8.088 L 2.000,8.122 L 2.002,8.158 L 2.005,8.193 L 2.010,8.227 L 2.015,8.262 L 2.023,8.295 L 2.032,8.328 L 2.043,8.362 L 2.055,8.393 L 2.068,8.424 L 2.083,8.455 L 2.100,8.484 L 2.116,8.512 L 2.135,8.539 L 2.155,8.566 L 2.176,8.592 L 2.198,8.616 L 2.221,8.638 L 2.245,8.658 L 2.271,8.679 L 2.296,8.698 L 2.323,8.714 L 2.591,8.103 "/>
<path stroke="#805D00" fill="none" stroke-width="0.001"  d="M 2.549,7.420 L 2.521,7.424 L 2.491,7.428 L 2.462,7.435 L 2.434,7.443 L 2.405,7.453 L 2.377,7.464 L 2.350,7.478 L 2.323,7.492 L 2.297,7.509 L 2.272,7.527 L 2.247,7.546 L 2.224,7.567 L 2.201,7.588 L 2.179,7.612 L 2.158,7.637 L 2.139,7.662 L 2.120,7.689 L 2.103,7.717 L 2.087,7.746 L 2.073,7.775 L 2.059,7.805 L 2.046,7.836 L 2.035,7.868 L 2.025,7.900 L 2.017,7.934 L 2.011,7.968 L 2.005,8.001 L 2.002,8.035 L 2.000,8.070 L 2.000,8.104 L 2.000,8.138 L 2.003,8.172 L 2.006,8.207 L 2.011,8.240 L 2.018,8.273 L 2.025,8.307 L 2.035,8.339 L 2.047,8.371 L 2.059,8.402 L 2.073,8.434 L 2.088,8.463 L 2.103,8.491 L 2.120,8.520 L 2.139,8.545 L 2.159,8.571 L 2.180,8.596 L 2.201,8.620 L 2.225,8.640 L 2.247,8.661 L 2.272,8.680 L 2.298,8.698 L 2.324,8.716 "/>
<path stroke="none" fill="#FFE9AA" stroke-width="0.001" d="M 4.784,9.203 L 3.552,9.282 L 3.560,9.322 L 3.570,9.362 L 3.584,9.401 L 3.602,9.438 L 3.621,9.478 L 3.644,9.515 L 3.670,9.551 L 3.698,9.586 L 3.730,9.621 L 3.764,9.655 L 3.800,9.687 L 3.840,9.718 L 3.881,9.749 L 3.925,9.777 L 3.971,9.804 L 4.018,9.829 L 4.069,9.853 L 4.120,9.876 L 4.174,9.896 L 4.228,9.916 L 4.286,9.932 L 4.343,9.948 L 4.401,9.960 L 4.462,9.972 L 4.522,9.982 L 4.583,9.990 L 4.644,9.995 L 4.706,9.999 L 4.769,10.000 L 4.831,9.999 L 4.894,9.996 L 4.955,9.991 L 5.016,9.986 L 5.077,9.977 L 5.138,9.967 L 5.196,9.954 L 5.255,9.940 L 5.311,9.923 L 5.368,9.905 L 5.422,9.886 L 5.474,9.864 L 5.525,9.841 L 5.574,9.816 L 5.621,9.790 L 5.666,9.763 L 5.708,9.732 L 5.748,9.703 L 5.786,9.670 L 5.821,9.637 L 5.854,9.604 L 5.884,9.569 L 5.911,9.533 L 5.936,9.496 L 5.957,9.458 L 4.784,9.203 "/>
<path stroke="#805D00" fill="none" stroke-width="0.001"  d="M 3.553,9.283 L 3.560,9.323 L 3.570,9.362 L 3.584,9.401 L 3.602,9.441 L 3.622,9.478 L 3.644,9.515 L 3.670,9.551 L 3.698,9.587 L 3.730,9.621 L 3.764,9.655 L 3.800,9.687 L 3.840,9.718 L 3.882,9.749 L 3.925,9.777 L 3.971,9.804 L 4.018,9.829 L 4.069,9.853 L 4.120,9.876 L 4.174,9.896 L 4.228,9.916 L 4.285,9.932 L 4.342,9.948 L 4.400,9.960 L 4.461,9.972 L 4.521,9.982 L 4.582,9.989 L 4.643,9.995 L 4.705,9.999 L 4.767,10.000 L 4.830,9.999 L 4.891,9.996 L 4.953,9.991 L 5.015,9.986 L 5.076,9.977 L 5.136,9.967 L 5.195,9.954 L 5.253,9.941 L 5.310,9.923 L 5.366,9.906 L 5.419,9.886 L 5.472,9.864 L 5.523,9.842 L 5.572,9.817 L 5.619,9.791 L 5.663,9.763 L 5.707,9.734 L 5.747,9.703 L 5.785,9.672 L 5.820,9.638 L 5.852,9.605 L 5.883,9.569 L 5.910,9.533 L 5.934,9.496 L 5.956,9.459 "/>
<text x="4.683" y="8.248"  fill="#000000" text-anchor="middle" font-size="0.80" font-family="sans" font-style="normal" font-weight="400">
WAN</text>
<path stroke="none" fill="#0096D4" stroke-width="0.001" d="M 17.000,7.882 L 17.000,8.631 L 19.961,8.631 L 19.961,7.882 L 17.000,7.882 "/>
<path stroke="#AAE6FF" fill="none" stroke-width="0.001"  d="M 17.000,7.882 L 17.000,8.631 L 19.961,8.631 L 19.961,7.882 L 17.000,7.882 "/>
<path stroke="none" fill="#005A80" stroke-width="0.001" d="M 19.961,7.882 L 20.879,7.000 L 20.879,7.749 L 19.961,8.631 L 19.961,7.882 "/>
<path stroke="#AAE6FF" fill="none" stroke-width="0.001"  d="M 19.961,7.882 L 20.879,7.000 L 20.879,7.749 L 19.961,8.631 L 19.961,7.882 "/>
<path stroke="none" fill="#00B4FF" stroke-width="0.001" d="M 19.961,7.882 L 20.879,7.000 L 17.915,7.000 L 17.000,7.882 L 19.961,7.882 "/>
<path stroke="#AAE6FF" fill="none" stroke-width="0.001"  d="M 19.961,7.882 L 20.879,7.000 L 17.915,7.000 L 17.000,7.882 L 19.961,7.882 "/>
<path stroke="none" fill="#000000" stroke-width="0.001" d="M 18.857,7.455 L 18.750,7.560 L 19.503,7.560 L 19.396,7.695 L 20.015,7.534 L 19.693,7.401 L 19.611,7.455 L 18.857,7.455 "/>
<path stroke="none" fill="#000000" stroke-width="0.001" d="M 19.234,7.107 L 19.127,7.214 L 19.881,7.214 L 19.746,7.347 L 20.392,7.161 L 20.042,7.026 L 19.990,7.107 L 19.234,7.107 "/>
<path stroke="none" fill="#000000" stroke-width="0.001" d="M 18.588,7.749 L 18.697,7.641 L 17.915,7.641 L 18.050,7.507 L 17.429,7.667 L 17.753,7.802 L 17.808,7.749 L 18.588,7.749 "/>
<path stroke="none" fill="#000000" stroke-width="0.001" d="M 18.939,7.373 L 19.046,7.268 L 18.292,7.268 L 18.428,7.133 L 17.780,7.320 L 18.130,7.455 L 18.184,7.373 L 18.939,7.373 "/>
<path stroke="none" fill="#FFFFFF" stroke-width="0.001" d="M 18.884,7.480 L 18.777,7.587 L 19.531,7.587 L 19.423,7.721 L 20.042,7.560 L 19.718,7.427 L 19.639,7.480 L 18.884,7.480 "/>
<path stroke="none" fill="#FFFFFF" stroke-width="0.001" d="M 19.261,7.133 L 19.154,7.240 L 19.908,7.240 L 19.773,7.373 L 20.420,7.186 L 20.070,7.053 L 20.015,7.133 L 19.261,7.133 "/>
<path stroke="none" fill="#FFFFFF" stroke-width="0.001" d="M 18.614,7.775 L 18.722,7.667 L 17.943,7.667 L 18.075,7.534 L 17.457,7.695 L 17.780,7.828 L 17.834,7.775 L 18.614,7.775 "/>
<path stroke="none" fill="#FFFFFF" stroke-width="0.001" d="M 18.964,7.401 L 19.073,7.293 L 18.318,7.293 L 18.453,7.161 L 17.808,7.347 L 18.158,7.480 L 18.210,7.401 L 18.964,7.401 "/>
<text x="21.000" y="2.223"  fill="#000000" text-anchor="middle" font-size="0.80" font-family="sans" font-style="normal" font-weight="400">
web.mati</text>
<text x="13.000" y="11.223"  fill="#000000" text-anchor="middle" font-size="0.80" font-family="sans" font-style="normal" font-weight="400">
router.mati</text>
<path stroke="none" fill="#C9C9B6" stroke-width="0.001" d="M 20.000,3.235 L 20.248,3.000 L 21.957,3.000 L 21.709,3.235 L 20.000,3.235 "/>
<path stroke="#494936" fill="none" stroke-width="0.001"  d="M 20.000,3.235 L 20.248,3.000 L 21.957,3.000 L 21.709,3.235 L 20.000,3.235 "/>
<path stroke="none" fill="#B7B79D" stroke-width="0.001" d="M 20.000,3.235 L 21.709,3.235 L 21.709,5.000 L 20.000,5.000 L 20.000,3.235 "/>
<path stroke="#494936" fill="none" stroke-width="0.001"  d="M 20.000,3.235 L 21.709,3.235 L 21.709,5.000 L 20.000,5.000 L 20.000,3.235 "/>
<path stroke="none" fill="#7A7A5A" stroke-width="0.001" d="M 21.709,5.000 L 21.957,4.750 L 21.957,3.000 L 21.709,3.235 L 21.709,5.000 "/>
<path stroke="#494936" fill="none" stroke-width="0.001"  d="M 21.709,5.000 L 21.957,4.750 L 21.957,3.000 L 21.709,3.235 L 21.709,5.000 "/>
<path stroke="#DBDBCE" fill="none" stroke-width="0.030"  d="M 20.000,3.706 L 21.723,3.706 "/>
<path stroke="#000000" fill="none" stroke-width="0.030"  d="M 20.000,4.147 L 21.723,4.147 "/>
<path stroke="#000000" fill="none" stroke-width="0.030"  d="M 20.000,4.588 L 21.723,4.588 "/>
<path stroke="#494936" fill="none" stroke-width="0.030"  d="M 20.000,3.691 L 21.723,3.691 "/>
<path stroke="#000000" fill="none" stroke-width="0.030"  d="M 20.000,4.132 L 21.723,4.132 "/>
<path stroke="#000000" fill="none" stroke-width="0.030"  d="M 20.000,4.574 L 21.723,4.574 "/>
<path stroke="#494936" fill="none" stroke-width="0.001"  d="M 20.000,3.235 L 21.709,3.235 L 21.709,5.000 L 20.000,5.000 L 20.000,3.235 "/>
<path stroke="#ECECE7" fill="none" stroke-width="0.070"  d="M 21.169,3.486 L 21.578,3.486 "/>
<path stroke="#000000" fill="none" stroke-width="0.070"  d="M 21.169,3.926 L 21.578,3.926 "/>
<path stroke="#000000" fill="none" stroke-width="0.070"  d="M 21.169,4.368 L 21.578,4.368 "/>
<path stroke="#000000" fill="none" stroke-width="0.070"  d="M 21.169,4.809 L 21.578,4.809 "/>
<path stroke="#000000" fill="none" stroke-width="0.070"  d="M 21.154,3.471 L 21.563,3.471 "/>
<path stroke="#000000" fill="none" stroke-width="0.070"  d="M 21.154,3.912 L 21.563,3.912 "/>
<path stroke="#000000" fill="none" stroke-width="0.070"  d="M 21.154,4.353 L 21.563,4.353 "/>
<path stroke="#000000" fill="none" stroke-width="0.070"  d="M 21.154,4.795 L 21.563,4.795 "/>
<path stroke="none" fill="#B7B79D" stroke-width="0.001" d="M 20.000,11.341 L 21.998,11.341 L 21.998,11.710 L 20.000,11.710 L 20.000,11.341 "/>
<path stroke="#494936" fill="none" stroke-width="0.001"  d="M 20.000,11.341 L 21.998,11.341 L 21.998,11.710 L 20.000,11.710 L 20.000,11.341 "/>
<path stroke="none" fill="#C9C9B6" stroke-width="0.001" d="M 20.000,11.341 L 20.212,11.140 L 22.210,11.140 L 21.998,11.341 L 20.000,11.341 "/>
<path stroke="#494936" fill="none" stroke-width="0.001"  d="M 20.000,11.341 L 20.212,11.140 L 22.210,11.140 L 21.998,11.341 L 20.000,11.341 "/>
<path stroke="#000000" fill="none" stroke-width="0.106"  d="M 21.887,11.509 L 21.407,11.509 "/>
<path stroke="none" fill="#7A7A5A" stroke-width="0.001" d="M 21.998,11.710 L 22.210,11.497 L 22.210,11.140 L 21.998,11.341 L 21.998,11.710 "/>
<path stroke="#494936" fill="none" stroke-width="0.001"  d="M 21.998,11.710 L 22.210,11.497 L 22.210,11.140 L 21.998,11.341 L 21.998,11.710 "/>
<path stroke="none" fill="#C9C9B6" stroke-width="0.001" d="M 20.011,11.944 L 20.234,11.665 L 21.775,11.665 L 21.552,11.944 L 20.011,11.944 "/>
<path stroke="#494936" fill="none" stroke-width="0.001"  d="M 20.011,11.944 L 20.234,11.665 L 21.775,11.665 L 21.552,11.944 L 20.011,11.944 "/>
<path stroke="none" fill="#7A7A5A" stroke-width="0.001" d="M 21.552,12.000 L 21.775,11.766 L 21.775,11.665 L 21.552,11.944 L 21.552,12.000 "/>
<path stroke="#494936" fill="none" stroke-width="0.001"  d="M 21.552,12.000 L 21.775,11.766 L 21.775,11.665 L 21.552,11.944 L 21.552,12.000 "/>
<path stroke="none" fill="#B7B79D" stroke-width="0.001" d="M 20.011,11.944 L 21.552,11.944 L 21.552,12.000 L 20.011,12.000 L 20.011,11.944 "/>
<path stroke="#494936" fill="none" stroke-width="0.001"  d="M 20.011,11.944 L 21.552,11.944 L 21.552,12.000 L 20.011,12.000 L 20.011,11.944 "/>
<path stroke="none" fill="#000000" stroke-width="0.001" d="M 20.301,11.296 L 20.469,11.140 L 21.887,11.140 L 21.731,11.296 L 20.301,11.296 "/>
<path stroke="#000000" fill="none" stroke-width="0.001"  d="M 20.301,11.296 L 20.469,11.140 L 21.887,11.140 L 21.731,11.296 L 20.301,11.296 "/>
<path stroke="none" fill="#C9C9B6" stroke-width="0.001" d="M 20.290,10.145 L 20.447,10.000 L 21.865,10.000 L 21.708,10.145 L 20.290,10.145 "/>
<path stroke="#494936" fill="none" stroke-width="0.001"  d="M 20.290,10.145 L 20.447,10.000 L 21.865,10.000 L 21.708,10.145 L 20.290,10.145 "/>
<path stroke="none" fill="#B7B79D" stroke-width="0.001" d="M 20.290,10.145 L 21.719,10.145 L 21.719,11.274 L 20.290,11.274 L 20.290,10.145 "/>
<path stroke="#494936" fill="none" stroke-width="0.001"  d="M 20.290,10.145 L 21.719,10.145 L 21.719,11.273 L 20.290,11.273 L 20.290,10.145 "/>
<path stroke="none" fill="#FFFFFF" stroke-width="0.001" d="M 20.413,10.290 L 21.596,10.290 L 21.596,11.162 L 20.413,11.162 L 20.413,10.290 "/>
<path stroke="#494936" fill="none" stroke-width="0.001"  d="M 20.413,10.290 L 21.596,10.290 L 21.596,11.162 L 20.413,11.162 L 20.413,10.290 "/>
<path stroke="none" fill="#7A7A5A" stroke-width="0.001" d="M 21.708,11.263 L 21.865,11.106 L 21.865,10.000 L 21.708,10.145 L 21.708,11.263 "/>
<path stroke="#494936" fill="none" stroke-width="0.001"  d="M 21.708,11.263 L 21.865,11.106 L 21.865,10.000 L 21.708,10.145 L 21.708,11.263 "/>
</svg>